<?xml version="1.0" encoding="UTF-8" standalone="no"?>
<!-- Created with Inkscape (http://www.inkscape.org/) -->

<svg
   width="93.18148mm"
   height="48.543644mm"
   viewBox="0 0 93.18148 48.543644"
   version="1.1"
   id="svg5"
   sodipodi:docname="BaseFunctions1D.svg"
   inkscape:version="1.1 (c68e22c387, 2021-05-23)"
   xmlns:inkscape="http://www.inkscape.org/namespaces/inkscape"
   xmlns:sodipodi="http://sodipodi.sourceforge.net/DTD/sodipodi-0.dtd"
   xmlns="http://www.w3.org/2000/svg"
   xmlns:svg="http://www.w3.org/2000/svg"
   xmlns:ns2="http://www.iki.fi/pav/software/textext/">
  <sodipodi:namedview
     id="namedview7"
     pagecolor="#ffffff"
     bordercolor="#666666"
     borderopacity="1.0"
     inkscape:pageshadow="2"
     inkscape:pageopacity="0.0"
     inkscape:pagecheckerboard="0"
     inkscape:document-units="mm"
     showgrid="false"
     inkscape:zoom="2.6832492"
     inkscape:cx="141.80569"
     inkscape:cy="178.70126"
     inkscape:window-width="2560"
     inkscape:window-height="1377"
     inkscape:window-x="-8"
     inkscape:window-y="-8"
     inkscape:window-maximized="1"
     inkscape:current-layer="layer1"
     inkscape:object-paths="true"
     fit-margin-top="1"
     fit-margin-left="1"
     fit-margin-right="1"
     fit-margin-bottom="1" />
  <defs
     id="defs2">
    <marker
       style="overflow:visible"
       id="TriangleOutM"
       refX="0"
       refY="0"
       orient="auto"
       inkscape:stockid="TriangleOutM"
       inkscape:isstock="true">
      <path
         transform="scale(0.4)"
         style="fill:context-stroke;fill-rule:evenodd;stroke:context-stroke;stroke-width:1pt"
         d="M 5.77,0 -2.88,5 V -5 Z"
         id="path1084" />
    </marker>
    <marker
       style="overflow:visible"
       id="TriangleInM"
       refX="0"
       refY="0"
       orient="auto"
       inkscape:stockid="TriangleInM"
       inkscape:isstock="true">
      <path
         transform="scale(-0.4)"
         style="fill:context-stroke;fill-rule:evenodd;stroke:context-stroke;stroke-width:1pt"
         d="M 5.77,0 -2.88,5 V -5 Z"
         id="path1075" />
    </marker>
    <marker
       id="arrow"
       viewBox="0 0 10 10"
       refX="5"
       refY="5"
       markerWidth="4"
       markerHeight="4"
       stroke="none"
       fill="#000000"
       orient="auto-start-reverse">
      <path
         d="M 0 0 L 10 5 L 0 10 z"
         id="path7" />
    </marker>
  </defs>
  <g
     inkscape:label="Layer 1"
     inkscape:groupmode="layer"
     id="layer1"
     transform="translate(-12.179435,-16.168756)">
    <path
       style="fill:none;stroke:#000000;stroke-width:0.529166px;stroke-linecap:butt;stroke-linejoin:miter;stroke-opacity:1;marker-start:url(#arrow);marker-end:url(#arrow)"
       d="M 26.211091,23.69351 V 54.495458 H 91.106872"
       id="path857" />
    <path
       style="fill:none;stroke:#ff0000;stroke-width:0.529166px;stroke-linecap:butt;stroke-linejoin:miter;stroke-opacity:1"
       d="m 26.170741,54.522048 v 2.193658"
       id="path1248" />
    <path
       style="fill:none;stroke:#0000ff;stroke-width:0.529166px;stroke-linecap:butt;stroke-linejoin:miter;stroke-opacity:1"
       d="m 45.817259,54.522048 v 2.193658"
       id="path1330" />
    <path
       style="fill:none;stroke:#000000;stroke-width:0.529166px;stroke-linecap:butt;stroke-linejoin:miter;stroke-opacity:1"
       d="m 65.463775,54.522048 v 2.193658"
       id="path1332" />
    <path
       style="fill:none;stroke:#007d00;stroke-width:0.529166px;stroke-linecap:butt;stroke-linejoin:miter;stroke-opacity:1"
       d="m 85.110291,54.522048 v 2.193658"
       id="path1334" />
    <path
       style="fill:none;stroke:#000000;stroke-width:0.529166px;stroke-linecap:butt;stroke-linejoin:miter;stroke-opacity:1"
       d="m 23.964467,28.835659 h 2.206274"
       id="path1340" />
    <path
       style="fill:none;stroke:#ff0000;stroke-width:0.529166px;stroke-linecap:butt;stroke-linejoin:miter;stroke-opacity:1"
       d="M 26.170742,28.835656 45.817259,54.522048"
       id="path1465"
       sodipodi:nodetypes="cc" />
    <path
       style="fill:none;stroke:#0000ff;stroke-width:0.529166px;stroke-linecap:butt;stroke-linejoin:miter;stroke-opacity:1"
       d="M 26.170738,54.522048 45.817257,28.835656 65.463774,54.522048"
       id="path1764"
       sodipodi:nodetypes="ccc" />
    <path
       style="fill:none;stroke:#000000;stroke-width:0.529166px;stroke-linecap:butt;stroke-linejoin:miter;stroke-opacity:1"
       d="M 45.817255,54.522048 65.463774,28.835656 85.110291,54.522048"
       id="path1766"
       sodipodi:nodetypes="ccc" />
    <path
       style="fill:none;stroke:#007d00;stroke-width:0.529166px;stroke-linecap:butt;stroke-linejoin:miter;stroke-opacity:1"
       d="M 65.463771,54.522048 85.11029,28.835656"
       id="path1768"
       sodipodi:nodetypes="cc" />
    <g
       transform="matrix(0.705556,0,0,0.705556,62.297594,59.4504)"
       ns2:version="1.6.0"
       ns2:texconverter="pdflatex"
       ns2:pdfconverter="inkscape"
       ns2:text="$x_3$"
       ns2:preamble="C:\Users\meyer\Documents\inkscape_TexText_preamble.tex"
       ns2:scale="2.0"
       ns2:alignment="middle center"
       ns2:stroke-to-path="0"
       ns2:jacobian_sqrt="0.705556"
       id="g4599">
      <defs
         id="id-3180b48c-d8e9-4131-b2e2-95fa15fead13">
        <g
           id="id-555d3b00-87fb-43b7-9c3c-c90f481fec56">
          <symbol
             overflow="visible"
             id="id-76749208-ea8d-4fb2-91c4-ab78db49a3f9">
            <path
               style="stroke:none"
               d=""
               id="id-28b5cbf8-bf4d-4628-b2be-ecb7559ef639" />
          </symbol>
          <symbol
             overflow="visible"
             id="id-b8cee38e-7440-4e42-b966-984a80da5f7b">
            <path
               style="stroke:none"
               d="M 3.328125,-3.015625 C 3.390625,-3.265625 3.625,-4.1875 4.3125,-4.1875 c 0.046875,0 0.296875,0 0.5,0.125 C 4.53125,-4 4.34375,-3.765625 4.34375,-3.515625 c 0,0.15625 0.109375,0.34375 0.375,0.34375 0.21875,0 0.53125,-0.171875 0.53125,-0.578125 0,-0.515625 -0.578125,-0.65625 -0.921875,-0.65625 -0.578125,0 -0.921875,0.53125 -1.046875,0.75 -0.25,-0.65625 -0.78125,-0.75 -1.078125,-0.75 -1.03125,0 -1.609375,1.28125 -1.609375,1.53125 0,0.109375 0.109375,0.109375 0.125,0.109375 0.078125,0 0.109375,-0.03125 0.125,-0.109375 0.34375,-1.0625 1,-1.3125 1.34375,-1.3125 0.1875,0 0.53125,0.09375 0.53125,0.671875 0,0.3125 -0.171875,0.96875 -0.53125,2.375 -0.15625,0.609375 -0.515625,1.03125 -0.953125,1.03125 -0.0625,0 -0.28125,0 -0.5,-0.125 0.25,-0.0625 0.46875,-0.265625 0.46875,-0.546875 0,-0.265625 -0.21875,-0.34375 -0.359375,-0.34375 -0.3125,0 -0.546875,0.25 -0.546875,0.578125 0,0.453125 0.484375,0.65625 0.921875,0.65625 0.671875,0 1.03125,-0.703125 1.046875,-0.75 0.125,0.359375 0.484375,0.75 1.078125,0.75 1.03125,0 1.59375,-1.28125 1.59375,-1.53125 0,-0.109375 -0.078125,-0.109375 -0.109375,-0.109375 -0.09375,0 -0.109375,0.046875 -0.140625,0.109375 -0.328125,1.078125 -1,1.3125 -1.3125,1.3125 -0.390625,0 -0.546875,-0.3125 -0.546875,-0.65625 0,-0.21875 0.046875,-0.4375 0.15625,-0.875 z m 0,0"
               id="id-5d3cd60d-3153-40c7-8215-642fd98dc362" />
          </symbol>
          <symbol
             overflow="visible"
             id="id-8f3e82f9-eee6-4242-8e6a-75269889f279">
            <path
               style="stroke:none"
               d=""
               id="id-54dc55db-e42a-4387-94cc-a4493c1e399c" />
          </symbol>
          <symbol
             overflow="visible"
             id="id-0e18a048-ca77-4e2f-bb45-083fa677bd38">
            <path
               style="stroke:none"
               d="m 1.90625,-2.328125 c 0.546875,0 0.9375,0.375 0.9375,1.125 0,0.859375 -0.515625,1.125 -0.90625,1.125 -0.28125,0 -0.90625,-0.078125 -1.1875,-0.5 0.328125,0 0.40625,-0.234375 0.40625,-0.390625 0,-0.21875 -0.171875,-0.375 -0.390625,-0.375 -0.1875,0 -0.390625,0.125 -0.390625,0.40625 0,0.65625 0.71875,1.078125 1.5625,1.078125 0.96875,0 1.640625,-0.65625 1.640625,-1.34375 0,-0.546875 -0.4375,-1.09375 -1.203125,-1.25 0.71875,-0.265625 0.984375,-0.78125 0.984375,-1.21875 0,-0.546875 -0.625,-0.953125 -1.40625,-0.953125 -0.765625,0 -1.359375,0.375 -1.359375,0.9375 0,0.234375 0.15625,0.359375 0.359375,0.359375 0.21875,0 0.359375,-0.15625 0.359375,-0.34375 0,-0.203125 -0.140625,-0.359375 -0.359375,-0.375 0.25,-0.296875 0.71875,-0.375 0.984375,-0.375 0.3125,0 0.75,0.15625 0.75,0.75 0,0.296875 -0.09375,0.625 -0.28125,0.828125 -0.21875,0.265625 -0.421875,0.28125 -0.765625,0.3125 -0.171875,0.015625 -0.1875,0.015625 -0.21875,0.015625 -0.015625,0 -0.078125,0.015625 -0.078125,0.09375 0,0.09375 0.0625,0.09375 0.1875,0.09375 z m 0,0"
               id="id-4d215aaf-2f12-4aaf-84e0-923209f114ed" />
          </symbol>
        </g>
      </defs>
      <g
         id="id-f7130282-b6e5-4d7b-9430-d007862a3bc8"
         transform="translate(-149.009,-130.359)">
        <g
           style="fill:#000000;fill-opacity:1"
           id="id-e36bf3c9-59b0-4bcb-b3fa-2ec9faa1e966">
          <g
             transform="translate(148.712,134.765)"
             id="g5026">
            <path
               style="stroke:none"
               d="M 3.328125,-3.015625 C 3.390625,-3.265625 3.625,-4.1875 4.3125,-4.1875 c 0.046875,0 0.296875,0 0.5,0.125 C 4.53125,-4 4.34375,-3.765625 4.34375,-3.515625 c 0,0.15625 0.109375,0.34375 0.375,0.34375 0.21875,0 0.53125,-0.171875 0.53125,-0.578125 0,-0.515625 -0.578125,-0.65625 -0.921875,-0.65625 -0.578125,0 -0.921875,0.53125 -1.046875,0.75 -0.25,-0.65625 -0.78125,-0.75 -1.078125,-0.75 -1.03125,0 -1.609375,1.28125 -1.609375,1.53125 0,0.109375 0.109375,0.109375 0.125,0.109375 0.078125,0 0.109375,-0.03125 0.125,-0.109375 0.34375,-1.0625 1,-1.3125 1.34375,-1.3125 0.1875,0 0.53125,0.09375 0.53125,0.671875 0,0.3125 -0.171875,0.96875 -0.53125,2.375 -0.15625,0.609375 -0.515625,1.03125 -0.953125,1.03125 -0.0625,0 -0.28125,0 -0.5,-0.125 0.25,-0.0625 0.46875,-0.265625 0.46875,-0.546875 0,-0.265625 -0.21875,-0.34375 -0.359375,-0.34375 -0.3125,0 -0.546875,0.25 -0.546875,0.578125 0,0.453125 0.484375,0.65625 0.921875,0.65625 0.671875,0 1.03125,-0.703125 1.046875,-0.75 0.125,0.359375 0.484375,0.75 1.078125,0.75 1.03125,0 1.59375,-1.28125 1.59375,-1.53125 0,-0.109375 -0.078125,-0.109375 -0.109375,-0.109375 -0.09375,0 -0.109375,0.046875 -0.140625,0.109375 -0.328125,1.078125 -1,1.3125 -1.3125,1.3125 -0.390625,0 -0.546875,-0.3125 -0.546875,-0.65625 0,-0.21875 0.046875,-0.4375 0.15625,-0.875 z m 0,0"
               id="id-a18472f9-8fbb-4ff1-a74b-8dc7af34044e" />
          </g>
        </g>
        <g
           style="fill:#000000;fill-opacity:1"
           id="id-b6dc35c2-2de9-4d50-acef-f98e5fa6e855">
          <g
             transform="translate(154.406,136.259)"
             id="g5030">
            <path
               style="stroke:none"
               d="m 1.90625,-2.328125 c 0.546875,0 0.9375,0.375 0.9375,1.125 0,0.859375 -0.515625,1.125 -0.90625,1.125 -0.28125,0 -0.90625,-0.078125 -1.1875,-0.5 0.328125,0 0.40625,-0.234375 0.40625,-0.390625 0,-0.21875 -0.171875,-0.375 -0.390625,-0.375 -0.1875,0 -0.390625,0.125 -0.390625,0.40625 0,0.65625 0.71875,1.078125 1.5625,1.078125 0.96875,0 1.640625,-0.65625 1.640625,-1.34375 0,-0.546875 -0.4375,-1.09375 -1.203125,-1.25 0.71875,-0.265625 0.984375,-0.78125 0.984375,-1.21875 0,-0.546875 -0.625,-0.953125 -1.40625,-0.953125 -0.765625,0 -1.359375,0.375 -1.359375,0.9375 0,0.234375 0.15625,0.359375 0.359375,0.359375 0.21875,0 0.359375,-0.15625 0.359375,-0.34375 0,-0.203125 -0.140625,-0.359375 -0.359375,-0.375 0.25,-0.296875 0.71875,-0.375 0.984375,-0.375 0.3125,0 0.75,0.15625 0.75,0.75 0,0.296875 -0.09375,0.625 -0.28125,0.828125 -0.21875,0.265625 -0.421875,0.28125 -0.765625,0.3125 -0.171875,0.015625 -0.1875,0.015625 -0.21875,0.015625 -0.015625,0 -0.078125,0.015625 -0.078125,0.09375 0,0.09375 0.0625,0.09375 0.1875,0.09375 z m 0,0"
               id="id-b80f3c8d-65d5-439a-ba12-7f85fc0c9525" />
          </g>
        </g>
      </g>
    </g>
    <g
       transform="matrix(0.705556,0,0,0.705556,81.905523,59.4504)"
       ns2:version="1.6.0"
       ns2:texconverter="pdflatex"
       ns2:pdfconverter="inkscape"
       ns2:text="\\definecolor{linecolor}{RGB}{0,125,0}\n$\\color{linecolor}{x_4}$"
       ns2:preamble="C:\Users\meyer\Documents\inkscape_TexText_preamble.tex"
       ns2:scale="2.0"
       ns2:alignment="middle center"
       ns2:stroke-to-path="0"
       ns2:jacobian_sqrt="0.705556"
       id="g4635">
      <defs
         id="id-3c8fb26e-feff-47d4-b915-4327729fff80">
        <g
           id="id-1da0086a-1d4a-48dc-b8bd-43e9f0ca508c">
          <symbol
             overflow="visible"
             id="id-d674291a-2c4c-4367-a7ce-2f203c8f92c7">
            <path
               style="stroke:none"
               d=""
               id="id-29c78cd9-11af-40d8-9da8-985cca937b40" />
          </symbol>
          <symbol
             overflow="visible"
             id="id-ebd8cf73-5388-4fab-94f7-aaba881b686a">
            <path
               style="stroke:none"
               d="M 3.328125,-3.015625 C 3.390625,-3.265625 3.625,-4.1875 4.3125,-4.1875 c 0.046875,0 0.296875,0 0.5,0.125 C 4.53125,-4 4.34375,-3.765625 4.34375,-3.515625 c 0,0.15625 0.109375,0.34375 0.375,0.34375 0.21875,0 0.53125,-0.171875 0.53125,-0.578125 0,-0.515625 -0.578125,-0.65625 -0.921875,-0.65625 -0.578125,0 -0.921875,0.53125 -1.046875,0.75 -0.25,-0.65625 -0.78125,-0.75 -1.078125,-0.75 -1.03125,0 -1.609375,1.28125 -1.609375,1.53125 0,0.109375 0.109375,0.109375 0.125,0.109375 0.078125,0 0.109375,-0.03125 0.125,-0.109375 0.34375,-1.0625 1,-1.3125 1.34375,-1.3125 0.1875,0 0.53125,0.09375 0.53125,0.671875 0,0.3125 -0.171875,0.96875 -0.53125,2.375 -0.15625,0.609375 -0.515625,1.03125 -0.953125,1.03125 -0.0625,0 -0.28125,0 -0.5,-0.125 0.25,-0.0625 0.46875,-0.265625 0.46875,-0.546875 0,-0.265625 -0.21875,-0.34375 -0.359375,-0.34375 -0.3125,0 -0.546875,0.25 -0.546875,0.578125 0,0.453125 0.484375,0.65625 0.921875,0.65625 0.671875,0 1.03125,-0.703125 1.046875,-0.75 0.125,0.359375 0.484375,0.75 1.078125,0.75 1.03125,0 1.59375,-1.28125 1.59375,-1.53125 0,-0.109375 -0.078125,-0.109375 -0.109375,-0.109375 -0.09375,0 -0.109375,0.046875 -0.140625,0.109375 -0.328125,1.078125 -1,1.3125 -1.3125,1.3125 -0.390625,0 -0.546875,-0.3125 -0.546875,-0.65625 0,-0.21875 0.046875,-0.4375 0.15625,-0.875 z m 0,0"
               id="id-921e2df6-0d88-4982-85e4-7275c61c5644" />
          </symbol>
          <symbol
             overflow="visible"
             id="id-2f475bf7-eae0-4d46-957f-df13ec7b3029">
            <path
               style="stroke:none"
               d=""
               id="id-6334e9df-a882-4758-bbb1-77523f79c395" />
          </symbol>
          <symbol
             overflow="visible"
             id="id-6db5c7b3-15bc-4c82-9c75-75b8d0163484">
            <path
               style="stroke:none"
               d="m 3.6875,-1.140625 v -0.25 H 2.90625 V -4.5 c 0,-0.140625 0,-0.203125 -0.140625,-0.203125 -0.09375,0 -0.125,0 -0.1875,0.109375 l -2.3125,3.203125 v 0.25 h 2.0625 v 0.5625 c 0,0.25 0,0.328125 -0.578125,0.328125 H 1.5625 V 0 C 1.921875,-0.015625 2.359375,-0.03125 2.609375,-0.03125 2.875,-0.03125 3.3125,-0.015625 3.671875,0 v -0.25 h -0.1875 C 2.90625,-0.25 2.90625,-0.328125 2.90625,-0.578125 v -0.5625 z M 2.375,-3.9375 v 2.546875 H 0.53125 Z m 0,0"
               id="id-bc977f81-73a7-4400-ae7c-6f86f07ce207" />
          </symbol>
        </g>
      </defs>
      <g
         id="id-aa978f19-ede2-4a2c-8eac-8f95c1317a87"
         transform="translate(-149.009,-130.359)">
        <g
           style="fill:#007d00;fill-opacity:1"
           id="id-c4e6f738-942e-4bbe-a9c1-e47e036dd62b">
          <g
             transform="translate(148.712,134.765)"
             id="g5462">
            <path
               style="stroke:none"
               d="M 3.328125,-3.015625 C 3.390625,-3.265625 3.625,-4.1875 4.3125,-4.1875 c 0.046875,0 0.296875,0 0.5,0.125 C 4.53125,-4 4.34375,-3.765625 4.34375,-3.515625 c 0,0.15625 0.109375,0.34375 0.375,0.34375 0.21875,0 0.53125,-0.171875 0.53125,-0.578125 0,-0.515625 -0.578125,-0.65625 -0.921875,-0.65625 -0.578125,0 -0.921875,0.53125 -1.046875,0.75 -0.25,-0.65625 -0.78125,-0.75 -1.078125,-0.75 -1.03125,0 -1.609375,1.28125 -1.609375,1.53125 0,0.109375 0.109375,0.109375 0.125,0.109375 0.078125,0 0.109375,-0.03125 0.125,-0.109375 0.34375,-1.0625 1,-1.3125 1.34375,-1.3125 0.1875,0 0.53125,0.09375 0.53125,0.671875 0,0.3125 -0.171875,0.96875 -0.53125,2.375 -0.15625,0.609375 -0.515625,1.03125 -0.953125,1.03125 -0.0625,0 -0.28125,0 -0.5,-0.125 0.25,-0.0625 0.46875,-0.265625 0.46875,-0.546875 0,-0.265625 -0.21875,-0.34375 -0.359375,-0.34375 -0.3125,0 -0.546875,0.25 -0.546875,0.578125 0,0.453125 0.484375,0.65625 0.921875,0.65625 0.671875,0 1.03125,-0.703125 1.046875,-0.75 0.125,0.359375 0.484375,0.75 1.078125,0.75 1.03125,0 1.59375,-1.28125 1.59375,-1.53125 0,-0.109375 -0.078125,-0.109375 -0.109375,-0.109375 -0.09375,0 -0.109375,0.046875 -0.140625,0.109375 -0.328125,1.078125 -1,1.3125 -1.3125,1.3125 -0.390625,0 -0.546875,-0.3125 -0.546875,-0.65625 0,-0.21875 0.046875,-0.4375 0.15625,-0.875 z m 0,0"
               id="id-6d7a1421-03c8-4bca-8c2c-e42ffdd3fb10" />
          </g>
        </g>
        <g
           style="fill:#007d00;fill-opacity:1"
           id="id-4dcef8a7-7b69-4e65-b294-18c34d62ef28">
          <g
             transform="translate(154.406,136.259)"
             id="g5466">
            <path
               style="stroke:none"
               d="m 3.6875,-1.140625 v -0.25 H 2.90625 V -4.5 c 0,-0.140625 0,-0.203125 -0.140625,-0.203125 -0.09375,0 -0.125,0 -0.1875,0.109375 l -2.3125,3.203125 v 0.25 h 2.0625 v 0.5625 c 0,0.25 0,0.328125 -0.578125,0.328125 H 1.5625 V 0 C 1.921875,-0.015625 2.359375,-0.03125 2.609375,-0.03125 2.875,-0.03125 3.3125,-0.015625 3.671875,0 v -0.25 h -0.1875 C 2.90625,-0.25 2.90625,-0.328125 2.90625,-0.578125 v -0.5625 z M 2.375,-3.9375 v 2.546875 H 0.53125 Z m 0,0"
               id="id-56e24c28-f228-4ee5-87c3-e26733886518" />
          </g>
        </g>
      </g>
    </g>
    <g
       transform="matrix(0.705556,0,0,0.705556,42.673125,59.4504)"
       ns2:version="1.6.0"
       ns2:texconverter="pdflatex"
       ns2:pdfconverter="inkscape"
       ns2:text="\\definecolor{linecolor}{RGB}{0,0,255}\n$\\color{linecolor}{x_2}$"
       ns2:preamble="C:\Users\meyer\Documents\inkscape_TexText_preamble.tex"
       ns2:scale="2.0"
       ns2:alignment="middle center"
       ns2:stroke-to-path="0"
       ns2:jacobian_sqrt="0.705556"
       id="g4563">
      <defs
         id="id-5c2dd538-8f15-414a-b7e3-0febe1a7d153">
        <g
           id="id-aed12808-a25b-4415-a266-d4ee9f9ceaad">
          <symbol
             overflow="visible"
             id="id-e4be04aa-64a1-4ee6-8fcf-dc74729ee45f">
            <path
               style="stroke:none"
               d=""
               id="id-7c6a4882-3dec-4370-b5d7-00d5d58c9d14" />
          </symbol>
          <symbol
             overflow="visible"
             id="id-39f9c859-eafe-47cc-948a-66abf40dfffe">
            <path
               style="stroke:none"
               d="M 3.328125,-3.015625 C 3.390625,-3.265625 3.625,-4.1875 4.3125,-4.1875 c 0.046875,0 0.296875,0 0.5,0.125 C 4.53125,-4 4.34375,-3.765625 4.34375,-3.515625 c 0,0.15625 0.109375,0.34375 0.375,0.34375 0.21875,0 0.53125,-0.171875 0.53125,-0.578125 0,-0.515625 -0.578125,-0.65625 -0.921875,-0.65625 -0.578125,0 -0.921875,0.53125 -1.046875,0.75 -0.25,-0.65625 -0.78125,-0.75 -1.078125,-0.75 -1.03125,0 -1.609375,1.28125 -1.609375,1.53125 0,0.109375 0.109375,0.109375 0.125,0.109375 0.078125,0 0.109375,-0.03125 0.125,-0.109375 0.34375,-1.0625 1,-1.3125 1.34375,-1.3125 0.1875,0 0.53125,0.09375 0.53125,0.671875 0,0.3125 -0.171875,0.96875 -0.53125,2.375 -0.15625,0.609375 -0.515625,1.03125 -0.953125,1.03125 -0.0625,0 -0.28125,0 -0.5,-0.125 0.25,-0.0625 0.46875,-0.265625 0.46875,-0.546875 0,-0.265625 -0.21875,-0.34375 -0.359375,-0.34375 -0.3125,0 -0.546875,0.25 -0.546875,0.578125 0,0.453125 0.484375,0.65625 0.921875,0.65625 0.671875,0 1.03125,-0.703125 1.046875,-0.75 0.125,0.359375 0.484375,0.75 1.078125,0.75 1.03125,0 1.59375,-1.28125 1.59375,-1.53125 0,-0.109375 -0.078125,-0.109375 -0.109375,-0.109375 -0.09375,0 -0.109375,0.046875 -0.140625,0.109375 -0.328125,1.078125 -1,1.3125 -1.3125,1.3125 -0.390625,0 -0.546875,-0.3125 -0.546875,-0.65625 0,-0.21875 0.046875,-0.4375 0.15625,-0.875 z m 0,0"
               id="id-0b1be162-2fb1-47eb-a31d-58834b196206" />
          </symbol>
          <symbol
             overflow="visible"
             id="id-7c9f001d-6820-40a7-a6f0-43d15d110071">
            <path
               style="stroke:none"
               d=""
               id="id-847d065a-bd38-4941-b1eb-50506f889757" />
          </symbol>
          <symbol
             overflow="visible"
             id="id-0e00deaf-1259-4cdc-b4c8-ff95e102f4d6">
            <path
               style="stroke:none"
               d="M 3.515625,-1.265625 H 3.28125 c -0.015625,0.15625 -0.09375,0.5625 -0.1875,0.625 C 3.046875,-0.59375 2.515625,-0.59375 2.40625,-0.59375 H 1.125 c 0.734375,-0.640625 0.984375,-0.84375 1.390625,-1.171875 0.515625,-0.40625 1,-0.84375 1,-1.5 0,-0.84375 -0.734375,-1.359375 -1.625,-1.359375 -0.859375,0 -1.453125,0.609375 -1.453125,1.25 0,0.34375 0.296875,0.390625 0.375,0.390625 0.15625,0 0.359375,-0.125 0.359375,-0.375 0,-0.125 -0.046875,-0.375 -0.40625,-0.375 C 0.984375,-4.21875 1.453125,-4.375 1.78125,-4.375 c 0.703125,0 1.0625,0.546875 1.0625,1.109375 0,0.609375 -0.4375,1.078125 -0.65625,1.328125 L 0.515625,-0.265625 C 0.4375,-0.203125 0.4375,-0.1875 0.4375,0 h 2.875 z m 0,0"
               id="id-b47c6440-18e0-4ccd-93ad-46fe7d7deb4a" />
          </symbol>
        </g>
      </defs>
      <g
         id="id-201b977c-fd30-4421-aca2-2bcd84465d2c"
         transform="translate(-149.009,-130.359)">
        <g
           style="fill:#0000ff;fill-opacity:1"
           id="id-2a7ccccd-71bc-4512-bf40-1c61e53edafc">
          <g
             transform="translate(148.712,134.765)"
             id="g5680">
            <path
               style="stroke:none"
               d="M 3.328125,-3.015625 C 3.390625,-3.265625 3.625,-4.1875 4.3125,-4.1875 c 0.046875,0 0.296875,0 0.5,0.125 C 4.53125,-4 4.34375,-3.765625 4.34375,-3.515625 c 0,0.15625 0.109375,0.34375 0.375,0.34375 0.21875,0 0.53125,-0.171875 0.53125,-0.578125 0,-0.515625 -0.578125,-0.65625 -0.921875,-0.65625 -0.578125,0 -0.921875,0.53125 -1.046875,0.75 -0.25,-0.65625 -0.78125,-0.75 -1.078125,-0.75 -1.03125,0 -1.609375,1.28125 -1.609375,1.53125 0,0.109375 0.109375,0.109375 0.125,0.109375 0.078125,0 0.109375,-0.03125 0.125,-0.109375 0.34375,-1.0625 1,-1.3125 1.34375,-1.3125 0.1875,0 0.53125,0.09375 0.53125,0.671875 0,0.3125 -0.171875,0.96875 -0.53125,2.375 -0.15625,0.609375 -0.515625,1.03125 -0.953125,1.03125 -0.0625,0 -0.28125,0 -0.5,-0.125 0.25,-0.0625 0.46875,-0.265625 0.46875,-0.546875 0,-0.265625 -0.21875,-0.34375 -0.359375,-0.34375 -0.3125,0 -0.546875,0.25 -0.546875,0.578125 0,0.453125 0.484375,0.65625 0.921875,0.65625 0.671875,0 1.03125,-0.703125 1.046875,-0.75 0.125,0.359375 0.484375,0.75 1.078125,0.75 1.03125,0 1.59375,-1.28125 1.59375,-1.53125 0,-0.109375 -0.078125,-0.109375 -0.109375,-0.109375 -0.09375,0 -0.109375,0.046875 -0.140625,0.109375 -0.328125,1.078125 -1,1.3125 -1.3125,1.3125 -0.390625,0 -0.546875,-0.3125 -0.546875,-0.65625 0,-0.21875 0.046875,-0.4375 0.15625,-0.875 z m 0,0"
               id="id-97594d65-7aab-43d7-b5f6-de5f4b38699b" />
          </g>
        </g>
        <g
           style="fill:#0000ff;fill-opacity:1"
           id="id-62a37049-78f6-4403-ae5e-0bb0613f0bd2">
          <g
             transform="translate(154.406,136.259)"
             id="g5684">
            <path
               style="stroke:none"
               d="M 3.515625,-1.265625 H 3.28125 c -0.015625,0.15625 -0.09375,0.5625 -0.1875,0.625 C 3.046875,-0.59375 2.515625,-0.59375 2.40625,-0.59375 H 1.125 c 0.734375,-0.640625 0.984375,-0.84375 1.390625,-1.171875 0.515625,-0.40625 1,-0.84375 1,-1.5 0,-0.84375 -0.734375,-1.359375 -1.625,-1.359375 -0.859375,0 -1.453125,0.609375 -1.453125,1.25 0,0.34375 0.296875,0.390625 0.375,0.390625 0.15625,0 0.359375,-0.125 0.359375,-0.375 0,-0.125 -0.046875,-0.375 -0.40625,-0.375 C 0.984375,-4.21875 1.453125,-4.375 1.78125,-4.375 c 0.703125,0 1.0625,0.546875 1.0625,1.109375 0,0.609375 -0.4375,1.078125 -0.65625,1.328125 L 0.515625,-0.265625 C 0.4375,-0.203125 0.4375,-0.1875 0.4375,0 h 2.875 z m 0,0"
               id="id-033085fc-d393-47ce-b120-556421c5e3c0" />
          </g>
        </g>
      </g>
    </g>
    <g
       transform="matrix(0.705556,0,0,0.705556,23.103777,59.4504)"
       ns2:version="1.6.0"
       ns2:texconverter="pdflatex"
       ns2:pdfconverter="inkscape"
       ns2:text="\\definecolor{linecolor}{RGB}{255,0,0}\n$\\color{linecolor}{x_1}$"
       ns2:preamble="C:\Users\meyer\Documents\inkscape_TexText_preamble.tex"
       ns2:scale="2.0"
       ns2:alignment="middle center"
       ns2:stroke-to-path="0"
       ns2:jacobian_sqrt="0.705556"
       id="g4489">
      <defs
         id="id-4d1d748d-3b29-4f49-a2c8-353100d999ac">
        <g
           id="id-2f065865-6730-42c3-9a54-ad33d67685f2">
          <symbol
             overflow="visible"
             id="id-999843fc-7f35-4101-a04c-c2930ae8fde8">
            <path
               style="stroke:none"
               d=""
               id="id-7cca7351-aec0-48fe-ab91-11671f9276b7" />
          </symbol>
          <symbol
             overflow="visible"
             id="id-3b41e312-352a-4981-bf6c-092dcf832fc8">
            <path
               style="stroke:none"
               d="M 3.328125,-3.015625 C 3.390625,-3.265625 3.625,-4.1875 4.3125,-4.1875 c 0.046875,0 0.296875,0 0.5,0.125 C 4.53125,-4 4.34375,-3.765625 4.34375,-3.515625 c 0,0.15625 0.109375,0.34375 0.375,0.34375 0.21875,0 0.53125,-0.171875 0.53125,-0.578125 0,-0.515625 -0.578125,-0.65625 -0.921875,-0.65625 -0.578125,0 -0.921875,0.53125 -1.046875,0.75 -0.25,-0.65625 -0.78125,-0.75 -1.078125,-0.75 -1.03125,0 -1.609375,1.28125 -1.609375,1.53125 0,0.109375 0.109375,0.109375 0.125,0.109375 0.078125,0 0.109375,-0.03125 0.125,-0.109375 0.34375,-1.0625 1,-1.3125 1.34375,-1.3125 0.1875,0 0.53125,0.09375 0.53125,0.671875 0,0.3125 -0.171875,0.96875 -0.53125,2.375 -0.15625,0.609375 -0.515625,1.03125 -0.953125,1.03125 -0.0625,0 -0.28125,0 -0.5,-0.125 0.25,-0.0625 0.46875,-0.265625 0.46875,-0.546875 0,-0.265625 -0.21875,-0.34375 -0.359375,-0.34375 -0.3125,0 -0.546875,0.25 -0.546875,0.578125 0,0.453125 0.484375,0.65625 0.921875,0.65625 0.671875,0 1.03125,-0.703125 1.046875,-0.75 0.125,0.359375 0.484375,0.75 1.078125,0.75 1.03125,0 1.59375,-1.28125 1.59375,-1.53125 0,-0.109375 -0.078125,-0.109375 -0.109375,-0.109375 -0.09375,0 -0.109375,0.046875 -0.140625,0.109375 -0.328125,1.078125 -1,1.3125 -1.3125,1.3125 -0.390625,0 -0.546875,-0.3125 -0.546875,-0.65625 0,-0.21875 0.046875,-0.4375 0.15625,-0.875 z m 0,0"
               id="id-6961b0fb-b5d4-4f0b-a4d3-9db8ba98ebcd" />
          </symbol>
          <symbol
             overflow="visible"
             id="id-cb674f04-a3d1-43fd-a6dc-e7fd29889a2f">
            <path
               style="stroke:none"
               d=""
               id="id-e8bb3e0f-9ca6-4ae9-804e-a49764e1a4d7" />
          </symbol>
          <symbol
             overflow="visible"
             id="id-17d02421-831e-49b2-b8a6-03863b037117">
            <path
               style="stroke:none"
               d="m 2.328125,-4.4375 c 0,-0.1875 0,-0.1875 -0.203125,-0.1875 -0.453125,0.4375 -1.078125,0.4375 -1.359375,0.4375 v 0.25 c 0.15625,0 0.625,0 1,-0.1875 v 3.546875 c 0,0.234375 0,0.328125 -0.6875,0.328125 H 0.8125 V 0 c 0.125,0 0.984375,-0.03125 1.234375,-0.03125 0.21875,0 1.09375,0.03125 1.25,0.03125 V -0.25 H 3.03125 c -0.703125,0 -0.703125,-0.09375 -0.703125,-0.328125 z m 0,0"
               id="id-af192c4c-e270-4366-9610-7e23ff06c7d7" />
          </symbol>
        </g>
      </defs>
      <g
         id="id-c12b996c-32db-42c8-b26c-51819eb7270d"
         transform="translate(-149.009,-130.359)">
        <g
           style="fill:#ff0000;fill-opacity:1"
           id="id-84886802-a2b8-4093-beec-657ffce4216d">
          <g
             transform="translate(148.712,134.765)"
             id="g5898">
            <path
               style="stroke:none"
               d="M 3.328125,-3.015625 C 3.390625,-3.265625 3.625,-4.1875 4.3125,-4.1875 c 0.046875,0 0.296875,0 0.5,0.125 C 4.53125,-4 4.34375,-3.765625 4.34375,-3.515625 c 0,0.15625 0.109375,0.34375 0.375,0.34375 0.21875,0 0.53125,-0.171875 0.53125,-0.578125 0,-0.515625 -0.578125,-0.65625 -0.921875,-0.65625 -0.578125,0 -0.921875,0.53125 -1.046875,0.75 -0.25,-0.65625 -0.78125,-0.75 -1.078125,-0.75 -1.03125,0 -1.609375,1.28125 -1.609375,1.53125 0,0.109375 0.109375,0.109375 0.125,0.109375 0.078125,0 0.109375,-0.03125 0.125,-0.109375 0.34375,-1.0625 1,-1.3125 1.34375,-1.3125 0.1875,0 0.53125,0.09375 0.53125,0.671875 0,0.3125 -0.171875,0.96875 -0.53125,2.375 -0.15625,0.609375 -0.515625,1.03125 -0.953125,1.03125 -0.0625,0 -0.28125,0 -0.5,-0.125 0.25,-0.0625 0.46875,-0.265625 0.46875,-0.546875 0,-0.265625 -0.21875,-0.34375 -0.359375,-0.34375 -0.3125,0 -0.546875,0.25 -0.546875,0.578125 0,0.453125 0.484375,0.65625 0.921875,0.65625 0.671875,0 1.03125,-0.703125 1.046875,-0.75 0.125,0.359375 0.484375,0.75 1.078125,0.75 1.03125,0 1.59375,-1.28125 1.59375,-1.53125 0,-0.109375 -0.078125,-0.109375 -0.109375,-0.109375 -0.09375,0 -0.109375,0.046875 -0.140625,0.109375 -0.328125,1.078125 -1,1.3125 -1.3125,1.3125 -0.390625,0 -0.546875,-0.3125 -0.546875,-0.65625 0,-0.21875 0.046875,-0.4375 0.15625,-0.875 z m 0,0"
               id="id-03a21c06-f7b6-4cd1-9447-7a94ef52a53e" />
          </g>
        </g>
        <g
           style="fill:#ff0000;fill-opacity:1"
           id="id-43228307-e9ed-4cb4-a93c-426b5c5c7b0d">
          <g
             transform="translate(154.406,136.259)"
             id="g5902">
            <path
               style="stroke:none"
               d="m 2.328125,-4.4375 c 0,-0.1875 0,-0.1875 -0.203125,-0.1875 -0.453125,0.4375 -1.078125,0.4375 -1.359375,0.4375 v 0.25 c 0.15625,0 0.625,0 1,-0.1875 v 3.546875 c 0,0.234375 0,0.328125 -0.6875,0.328125 H 0.8125 V 0 c 0.125,0 0.984375,-0.03125 1.234375,-0.03125 0.21875,0 1.09375,0.03125 1.25,0.03125 V -0.25 H 3.03125 c -0.703125,0 -0.703125,-0.09375 -0.703125,-0.328125 z m 0,0"
               id="id-73fe214c-8dcf-424c-b3b8-10e614283ae4" />
          </g>
        </g>
      </g>
    </g>
    <g
       transform="matrix(0.705556,0,0,0.705556,13.1797,26.3909)"
       ns2:version="1.6.0"
       ns2:texconverter="pdflatex"
       ns2:pdfconverter="inkscape"
       ns2:text="$1.0$"
       ns2:preamble="C:\Users\meyer\Documents\inkscape_TexText_preamble.tex"
       ns2:scale="2.0"
       ns2:alignment="middle center"
       ns2:stroke-to-path="0"
       ns2:jacobian_sqrt="0.705556"
       id="g5979">
      <defs
         id="id-e0ec9c74-5295-4142-8dfc-4ef379914448">
        <g
           id="id-0bf2a995-ad8c-4a9b-8f45-821fc7c18e31">
          <symbol
             overflow="visible"
             id="id-8e203315-588c-4670-80c0-af1e110fcc8b">
            <path
               style="stroke:none"
               d=""
               id="id-130086ec-18fd-49e5-8c43-645ddba7cef4" />
          </symbol>
          <symbol
             overflow="visible"
             id="id-6596c451-b253-4c2f-9115-2862a42c4217">
            <path
               style="stroke:none"
               d="m 2.9375,-6.375 c 0,-0.25 0,-0.265625 -0.234375,-0.265625 C 2.078125,-6 1.203125,-6 0.890625,-6 v 0.3125 c 0.203125,0 0.78125,0 1.296875,-0.265625 v 5.171875 c 0,0.359375 -0.03125,0.46875 -0.921875,0.46875 h -0.3125 V 0 c 0.34375,-0.03125 1.203125,-0.03125 1.609375,-0.03125 0.390625,0 1.265625,0 1.609375,0.03125 v -0.3125 h -0.3125 c -0.90625,0 -0.921875,-0.109375 -0.921875,-0.46875 z m 0,0"
               id="id-35ddb940-152f-4fdf-a40b-ba5329aa626e" />
          </symbol>
          <symbol
             overflow="visible"
             id="id-98a0aa86-9de1-442e-bda9-e1154d5949eb">
            <path
               style="stroke:none"
               d="m 4.578125,-3.1875 c 0,-0.796875 -0.046875,-1.59375 -0.390625,-2.328125 -0.453125,-0.96875 -1.28125,-1.125 -1.6875,-1.125 -0.609375,0 -1.328125,0.265625 -1.75,1.1875 -0.3125,0.6875 -0.359375,1.46875 -0.359375,2.265625 0,0.75 0.03125,1.640625 0.453125,2.40625 0.421875,0.796875 1.15625,1 1.640625,1 0.53125,0 1.296875,-0.203125 1.734375,-1.15625 0.3125,-0.6875 0.359375,-1.46875 0.359375,-2.25 z M 2.484375,0 C 2.09375,0 1.5,-0.25 1.328125,-1.203125 1.21875,-1.796875 1.21875,-2.71875 1.21875,-3.3125 c 0,-0.640625 0,-1.296875 0.078125,-1.828125 0.1875,-1.1875 0.9375,-1.28125 1.1875,-1.28125 0.328125,0 0.984375,0.1875 1.171875,1.171875 0.109375,0.5625 0.109375,1.3125 0.109375,1.9375 0,0.75 0,1.421875 -0.109375,2.0625 C 3.5,-0.296875 2.9375,0 2.484375,0 Z m 0,0"
               id="id-66323f3b-977a-44d8-bad9-d925d92b99ad" />
          </symbol>
          <symbol
             overflow="visible"
             id="id-8bd0fd3c-5caa-4405-a1cf-479b810024e0">
            <path
               style="stroke:none"
               d=""
               id="id-717bc459-3928-4977-bde4-cb664ac102e6" />
          </symbol>
          <symbol
             overflow="visible"
             id="id-fe2f0ca3-0529-4091-a43a-2023993d48e3">
            <path
               style="stroke:none"
               d="m 1.90625,-0.53125 c 0,-0.28125 -0.234375,-0.53125 -0.515625,-0.53125 -0.296875,0 -0.53125,0.25 -0.53125,0.53125 C 0.859375,-0.234375 1.09375,0 1.390625,0 1.671875,0 1.90625,-0.234375 1.90625,-0.53125 Z m 0,0"
               id="id-1944c5a4-b163-4d11-968e-7691fc3a5398" />
          </symbol>
        </g>
      </defs>
      <g
         id="id-40031c30-857d-4f56-a3dd-0af513706795"
         transform="translate(-149.603,-128.124)">
        <g
           style="fill:#000000;fill-opacity:1"
           id="id-da0d05e6-5d55-4bdb-94f2-115a6cc96f75">
          <g
             transform="translate(148.712,134.765)"
             id="g6190">
            <path
               style="stroke:none"
               d="m 2.9375,-6.375 c 0,-0.25 0,-0.265625 -0.234375,-0.265625 C 2.078125,-6 1.203125,-6 0.890625,-6 v 0.3125 c 0.203125,0 0.78125,0 1.296875,-0.265625 v 5.171875 c 0,0.359375 -0.03125,0.46875 -0.921875,0.46875 h -0.3125 V 0 c 0.34375,-0.03125 1.203125,-0.03125 1.609375,-0.03125 0.390625,0 1.265625,0 1.609375,0.03125 v -0.3125 h -0.3125 c -0.90625,0 -0.921875,-0.109375 -0.921875,-0.46875 z m 0,0"
               id="id-dba4357d-64f5-4aac-8feb-31ff4f6c17e6" />
          </g>
        </g>
        <g
           style="fill:#000000;fill-opacity:1"
           id="id-de4a3920-6bfe-46a8-a12a-d35a9f486c06">
          <g
             transform="translate(153.694,134.765)"
             id="g6194">
            <path
               style="stroke:none"
               d="m 1.90625,-0.53125 c 0,-0.28125 -0.234375,-0.53125 -0.515625,-0.53125 -0.296875,0 -0.53125,0.25 -0.53125,0.53125 C 0.859375,-0.234375 1.09375,0 1.390625,0 1.671875,0 1.90625,-0.234375 1.90625,-0.53125 Z m 0,0"
               id="id-e88c44af-cfb4-4422-86eb-7f24c36fde49" />
          </g>
        </g>
        <g
           style="fill:#000000;fill-opacity:1"
           id="id-d683561b-2989-44f7-81cb-d5296438e8a7">
          <g
             transform="translate(156.461,134.765)"
             id="g6198">
            <path
               style="stroke:none"
               d="m 4.578125,-3.1875 c 0,-0.796875 -0.046875,-1.59375 -0.390625,-2.328125 -0.453125,-0.96875 -1.28125,-1.125 -1.6875,-1.125 -0.609375,0 -1.328125,0.265625 -1.75,1.1875 -0.3125,0.6875 -0.359375,1.46875 -0.359375,2.265625 0,0.75 0.03125,1.640625 0.453125,2.40625 0.421875,0.796875 1.15625,1 1.640625,1 0.53125,0 1.296875,-0.203125 1.734375,-1.15625 0.3125,-0.6875 0.359375,-1.46875 0.359375,-2.25 z M 2.484375,0 C 2.09375,0 1.5,-0.25 1.328125,-1.203125 1.21875,-1.796875 1.21875,-2.71875 1.21875,-3.3125 c 0,-0.640625 0,-1.296875 0.078125,-1.828125 0.1875,-1.1875 0.9375,-1.28125 1.1875,-1.28125 0.328125,0 0.984375,0.1875 1.171875,1.171875 0.109375,0.5625 0.109375,1.3125 0.109375,1.9375 0,0.75 0,1.421875 -0.109375,2.0625 C 3.5,-0.296875 2.9375,0 2.484375,0 Z m 0,0"
               id="id-b834bb67-eb51-4d29-b5f7-b55680f2059a" />
          </g>
        </g>
      </g>
    </g>
    <g
       transform="matrix(0.705556,0,0,0.705556,51.293087,17.169021)"
       ns2:version="1.6.0"
       ns2:texconverter="pdflatex"
       ns2:pdfconverter="inkscape"
       ns2:text="\\definecolor{linecolor}{RGB}{0,0,255}\n$\\color{linecolor}{N_2(x)}$"
       ns2:preamble="C:\Users\meyer\Documents\inkscape_TexText_preamble.tex"
       ns2:scale="2.0"
       ns2:alignment="middle center"
       ns2:stroke-to-path="0"
       ns2:jacobian_sqrt="0.705556"
       id="g6616">
      <defs
         id="id-a5dc71b3-5bac-43c0-aa16-2bbf715767b7">
        <g
           id="id-9c13a276-3775-4cc2-973a-a5d493d12212">
          <symbol
             overflow="visible"
             id="id-e5e57ec4-0b8b-4098-8150-ede62a750ec1">
            <path
               style="stroke:none"
               d=""
               id="id-835d5a2f-1af2-4f8c-a89b-e05481e675d5" />
          </symbol>
          <symbol
             overflow="visible"
             id="id-dad857a9-b104-43a0-a01d-6ea9b621b9da">
            <path
               style="stroke:none"
               d="M 7.53125,-5.765625 C 7.640625,-6.15625 7.8125,-6.46875 8.609375,-6.5 c 0.046875,0 0.171875,-0.015625 0.171875,-0.203125 0,0 0,-0.109375 -0.125,-0.109375 -0.328125,0 -0.6875,0.03125 -1.015625,0.03125 -0.328125,0 -0.6875,-0.03125 -1.015625,-0.03125 -0.0625,0 -0.171875,0 -0.171875,0.203125 C 6.453125,-6.5 6.546875,-6.5 6.625,-6.5 c 0.578125,0.015625 0.6875,0.21875 0.6875,0.4375 0,0.03125 -0.03125,0.1875 -0.03125,0.203125 l -1.125,4.4375 L 3.953125,-6.625 C 3.875,-6.796875 3.875,-6.8125 3.640625,-6.8125 h -1.34375 c -0.1875,0 -0.28125,0 -0.28125,0.203125 0,0.109375 0.09375,0.109375 0.28125,0.109375 0.046875,0 0.671875,0 0.671875,0.09375 L 1.640625,-1.0625 c -0.109375,0.40625 -0.28125,0.71875 -1.078125,0.75 -0.0625,0 -0.171875,0.015625 -0.171875,0.203125 0,0.0625 0.046875,0.109375 0.125,0.109375 0.328125,0 0.671875,-0.03125 1,-0.03125 C 1.859375,-0.03125 2.21875,0 2.546875,0 2.59375,0 2.71875,0 2.71875,-0.203125 2.71875,-0.296875 2.625,-0.3125 2.515625,-0.3125 1.9375,-0.328125 1.859375,-0.546875 1.859375,-0.75 c 0,-0.0625 0.015625,-0.125 0.046875,-0.234375 l 1.3125,-5.25 C 3.265625,-6.1875 3.265625,-6.15625 3.3125,-6.0625 l 2.484375,5.875 C 5.859375,-0.015625 5.890625,0 5.984375,0 6.09375,0 6.09375,-0.03125 6.140625,-0.203125 Z m 0,0"
               id="id-8ba2cfd7-0ee4-4b50-97d8-d6ecacf77d7c" />
          </symbol>
          <symbol
             overflow="visible"
             id="id-2f4ab3d5-913a-451f-b4b4-8f25377e3344">
            <path
               style="stroke:none"
               d="M 3.328125,-3.015625 C 3.390625,-3.265625 3.625,-4.1875 4.3125,-4.1875 c 0.046875,0 0.296875,0 0.5,0.125 C 4.53125,-4 4.34375,-3.765625 4.34375,-3.515625 c 0,0.15625 0.109375,0.34375 0.375,0.34375 0.21875,0 0.53125,-0.171875 0.53125,-0.578125 0,-0.515625 -0.578125,-0.65625 -0.921875,-0.65625 -0.578125,0 -0.921875,0.53125 -1.046875,0.75 -0.25,-0.65625 -0.78125,-0.75 -1.078125,-0.75 -1.03125,0 -1.609375,1.28125 -1.609375,1.53125 0,0.109375 0.109375,0.109375 0.125,0.109375 0.078125,0 0.109375,-0.03125 0.125,-0.109375 0.34375,-1.0625 1,-1.3125 1.34375,-1.3125 0.1875,0 0.53125,0.09375 0.53125,0.671875 0,0.3125 -0.171875,0.96875 -0.53125,2.375 -0.15625,0.609375 -0.515625,1.03125 -0.953125,1.03125 -0.0625,0 -0.28125,0 -0.5,-0.125 0.25,-0.0625 0.46875,-0.265625 0.46875,-0.546875 0,-0.265625 -0.21875,-0.34375 -0.359375,-0.34375 -0.3125,0 -0.546875,0.25 -0.546875,0.578125 0,0.453125 0.484375,0.65625 0.921875,0.65625 0.671875,0 1.03125,-0.703125 1.046875,-0.75 0.125,0.359375 0.484375,0.75 1.078125,0.75 1.03125,0 1.59375,-1.28125 1.59375,-1.53125 0,-0.109375 -0.078125,-0.109375 -0.109375,-0.109375 -0.09375,0 -0.109375,0.046875 -0.140625,0.109375 -0.328125,1.078125 -1,1.3125 -1.3125,1.3125 -0.390625,0 -0.546875,-0.3125 -0.546875,-0.65625 0,-0.21875 0.046875,-0.4375 0.15625,-0.875 z m 0,0"
               id="id-f07c1789-4b55-4dc8-aff7-c4db9ffb36a8" />
          </symbol>
          <symbol
             overflow="visible"
             id="id-51493d09-3ba9-4086-8049-0db3b6479f21">
            <path
               style="stroke:none"
               d=""
               id="id-20ed7bb3-fc83-4d23-8b9b-9f740eaf8ffa" />
          </symbol>
          <symbol
             overflow="visible"
             id="id-75dcdaf0-3e8c-4d6e-b2a5-13e2d0b8ce7a">
            <path
               style="stroke:none"
               d="M 3.515625,-1.265625 H 3.28125 c -0.015625,0.15625 -0.09375,0.5625 -0.1875,0.625 C 3.046875,-0.59375 2.515625,-0.59375 2.40625,-0.59375 H 1.125 c 0.734375,-0.640625 0.984375,-0.84375 1.390625,-1.171875 0.515625,-0.40625 1,-0.84375 1,-1.5 0,-0.84375 -0.734375,-1.359375 -1.625,-1.359375 -0.859375,0 -1.453125,0.609375 -1.453125,1.25 0,0.34375 0.296875,0.390625 0.375,0.390625 0.15625,0 0.359375,-0.125 0.359375,-0.375 0,-0.125 -0.046875,-0.375 -0.40625,-0.375 C 0.984375,-4.21875 1.453125,-4.375 1.78125,-4.375 c 0.703125,0 1.0625,0.546875 1.0625,1.109375 0,0.609375 -0.4375,1.078125 -0.65625,1.328125 L 0.515625,-0.265625 C 0.4375,-0.203125 0.4375,-0.1875 0.4375,0 h 2.875 z m 0,0"
               id="id-62a5d10c-1c0f-4c53-8dff-51ed6733195e" />
          </symbol>
          <symbol
             overflow="visible"
             id="id-0396017f-8963-4dd5-8fc9-437ef5bd0f0e">
            <path
               style="stroke:none"
               d=""
               id="id-2fb69388-248b-4a07-84c3-91d18485d202" />
          </symbol>
          <symbol
             overflow="visible"
             id="id-927250c7-8b45-4f67-98b0-8609e47b72d0">
            <path
               style="stroke:none"
               d="m 3.296875,2.390625 c 0,-0.03125 0,-0.046875 -0.171875,-0.21875 C 1.890625,0.921875 1.5625,-0.96875 1.5625,-2.5 c 0,-1.734375 0.375,-3.46875 1.609375,-4.703125 0.125,-0.125 0.125,-0.140625 0.125,-0.171875 0,-0.078125 -0.03125,-0.109375 -0.09375,-0.109375 -0.109375,0 -1,0.6875 -1.59375,1.953125 -0.5,1.09375 -0.625,2.203125 -0.625,3.03125 0,0.78125 0.109375,1.984375 0.65625,3.125 C 2.25,1.84375 3.09375,2.5 3.203125,2.5 c 0.0625,0 0.09375,-0.03125 0.09375,-0.109375 z m 0,0"
               id="id-6fe3c8b2-c3d6-4ee4-8921-af8ac00595c1" />
          </symbol>
          <symbol
             overflow="visible"
             id="id-f029551d-151e-4336-9002-ea5bd86f95c8">
            <path
               style="stroke:none"
               d="m 2.875,-2.5 c 0,-0.765625 -0.109375,-1.96875 -0.65625,-3.109375 -0.59375,-1.21875 -1.453125,-1.875 -1.546875,-1.875 -0.0625,0 -0.109375,0.046875 -0.109375,0.109375 0,0.03125 0,0.046875 0.1875,0.234375 0.984375,0.984375 1.546875,2.5625 1.546875,4.640625 0,1.71875 -0.359375,3.46875 -1.59375,4.71875 C 0.5625,2.34375 0.5625,2.359375 0.5625,2.390625 0.5625,2.453125 0.609375,2.5 0.671875,2.5 0.765625,2.5 1.671875,1.8125 2.25,0.546875 2.765625,-0.546875 2.875,-1.65625 2.875,-2.5 Z m 0,0"
               id="id-c0eb76e0-2c10-45e5-a544-383c94fdca2a" />
          </symbol>
        </g>
      </defs>
      <g
         id="id-dd2048e3-c08d-4a59-baa4-9c523222f525"
         transform="translate(-149.103,-127.281)">
        <g
           style="fill:#0000ff;fill-opacity:1"
           id="id-ba8e476a-3e86-440d-9fe1-a078f9662696">
          <g
             transform="translate(148.712,134.765)"
             id="g7059">
            <path
               style="stroke:none"
               d="M 7.53125,-5.765625 C 7.640625,-6.15625 7.8125,-6.46875 8.609375,-6.5 c 0.046875,0 0.171875,-0.015625 0.171875,-0.203125 0,0 0,-0.109375 -0.125,-0.109375 -0.328125,0 -0.6875,0.03125 -1.015625,0.03125 -0.328125,0 -0.6875,-0.03125 -1.015625,-0.03125 -0.0625,0 -0.171875,0 -0.171875,0.203125 C 6.453125,-6.5 6.546875,-6.5 6.625,-6.5 c 0.578125,0.015625 0.6875,0.21875 0.6875,0.4375 0,0.03125 -0.03125,0.1875 -0.03125,0.203125 l -1.125,4.4375 L 3.953125,-6.625 C 3.875,-6.796875 3.875,-6.8125 3.640625,-6.8125 h -1.34375 c -0.1875,0 -0.28125,0 -0.28125,0.203125 0,0.109375 0.09375,0.109375 0.28125,0.109375 0.046875,0 0.671875,0 0.671875,0.09375 L 1.640625,-1.0625 c -0.109375,0.40625 -0.28125,0.71875 -1.078125,0.75 -0.0625,0 -0.171875,0.015625 -0.171875,0.203125 0,0.0625 0.046875,0.109375 0.125,0.109375 0.328125,0 0.671875,-0.03125 1,-0.03125 C 1.859375,-0.03125 2.21875,0 2.546875,0 2.59375,0 2.71875,0 2.71875,-0.203125 2.71875,-0.296875 2.625,-0.3125 2.515625,-0.3125 1.9375,-0.328125 1.859375,-0.546875 1.859375,-0.75 c 0,-0.0625 0.015625,-0.125 0.046875,-0.234375 l 1.3125,-5.25 C 3.265625,-6.1875 3.265625,-6.15625 3.3125,-6.0625 l 2.484375,5.875 C 5.859375,-0.015625 5.890625,0 5.984375,0 6.09375,0 6.09375,-0.03125 6.140625,-0.203125 Z m 0,0"
               id="id-e8052eff-d0f2-4c23-99f1-96170df1403e" />
          </g>
        </g>
        <g
           style="fill:#0000ff;fill-opacity:1"
           id="id-a04d39ce-1afa-4b2a-bbfb-4057d6553343">
          <g
             transform="translate(156.717,136.259)"
             id="g7063">
            <path
               style="stroke:none"
               d="M 3.515625,-1.265625 H 3.28125 c -0.015625,0.15625 -0.09375,0.5625 -0.1875,0.625 C 3.046875,-0.59375 2.515625,-0.59375 2.40625,-0.59375 H 1.125 c 0.734375,-0.640625 0.984375,-0.84375 1.390625,-1.171875 0.515625,-0.40625 1,-0.84375 1,-1.5 0,-0.84375 -0.734375,-1.359375 -1.625,-1.359375 -0.859375,0 -1.453125,0.609375 -1.453125,1.25 0,0.34375 0.296875,0.390625 0.375,0.390625 0.15625,0 0.359375,-0.125 0.359375,-0.375 0,-0.125 -0.046875,-0.375 -0.40625,-0.375 C 0.984375,-4.21875 1.453125,-4.375 1.78125,-4.375 c 0.703125,0 1.0625,0.546875 1.0625,1.109375 0,0.609375 -0.4375,1.078125 -0.65625,1.328125 L 0.515625,-0.265625 C 0.4375,-0.203125 0.4375,-0.1875 0.4375,0 h 2.875 z m 0,0"
               id="id-265f9f3f-5678-4db2-80c1-0ec8b04f4419" />
          </g>
        </g>
        <g
           style="fill:#0000ff;fill-opacity:1"
           id="id-94f416de-e4fb-44c3-9137-bd0352deb3f8">
          <g
             transform="translate(161.186,134.765)"
             id="g7067">
            <path
               style="stroke:none"
               d="m 3.296875,2.390625 c 0,-0.03125 0,-0.046875 -0.171875,-0.21875 C 1.890625,0.921875 1.5625,-0.96875 1.5625,-2.5 c 0,-1.734375 0.375,-3.46875 1.609375,-4.703125 0.125,-0.125 0.125,-0.140625 0.125,-0.171875 0,-0.078125 -0.03125,-0.109375 -0.09375,-0.109375 -0.109375,0 -1,0.6875 -1.59375,1.953125 -0.5,1.09375 -0.625,2.203125 -0.625,3.03125 0,0.78125 0.109375,1.984375 0.65625,3.125 C 2.25,1.84375 3.09375,2.5 3.203125,2.5 c 0.0625,0 0.09375,-0.03125 0.09375,-0.109375 z m 0,0"
               id="id-ca06194d-4317-4351-ad8d-d505c0d656c4" />
          </g>
        </g>
        <g
           style="fill:#0000ff;fill-opacity:1"
           id="id-bd889c0d-d61c-4500-93de-cf8a89a9b4ad">
          <g
             transform="translate(165.061,134.765)"
             id="g7071">
            <path
               style="stroke:none"
               d="M 3.328125,-3.015625 C 3.390625,-3.265625 3.625,-4.1875 4.3125,-4.1875 c 0.046875,0 0.296875,0 0.5,0.125 C 4.53125,-4 4.34375,-3.765625 4.34375,-3.515625 c 0,0.15625 0.109375,0.34375 0.375,0.34375 0.21875,0 0.53125,-0.171875 0.53125,-0.578125 0,-0.515625 -0.578125,-0.65625 -0.921875,-0.65625 -0.578125,0 -0.921875,0.53125 -1.046875,0.75 -0.25,-0.65625 -0.78125,-0.75 -1.078125,-0.75 -1.03125,0 -1.609375,1.28125 -1.609375,1.53125 0,0.109375 0.109375,0.109375 0.125,0.109375 0.078125,0 0.109375,-0.03125 0.125,-0.109375 0.34375,-1.0625 1,-1.3125 1.34375,-1.3125 0.1875,0 0.53125,0.09375 0.53125,0.671875 0,0.3125 -0.171875,0.96875 -0.53125,2.375 -0.15625,0.609375 -0.515625,1.03125 -0.953125,1.03125 -0.0625,0 -0.28125,0 -0.5,-0.125 0.25,-0.0625 0.46875,-0.265625 0.46875,-0.546875 0,-0.265625 -0.21875,-0.34375 -0.359375,-0.34375 -0.3125,0 -0.546875,0.25 -0.546875,0.578125 0,0.453125 0.484375,0.65625 0.921875,0.65625 0.671875,0 1.03125,-0.703125 1.046875,-0.75 0.125,0.359375 0.484375,0.75 1.078125,0.75 1.03125,0 1.59375,-1.28125 1.59375,-1.53125 0,-0.109375 -0.078125,-0.109375 -0.109375,-0.109375 -0.09375,0 -0.109375,0.046875 -0.140625,0.109375 -0.328125,1.078125 -1,1.3125 -1.3125,1.3125 -0.390625,0 -0.546875,-0.3125 -0.546875,-0.65625 0,-0.21875 0.046875,-0.4375 0.15625,-0.875 z m 0,0"
               id="id-239a16fa-f46d-4650-8fc8-a2d47b28ba29" />
          </g>
        </g>
        <g
           style="fill:#0000ff;fill-opacity:1"
           id="id-3a3824eb-6186-4f62-ab9d-b1b3558335b0">
          <g
             transform="translate(170.755,134.765)"
             id="g7075">
            <path
               style="stroke:none"
               d="m 2.875,-2.5 c 0,-0.765625 -0.109375,-1.96875 -0.65625,-3.109375 -0.59375,-1.21875 -1.453125,-1.875 -1.546875,-1.875 -0.0625,0 -0.109375,0.046875 -0.109375,0.109375 0,0.03125 0,0.046875 0.1875,0.234375 0.984375,0.984375 1.546875,2.5625 1.546875,4.640625 0,1.71875 -0.359375,3.46875 -1.59375,4.71875 C 0.5625,2.34375 0.5625,2.359375 0.5625,2.390625 0.5625,2.453125 0.609375,2.5 0.671875,2.5 0.765625,2.5 1.671875,1.8125 2.25,0.546875 2.765625,-0.546875 2.875,-1.65625 2.875,-2.5 Z m 0,0"
               id="id-28026c8f-6380-45d0-90de-ab55b5a45473" />
          </g>
        </g>
      </g>
    </g>
    <g
       transform="matrix(0.705556,0,0,0.705556,30.714558,17.169021)"
       ns2:version="1.6.0"
       ns2:texconverter="pdflatex"
       ns2:pdfconverter="inkscape"
       ns2:text="\\definecolor{linecolor}{RGB}{255,0,0}\n$\\color{linecolor}{N_1(x)}$"
       ns2:preamble="C:\Users\meyer\Documents\inkscape_TexText_preamble.tex"
       ns2:scale="2.0"
       ns2:alignment="middle center"
       ns2:stroke-to-path="0"
       ns2:jacobian_sqrt="0.705556"
       id="g6280">
      <defs
         id="id-ad520ebc-18f1-40e2-9d3f-54dc0f7bf966">
        <g
           id="id-b3f58d6d-b5fb-4ead-9ae9-6b99e250ea59">
          <symbol
             overflow="visible"
             id="id-ca7244d8-e9b9-4d26-92dd-94adfc3e6300">
            <path
               style="stroke:none"
               d=""
               id="id-973e60b5-e70b-4773-a5f2-8ed62c146066" />
          </symbol>
          <symbol
             overflow="visible"
             id="id-7c1cf926-2cd7-4710-aba4-8151ef0852a2">
            <path
               style="stroke:none"
               d="M 7.53125,-5.765625 C 7.640625,-6.15625 7.8125,-6.46875 8.609375,-6.5 c 0.046875,0 0.171875,-0.015625 0.171875,-0.203125 0,0 0,-0.109375 -0.125,-0.109375 -0.328125,0 -0.6875,0.03125 -1.015625,0.03125 -0.328125,0 -0.6875,-0.03125 -1.015625,-0.03125 -0.0625,0 -0.171875,0 -0.171875,0.203125 C 6.453125,-6.5 6.546875,-6.5 6.625,-6.5 c 0.578125,0.015625 0.6875,0.21875 0.6875,0.4375 0,0.03125 -0.03125,0.1875 -0.03125,0.203125 l -1.125,4.4375 L 3.953125,-6.625 C 3.875,-6.796875 3.875,-6.8125 3.640625,-6.8125 h -1.34375 c -0.1875,0 -0.28125,0 -0.28125,0.203125 0,0.109375 0.09375,0.109375 0.28125,0.109375 0.046875,0 0.671875,0 0.671875,0.09375 L 1.640625,-1.0625 c -0.109375,0.40625 -0.28125,0.71875 -1.078125,0.75 -0.0625,0 -0.171875,0.015625 -0.171875,0.203125 0,0.0625 0.046875,0.109375 0.125,0.109375 0.328125,0 0.671875,-0.03125 1,-0.03125 C 1.859375,-0.03125 2.21875,0 2.546875,0 2.59375,0 2.71875,0 2.71875,-0.203125 2.71875,-0.296875 2.625,-0.3125 2.515625,-0.3125 1.9375,-0.328125 1.859375,-0.546875 1.859375,-0.75 c 0,-0.0625 0.015625,-0.125 0.046875,-0.234375 l 1.3125,-5.25 C 3.265625,-6.1875 3.265625,-6.15625 3.3125,-6.0625 l 2.484375,5.875 C 5.859375,-0.015625 5.890625,0 5.984375,0 6.09375,0 6.09375,-0.03125 6.140625,-0.203125 Z m 0,0"
               id="id-a8c3a273-ef74-4f45-9c39-1344b71d0256" />
          </symbol>
          <symbol
             overflow="visible"
             id="id-f9c700eb-38a8-4263-98ba-23e6c4f233d3">
            <path
               style="stroke:none"
               d="M 3.328125,-3.015625 C 3.390625,-3.265625 3.625,-4.1875 4.3125,-4.1875 c 0.046875,0 0.296875,0 0.5,0.125 C 4.53125,-4 4.34375,-3.765625 4.34375,-3.515625 c 0,0.15625 0.109375,0.34375 0.375,0.34375 0.21875,0 0.53125,-0.171875 0.53125,-0.578125 0,-0.515625 -0.578125,-0.65625 -0.921875,-0.65625 -0.578125,0 -0.921875,0.53125 -1.046875,0.75 -0.25,-0.65625 -0.78125,-0.75 -1.078125,-0.75 -1.03125,0 -1.609375,1.28125 -1.609375,1.53125 0,0.109375 0.109375,0.109375 0.125,0.109375 0.078125,0 0.109375,-0.03125 0.125,-0.109375 0.34375,-1.0625 1,-1.3125 1.34375,-1.3125 0.1875,0 0.53125,0.09375 0.53125,0.671875 0,0.3125 -0.171875,0.96875 -0.53125,2.375 -0.15625,0.609375 -0.515625,1.03125 -0.953125,1.03125 -0.0625,0 -0.28125,0 -0.5,-0.125 0.25,-0.0625 0.46875,-0.265625 0.46875,-0.546875 0,-0.265625 -0.21875,-0.34375 -0.359375,-0.34375 -0.3125,0 -0.546875,0.25 -0.546875,0.578125 0,0.453125 0.484375,0.65625 0.921875,0.65625 0.671875,0 1.03125,-0.703125 1.046875,-0.75 0.125,0.359375 0.484375,0.75 1.078125,0.75 1.03125,0 1.59375,-1.28125 1.59375,-1.53125 0,-0.109375 -0.078125,-0.109375 -0.109375,-0.109375 -0.09375,0 -0.109375,0.046875 -0.140625,0.109375 -0.328125,1.078125 -1,1.3125 -1.3125,1.3125 -0.390625,0 -0.546875,-0.3125 -0.546875,-0.65625 0,-0.21875 0.046875,-0.4375 0.15625,-0.875 z m 0,0"
               id="id-7d7f9cb5-d07c-4e74-b1d8-66a755fb827a" />
          </symbol>
          <symbol
             overflow="visible"
             id="id-b57bb167-671b-4838-93b9-b133fd2dd08d">
            <path
               style="stroke:none"
               d=""
               id="id-27fa196c-f4f2-4d3b-8dec-48a4a8a0b769" />
          </symbol>
          <symbol
             overflow="visible"
             id="id-45bca1a4-5ae4-4394-8bc0-2462f06c7455">
            <path
               style="stroke:none"
               d="m 2.328125,-4.4375 c 0,-0.1875 0,-0.1875 -0.203125,-0.1875 -0.453125,0.4375 -1.078125,0.4375 -1.359375,0.4375 v 0.25 c 0.15625,0 0.625,0 1,-0.1875 v 3.546875 c 0,0.234375 0,0.328125 -0.6875,0.328125 H 0.8125 V 0 c 0.125,0 0.984375,-0.03125 1.234375,-0.03125 0.21875,0 1.09375,0.03125 1.25,0.03125 V -0.25 H 3.03125 c -0.703125,0 -0.703125,-0.09375 -0.703125,-0.328125 z m 0,0"
               id="id-8731afa3-8fdd-4918-8dff-73effeb05868" />
          </symbol>
          <symbol
             overflow="visible"
             id="id-57a93496-1eb9-4c5e-b41d-a1fad0cd4d4f">
            <path
               style="stroke:none"
               d=""
               id="id-fde96fe9-ced7-4d8d-ab48-a612188c38bb" />
          </symbol>
          <symbol
             overflow="visible"
             id="id-96b742cf-1fb1-4374-8435-519a15c0c842">
            <path
               style="stroke:none"
               d="m 3.296875,2.390625 c 0,-0.03125 0,-0.046875 -0.171875,-0.21875 C 1.890625,0.921875 1.5625,-0.96875 1.5625,-2.5 c 0,-1.734375 0.375,-3.46875 1.609375,-4.703125 0.125,-0.125 0.125,-0.140625 0.125,-0.171875 0,-0.078125 -0.03125,-0.109375 -0.09375,-0.109375 -0.109375,0 -1,0.6875 -1.59375,1.953125 -0.5,1.09375 -0.625,2.203125 -0.625,3.03125 0,0.78125 0.109375,1.984375 0.65625,3.125 C 2.25,1.84375 3.09375,2.5 3.203125,2.5 c 0.0625,0 0.09375,-0.03125 0.09375,-0.109375 z m 0,0"
               id="id-34cdd6f1-dbf6-4b78-8c4a-42d05869afb3" />
          </symbol>
          <symbol
             overflow="visible"
             id="id-f5bfb25e-a32f-4032-b99e-bba02d5a7649">
            <path
               style="stroke:none"
               d="m 2.875,-2.5 c 0,-0.765625 -0.109375,-1.96875 -0.65625,-3.109375 -0.59375,-1.21875 -1.453125,-1.875 -1.546875,-1.875 -0.0625,0 -0.109375,0.046875 -0.109375,0.109375 0,0.03125 0,0.046875 0.1875,0.234375 0.984375,0.984375 1.546875,2.5625 1.546875,4.640625 0,1.71875 -0.359375,3.46875 -1.59375,4.71875 C 0.5625,2.34375 0.5625,2.359375 0.5625,2.390625 0.5625,2.453125 0.609375,2.5 0.671875,2.5 0.765625,2.5 1.671875,1.8125 2.25,0.546875 2.765625,-0.546875 2.875,-1.65625 2.875,-2.5 Z m 0,0"
               id="id-4bdddf9b-acae-466f-9940-97acc6cfc0cf" />
          </symbol>
        </g>
      </defs>
      <g
         id="id-0b39b77c-eb48-453f-8ffc-edf16cee5ab3"
         transform="translate(-149.103,-127.281)">
        <g
           style="fill:#ff0000;fill-opacity:1"
           id="id-f4018b7c-a8ce-4cbd-9be9-940f1e5caf8f">
          <g
             transform="translate(148.712,134.765)"
             id="g8034">
            <path
               style="stroke:none"
               d="M 7.53125,-5.765625 C 7.640625,-6.15625 7.8125,-6.46875 8.609375,-6.5 c 0.046875,0 0.171875,-0.015625 0.171875,-0.203125 0,0 0,-0.109375 -0.125,-0.109375 -0.328125,0 -0.6875,0.03125 -1.015625,0.03125 -0.328125,0 -0.6875,-0.03125 -1.015625,-0.03125 -0.0625,0 -0.171875,0 -0.171875,0.203125 C 6.453125,-6.5 6.546875,-6.5 6.625,-6.5 c 0.578125,0.015625 0.6875,0.21875 0.6875,0.4375 0,0.03125 -0.03125,0.1875 -0.03125,0.203125 l -1.125,4.4375 L 3.953125,-6.625 C 3.875,-6.796875 3.875,-6.8125 3.640625,-6.8125 h -1.34375 c -0.1875,0 -0.28125,0 -0.28125,0.203125 0,0.109375 0.09375,0.109375 0.28125,0.109375 0.046875,0 0.671875,0 0.671875,0.09375 L 1.640625,-1.0625 c -0.109375,0.40625 -0.28125,0.71875 -1.078125,0.75 -0.0625,0 -0.171875,0.015625 -0.171875,0.203125 0,0.0625 0.046875,0.109375 0.125,0.109375 0.328125,0 0.671875,-0.03125 1,-0.03125 C 1.859375,-0.03125 2.21875,0 2.546875,0 2.59375,0 2.71875,0 2.71875,-0.203125 2.71875,-0.296875 2.625,-0.3125 2.515625,-0.3125 1.9375,-0.328125 1.859375,-0.546875 1.859375,-0.75 c 0,-0.0625 0.015625,-0.125 0.046875,-0.234375 l 1.3125,-5.25 C 3.265625,-6.1875 3.265625,-6.15625 3.3125,-6.0625 l 2.484375,5.875 C 5.859375,-0.015625 5.890625,0 5.984375,0 6.09375,0 6.09375,-0.03125 6.140625,-0.203125 Z m 0,0"
               id="id-7110dc1d-affd-46ee-af44-ab73e0855a1d" />
          </g>
        </g>
        <g
           style="fill:#ff0000;fill-opacity:1"
           id="id-ac9d51cd-e1cd-4cab-b41e-9f222bd4fb7f">
          <g
             transform="translate(156.717,136.259)"
             id="g8038">
            <path
               style="stroke:none"
               d="m 2.328125,-4.4375 c 0,-0.1875 0,-0.1875 -0.203125,-0.1875 -0.453125,0.4375 -1.078125,0.4375 -1.359375,0.4375 v 0.25 c 0.15625,0 0.625,0 1,-0.1875 v 3.546875 c 0,0.234375 0,0.328125 -0.6875,0.328125 H 0.8125 V 0 c 0.125,0 0.984375,-0.03125 1.234375,-0.03125 0.21875,0 1.09375,0.03125 1.25,0.03125 V -0.25 H 3.03125 c -0.703125,0 -0.703125,-0.09375 -0.703125,-0.328125 z m 0,0"
               id="id-5c2cb9c9-8bbe-4253-9a22-6a3400424f7c" />
          </g>
        </g>
        <g
           style="fill:#ff0000;fill-opacity:1"
           id="id-e2073f3f-cbd9-406f-bd1c-a61588f9882a">
          <g
             transform="translate(161.186,134.765)"
             id="g8042">
            <path
               style="stroke:none"
               d="m 3.296875,2.390625 c 0,-0.03125 0,-0.046875 -0.171875,-0.21875 C 1.890625,0.921875 1.5625,-0.96875 1.5625,-2.5 c 0,-1.734375 0.375,-3.46875 1.609375,-4.703125 0.125,-0.125 0.125,-0.140625 0.125,-0.171875 0,-0.078125 -0.03125,-0.109375 -0.09375,-0.109375 -0.109375,0 -1,0.6875 -1.59375,1.953125 -0.5,1.09375 -0.625,2.203125 -0.625,3.03125 0,0.78125 0.109375,1.984375 0.65625,3.125 C 2.25,1.84375 3.09375,2.5 3.203125,2.5 c 0.0625,0 0.09375,-0.03125 0.09375,-0.109375 z m 0,0"
               id="id-560eb27a-f449-4ad4-9b3e-f27bda9be9cb" />
          </g>
        </g>
        <g
           style="fill:#ff0000;fill-opacity:1"
           id="id-f7c1ba0a-de82-47ef-992b-4dca22fbc42e">
          <g
             transform="translate(165.061,134.765)"
             id="g8046">
            <path
               style="stroke:none"
               d="M 3.328125,-3.015625 C 3.390625,-3.265625 3.625,-4.1875 4.3125,-4.1875 c 0.046875,0 0.296875,0 0.5,0.125 C 4.53125,-4 4.34375,-3.765625 4.34375,-3.515625 c 0,0.15625 0.109375,0.34375 0.375,0.34375 0.21875,0 0.53125,-0.171875 0.53125,-0.578125 0,-0.515625 -0.578125,-0.65625 -0.921875,-0.65625 -0.578125,0 -0.921875,0.53125 -1.046875,0.75 -0.25,-0.65625 -0.78125,-0.75 -1.078125,-0.75 -1.03125,0 -1.609375,1.28125 -1.609375,1.53125 0,0.109375 0.109375,0.109375 0.125,0.109375 0.078125,0 0.109375,-0.03125 0.125,-0.109375 0.34375,-1.0625 1,-1.3125 1.34375,-1.3125 0.1875,0 0.53125,0.09375 0.53125,0.671875 0,0.3125 -0.171875,0.96875 -0.53125,2.375 -0.15625,0.609375 -0.515625,1.03125 -0.953125,1.03125 -0.0625,0 -0.28125,0 -0.5,-0.125 0.25,-0.0625 0.46875,-0.265625 0.46875,-0.546875 0,-0.265625 -0.21875,-0.34375 -0.359375,-0.34375 -0.3125,0 -0.546875,0.25 -0.546875,0.578125 0,0.453125 0.484375,0.65625 0.921875,0.65625 0.671875,0 1.03125,-0.703125 1.046875,-0.75 0.125,0.359375 0.484375,0.75 1.078125,0.75 1.03125,0 1.59375,-1.28125 1.59375,-1.53125 0,-0.109375 -0.078125,-0.109375 -0.109375,-0.109375 -0.09375,0 -0.109375,0.046875 -0.140625,0.109375 -0.328125,1.078125 -1,1.3125 -1.3125,1.3125 -0.390625,0 -0.546875,-0.3125 -0.546875,-0.65625 0,-0.21875 0.046875,-0.4375 0.15625,-0.875 z m 0,0"
               id="id-d7e3e28c-e328-4ffd-83e0-ab1b43c0d55a" />
          </g>
        </g>
        <g
           style="fill:#ff0000;fill-opacity:1"
           id="id-98d0d562-1e48-4912-9b3d-ae92b9019577">
          <g
             transform="translate(170.755,134.765)"
             id="g8050">
            <path
               style="stroke:none"
               d="m 2.875,-2.5 c 0,-0.765625 -0.109375,-1.96875 -0.65625,-3.109375 -0.59375,-1.21875 -1.453125,-1.875 -1.546875,-1.875 -0.0625,0 -0.109375,0.046875 -0.109375,0.109375 0,0.03125 0,0.046875 0.1875,0.234375 0.984375,0.984375 1.546875,2.5625 1.546875,4.640625 0,1.71875 -0.359375,3.46875 -1.59375,4.71875 C 0.5625,2.34375 0.5625,2.359375 0.5625,2.390625 0.5625,2.453125 0.609375,2.5 0.671875,2.5 0.765625,2.5 1.671875,1.8125 2.25,0.546875 2.765625,-0.546875 2.875,-1.65625 2.875,-2.5 Z m 0,0"
               id="id-67856fa8-a89a-4091-9c58-63b7194e1cd5" />
          </g>
        </g>
      </g>
    </g>
    <g
       transform="matrix(0.705556,0,0,0.705556,71.871614,17.169021)"
       ns2:version="1.6.0"
       ns2:texconverter="pdflatex"
       ns2:pdfconverter="inkscape"
       ns2:text="$N_3(x)$"
       ns2:preamble="C:\Users\meyer\Documents\inkscape_TexText_preamble.tex"
       ns2:scale="2.0"
       ns2:alignment="middle center"
       ns2:stroke-to-path="0"
       ns2:jacobian_sqrt="0.705556"
       id="g6652">
      <defs
         id="id-d08e128c-bc94-4d2d-b576-74e9dcff7e44">
        <g
           id="id-1d75677a-2d95-485c-8228-e0399f06be1e">
          <symbol
             overflow="visible"
             id="id-0af58d8f-4e37-4119-92b4-9268db8458ac">
            <path
               style="stroke:none"
               d=""
               id="id-798083f8-c0c2-44c0-8c48-a39acd7bf875" />
          </symbol>
          <symbol
             overflow="visible"
             id="id-58d6b31d-a801-4bbc-81c0-fbc30ef21605">
            <path
               style="stroke:none"
               d="M 7.53125,-5.765625 C 7.640625,-6.15625 7.8125,-6.46875 8.609375,-6.5 c 0.046875,0 0.171875,-0.015625 0.171875,-0.203125 0,0 0,-0.109375 -0.125,-0.109375 -0.328125,0 -0.6875,0.03125 -1.015625,0.03125 -0.328125,0 -0.6875,-0.03125 -1.015625,-0.03125 -0.0625,0 -0.171875,0 -0.171875,0.203125 C 6.453125,-6.5 6.546875,-6.5 6.625,-6.5 c 0.578125,0.015625 0.6875,0.21875 0.6875,0.4375 0,0.03125 -0.03125,0.1875 -0.03125,0.203125 l -1.125,4.4375 L 3.953125,-6.625 C 3.875,-6.796875 3.875,-6.8125 3.640625,-6.8125 h -1.34375 c -0.1875,0 -0.28125,0 -0.28125,0.203125 0,0.109375 0.09375,0.109375 0.28125,0.109375 0.046875,0 0.671875,0 0.671875,0.09375 L 1.640625,-1.0625 c -0.109375,0.40625 -0.28125,0.71875 -1.078125,0.75 -0.0625,0 -0.171875,0.015625 -0.171875,0.203125 0,0.0625 0.046875,0.109375 0.125,0.109375 0.328125,0 0.671875,-0.03125 1,-0.03125 C 1.859375,-0.03125 2.21875,0 2.546875,0 2.59375,0 2.71875,0 2.71875,-0.203125 2.71875,-0.296875 2.625,-0.3125 2.515625,-0.3125 1.9375,-0.328125 1.859375,-0.546875 1.859375,-0.75 c 0,-0.0625 0.015625,-0.125 0.046875,-0.234375 l 1.3125,-5.25 C 3.265625,-6.1875 3.265625,-6.15625 3.3125,-6.0625 l 2.484375,5.875 C 5.859375,-0.015625 5.890625,0 5.984375,0 6.09375,0 6.09375,-0.03125 6.140625,-0.203125 Z m 0,0"
               id="id-54d35fe9-6cbd-40a4-888c-f4d6f270b54b" />
          </symbol>
          <symbol
             overflow="visible"
             id="id-70c5fd0e-ecc7-4496-b474-839244d3cc91">
            <path
               style="stroke:none"
               d="M 3.328125,-3.015625 C 3.390625,-3.265625 3.625,-4.1875 4.3125,-4.1875 c 0.046875,0 0.296875,0 0.5,0.125 C 4.53125,-4 4.34375,-3.765625 4.34375,-3.515625 c 0,0.15625 0.109375,0.34375 0.375,0.34375 0.21875,0 0.53125,-0.171875 0.53125,-0.578125 0,-0.515625 -0.578125,-0.65625 -0.921875,-0.65625 -0.578125,0 -0.921875,0.53125 -1.046875,0.75 -0.25,-0.65625 -0.78125,-0.75 -1.078125,-0.75 -1.03125,0 -1.609375,1.28125 -1.609375,1.53125 0,0.109375 0.109375,0.109375 0.125,0.109375 0.078125,0 0.109375,-0.03125 0.125,-0.109375 0.34375,-1.0625 1,-1.3125 1.34375,-1.3125 0.1875,0 0.53125,0.09375 0.53125,0.671875 0,0.3125 -0.171875,0.96875 -0.53125,2.375 -0.15625,0.609375 -0.515625,1.03125 -0.953125,1.03125 -0.0625,0 -0.28125,0 -0.5,-0.125 0.25,-0.0625 0.46875,-0.265625 0.46875,-0.546875 0,-0.265625 -0.21875,-0.34375 -0.359375,-0.34375 -0.3125,0 -0.546875,0.25 -0.546875,0.578125 0,0.453125 0.484375,0.65625 0.921875,0.65625 0.671875,0 1.03125,-0.703125 1.046875,-0.75 0.125,0.359375 0.484375,0.75 1.078125,0.75 1.03125,0 1.59375,-1.28125 1.59375,-1.53125 0,-0.109375 -0.078125,-0.109375 -0.109375,-0.109375 -0.09375,0 -0.109375,0.046875 -0.140625,0.109375 -0.328125,1.078125 -1,1.3125 -1.3125,1.3125 -0.390625,0 -0.546875,-0.3125 -0.546875,-0.65625 0,-0.21875 0.046875,-0.4375 0.15625,-0.875 z m 0,0"
               id="id-85ef7f33-331e-4c7a-827d-bfdde59c76c9" />
          </symbol>
          <symbol
             overflow="visible"
             id="id-a5f084f8-965d-4cc8-8230-97c55a95686b">
            <path
               style="stroke:none"
               d=""
               id="id-c421c779-6f08-4f46-9304-553ada10a7ee" />
          </symbol>
          <symbol
             overflow="visible"
             id="id-b86632a6-29f9-4f48-98c5-a33261d9e3fa">
            <path
               style="stroke:none"
               d="m 1.90625,-2.328125 c 0.546875,0 0.9375,0.375 0.9375,1.125 0,0.859375 -0.515625,1.125 -0.90625,1.125 -0.28125,0 -0.90625,-0.078125 -1.1875,-0.5 0.328125,0 0.40625,-0.234375 0.40625,-0.390625 0,-0.21875 -0.171875,-0.375 -0.390625,-0.375 -0.1875,0 -0.390625,0.125 -0.390625,0.40625 0,0.65625 0.71875,1.078125 1.5625,1.078125 0.96875,0 1.640625,-0.65625 1.640625,-1.34375 0,-0.546875 -0.4375,-1.09375 -1.203125,-1.25 0.71875,-0.265625 0.984375,-0.78125 0.984375,-1.21875 0,-0.546875 -0.625,-0.953125 -1.40625,-0.953125 -0.765625,0 -1.359375,0.375 -1.359375,0.9375 0,0.234375 0.15625,0.359375 0.359375,0.359375 0.21875,0 0.359375,-0.15625 0.359375,-0.34375 0,-0.203125 -0.140625,-0.359375 -0.359375,-0.375 0.25,-0.296875 0.71875,-0.375 0.984375,-0.375 0.3125,0 0.75,0.15625 0.75,0.75 0,0.296875 -0.09375,0.625 -0.28125,0.828125 -0.21875,0.265625 -0.421875,0.28125 -0.765625,0.3125 -0.171875,0.015625 -0.1875,0.015625 -0.21875,0.015625 -0.015625,0 -0.078125,0.015625 -0.078125,0.09375 0,0.09375 0.0625,0.09375 0.1875,0.09375 z m 0,0"
               id="id-778dc3f1-39ec-4bdd-bc64-9efcd11a049f" />
          </symbol>
          <symbol
             overflow="visible"
             id="id-d8617fcb-0acb-403e-8bbd-091c020e3b26">
            <path
               style="stroke:none"
               d=""
               id="id-74c9a742-9952-4a3c-9b99-bacccdffc06b" />
          </symbol>
          <symbol
             overflow="visible"
             id="id-877151ee-e359-49de-b7ea-63c620a071f5">
            <path
               style="stroke:none"
               d="m 3.296875,2.390625 c 0,-0.03125 0,-0.046875 -0.171875,-0.21875 C 1.890625,0.921875 1.5625,-0.96875 1.5625,-2.5 c 0,-1.734375 0.375,-3.46875 1.609375,-4.703125 0.125,-0.125 0.125,-0.140625 0.125,-0.171875 0,-0.078125 -0.03125,-0.109375 -0.09375,-0.109375 -0.109375,0 -1,0.6875 -1.59375,1.953125 -0.5,1.09375 -0.625,2.203125 -0.625,3.03125 0,0.78125 0.109375,1.984375 0.65625,3.125 C 2.25,1.84375 3.09375,2.5 3.203125,2.5 c 0.0625,0 0.09375,-0.03125 0.09375,-0.109375 z m 0,0"
               id="id-9544babe-74ee-4cf2-8dc7-b7b1d2d5a54b" />
          </symbol>
          <symbol
             overflow="visible"
             id="id-f9b8b332-f63b-4843-bd0c-007d3aace551">
            <path
               style="stroke:none"
               d="m 2.875,-2.5 c 0,-0.765625 -0.109375,-1.96875 -0.65625,-3.109375 -0.59375,-1.21875 -1.453125,-1.875 -1.546875,-1.875 -0.0625,0 -0.109375,0.046875 -0.109375,0.109375 0,0.03125 0,0.046875 0.1875,0.234375 0.984375,0.984375 1.546875,2.5625 1.546875,4.640625 0,1.71875 -0.359375,3.46875 -1.59375,4.71875 C 0.5625,2.34375 0.5625,2.359375 0.5625,2.390625 0.5625,2.453125 0.609375,2.5 0.671875,2.5 0.765625,2.5 1.671875,1.8125 2.25,0.546875 2.765625,-0.546875 2.875,-1.65625 2.875,-2.5 Z m 0,0"
               id="id-b8c6439f-7c4e-4e00-affa-bc62cab76e5c" />
          </symbol>
        </g>
      </defs>
      <g
         id="id-f574aad3-cdc4-4072-9495-521531bebd08"
         transform="translate(-149.103,-127.281)">
        <g
           style="fill:#000000;fill-opacity:1"
           id="id-7c479f8f-b3bd-40eb-bcc8-68c052d4f598">
          <g
             transform="translate(148.712,134.765)"
             id="g8547">
            <path
               style="stroke:none"
               d="M 7.53125,-5.765625 C 7.640625,-6.15625 7.8125,-6.46875 8.609375,-6.5 c 0.046875,0 0.171875,-0.015625 0.171875,-0.203125 0,0 0,-0.109375 -0.125,-0.109375 -0.328125,0 -0.6875,0.03125 -1.015625,0.03125 -0.328125,0 -0.6875,-0.03125 -1.015625,-0.03125 -0.0625,0 -0.171875,0 -0.171875,0.203125 C 6.453125,-6.5 6.546875,-6.5 6.625,-6.5 c 0.578125,0.015625 0.6875,0.21875 0.6875,0.4375 0,0.03125 -0.03125,0.1875 -0.03125,0.203125 l -1.125,4.4375 L 3.953125,-6.625 C 3.875,-6.796875 3.875,-6.8125 3.640625,-6.8125 h -1.34375 c -0.1875,0 -0.28125,0 -0.28125,0.203125 0,0.109375 0.09375,0.109375 0.28125,0.109375 0.046875,0 0.671875,0 0.671875,0.09375 L 1.640625,-1.0625 c -0.109375,0.40625 -0.28125,0.71875 -1.078125,0.75 -0.0625,0 -0.171875,0.015625 -0.171875,0.203125 0,0.0625 0.046875,0.109375 0.125,0.109375 0.328125,0 0.671875,-0.03125 1,-0.03125 C 1.859375,-0.03125 2.21875,0 2.546875,0 2.59375,0 2.71875,0 2.71875,-0.203125 2.71875,-0.296875 2.625,-0.3125 2.515625,-0.3125 1.9375,-0.328125 1.859375,-0.546875 1.859375,-0.75 c 0,-0.0625 0.015625,-0.125 0.046875,-0.234375 l 1.3125,-5.25 C 3.265625,-6.1875 3.265625,-6.15625 3.3125,-6.0625 l 2.484375,5.875 C 5.859375,-0.015625 5.890625,0 5.984375,0 6.09375,0 6.09375,-0.03125 6.140625,-0.203125 Z m 0,0"
               id="id-8c893869-f2f4-4f42-85c9-65b9aa103c74" />
          </g>
        </g>
        <g
           style="fill:#000000;fill-opacity:1"
           id="id-b0551569-f25e-49c3-a7b5-0fd6ebbce73e">
          <g
             transform="translate(156.717,136.259)"
             id="g8551">
            <path
               style="stroke:none"
               d="m 1.90625,-2.328125 c 0.546875,0 0.9375,0.375 0.9375,1.125 0,0.859375 -0.515625,1.125 -0.90625,1.125 -0.28125,0 -0.90625,-0.078125 -1.1875,-0.5 0.328125,0 0.40625,-0.234375 0.40625,-0.390625 0,-0.21875 -0.171875,-0.375 -0.390625,-0.375 -0.1875,0 -0.390625,0.125 -0.390625,0.40625 0,0.65625 0.71875,1.078125 1.5625,1.078125 0.96875,0 1.640625,-0.65625 1.640625,-1.34375 0,-0.546875 -0.4375,-1.09375 -1.203125,-1.25 0.71875,-0.265625 0.984375,-0.78125 0.984375,-1.21875 0,-0.546875 -0.625,-0.953125 -1.40625,-0.953125 -0.765625,0 -1.359375,0.375 -1.359375,0.9375 0,0.234375 0.15625,0.359375 0.359375,0.359375 0.21875,0 0.359375,-0.15625 0.359375,-0.34375 0,-0.203125 -0.140625,-0.359375 -0.359375,-0.375 0.25,-0.296875 0.71875,-0.375 0.984375,-0.375 0.3125,0 0.75,0.15625 0.75,0.75 0,0.296875 -0.09375,0.625 -0.28125,0.828125 -0.21875,0.265625 -0.421875,0.28125 -0.765625,0.3125 -0.171875,0.015625 -0.1875,0.015625 -0.21875,0.015625 -0.015625,0 -0.078125,0.015625 -0.078125,0.09375 0,0.09375 0.0625,0.09375 0.1875,0.09375 z m 0,0"
               id="id-2c3f6cf2-89d5-4cb1-857b-7ae0ef64191f" />
          </g>
        </g>
        <g
           style="fill:#000000;fill-opacity:1"
           id="id-3a7e2b3e-fd9c-4450-b764-cb35aa797aab">
          <g
             transform="translate(161.186,134.765)"
             id="g8555">
            <path
               style="stroke:none"
               d="m 3.296875,2.390625 c 0,-0.03125 0,-0.046875 -0.171875,-0.21875 C 1.890625,0.921875 1.5625,-0.96875 1.5625,-2.5 c 0,-1.734375 0.375,-3.46875 1.609375,-4.703125 0.125,-0.125 0.125,-0.140625 0.125,-0.171875 0,-0.078125 -0.03125,-0.109375 -0.09375,-0.109375 -0.109375,0 -1,0.6875 -1.59375,1.953125 -0.5,1.09375 -0.625,2.203125 -0.625,3.03125 0,0.78125 0.109375,1.984375 0.65625,3.125 C 2.25,1.84375 3.09375,2.5 3.203125,2.5 c 0.0625,0 0.09375,-0.03125 0.09375,-0.109375 z m 0,0"
               id="id-a9ffde8a-9715-4599-b586-e21a13235907" />
          </g>
        </g>
        <g
           style="fill:#000000;fill-opacity:1"
           id="id-10d9e11b-9acd-4037-a0ea-5afcf720600a">
          <g
             transform="translate(165.061,134.765)"
             id="g8559">
            <path
               style="stroke:none"
               d="M 3.328125,-3.015625 C 3.390625,-3.265625 3.625,-4.1875 4.3125,-4.1875 c 0.046875,0 0.296875,0 0.5,0.125 C 4.53125,-4 4.34375,-3.765625 4.34375,-3.515625 c 0,0.15625 0.109375,0.34375 0.375,0.34375 0.21875,0 0.53125,-0.171875 0.53125,-0.578125 0,-0.515625 -0.578125,-0.65625 -0.921875,-0.65625 -0.578125,0 -0.921875,0.53125 -1.046875,0.75 -0.25,-0.65625 -0.78125,-0.75 -1.078125,-0.75 -1.03125,0 -1.609375,1.28125 -1.609375,1.53125 0,0.109375 0.109375,0.109375 0.125,0.109375 0.078125,0 0.109375,-0.03125 0.125,-0.109375 0.34375,-1.0625 1,-1.3125 1.34375,-1.3125 0.1875,0 0.53125,0.09375 0.53125,0.671875 0,0.3125 -0.171875,0.96875 -0.53125,2.375 -0.15625,0.609375 -0.515625,1.03125 -0.953125,1.03125 -0.0625,0 -0.28125,0 -0.5,-0.125 0.25,-0.0625 0.46875,-0.265625 0.46875,-0.546875 0,-0.265625 -0.21875,-0.34375 -0.359375,-0.34375 -0.3125,0 -0.546875,0.25 -0.546875,0.578125 0,0.453125 0.484375,0.65625 0.921875,0.65625 0.671875,0 1.03125,-0.703125 1.046875,-0.75 0.125,0.359375 0.484375,0.75 1.078125,0.75 1.03125,0 1.59375,-1.28125 1.59375,-1.53125 0,-0.109375 -0.078125,-0.109375 -0.109375,-0.109375 -0.09375,0 -0.109375,0.046875 -0.140625,0.109375 -0.328125,1.078125 -1,1.3125 -1.3125,1.3125 -0.390625,0 -0.546875,-0.3125 -0.546875,-0.65625 0,-0.21875 0.046875,-0.4375 0.15625,-0.875 z m 0,0"
               id="id-f0c1bfd3-28ad-461c-89fa-fc1a321c8f2d" />
          </g>
        </g>
        <g
           style="fill:#000000;fill-opacity:1"
           id="id-25471ea8-0cf5-4b19-925e-7c88d9817172">
          <g
             transform="translate(170.755,134.765)"
             id="g8563">
            <path
               style="stroke:none"
               d="m 2.875,-2.5 c 0,-0.765625 -0.109375,-1.96875 -0.65625,-3.109375 -0.59375,-1.21875 -1.453125,-1.875 -1.546875,-1.875 -0.0625,0 -0.109375,0.046875 -0.109375,0.109375 0,0.03125 0,0.046875 0.1875,0.234375 0.984375,0.984375 1.546875,2.5625 1.546875,4.640625 0,1.71875 -0.359375,3.46875 -1.59375,4.71875 C 0.5625,2.34375 0.5625,2.359375 0.5625,2.390625 0.5625,2.453125 0.609375,2.5 0.671875,2.5 0.765625,2.5 1.671875,1.8125 2.25,0.546875 2.765625,-0.546875 2.875,-1.65625 2.875,-2.5 Z m 0,0"
               id="id-c4ed24b3-0ad3-4332-b685-f88b438447cb" />
          </g>
        </g>
      </g>
    </g>
    <g
       transform="matrix(0.705556,0,0,0.705556,87.055743,25.936004)"
       ns2:version="1.6.0"
       ns2:texconverter="pdflatex"
       ns2:pdfconverter="inkscape"
       ns2:text="\\definecolor{linecolor}{RGB}{0,125,0}\n$\\color{linecolor}{N_4(x)}$"
       ns2:preamble="C:\Users\meyer\Documents\inkscape_TexText_preamble.tex"
       ns2:scale="2.0"
       ns2:alignment="middle center"
       ns2:stroke-to-path="0"
       ns2:jacobian_sqrt="0.705556"
       id="g6688">
      <defs
         id="id-427aa8d9-c717-4373-85e7-86d02dd5bf83">
        <g
           id="id-b3ea1c82-7640-4938-9a1d-99431619c0b5">
          <symbol
             overflow="visible"
             id="id-43008d04-2eee-46e2-8de7-48838a09106b">
            <path
               style="stroke:none"
               d=""
               id="id-3f456e86-3273-40d0-94fe-cffe975338f7" />
          </symbol>
          <symbol
             overflow="visible"
             id="id-149bb768-18bd-45a9-81cf-653e83892eca">
            <path
               style="stroke:none"
               d="M 7.53125,-5.765625 C 7.640625,-6.15625 7.8125,-6.46875 8.609375,-6.5 c 0.046875,0 0.171875,-0.015625 0.171875,-0.203125 0,0 0,-0.109375 -0.125,-0.109375 -0.328125,0 -0.6875,0.03125 -1.015625,0.03125 -0.328125,0 -0.6875,-0.03125 -1.015625,-0.03125 -0.0625,0 -0.171875,0 -0.171875,0.203125 C 6.453125,-6.5 6.546875,-6.5 6.625,-6.5 c 0.578125,0.015625 0.6875,0.21875 0.6875,0.4375 0,0.03125 -0.03125,0.1875 -0.03125,0.203125 l -1.125,4.4375 L 3.953125,-6.625 C 3.875,-6.796875 3.875,-6.8125 3.640625,-6.8125 h -1.34375 c -0.1875,0 -0.28125,0 -0.28125,0.203125 0,0.109375 0.09375,0.109375 0.28125,0.109375 0.046875,0 0.671875,0 0.671875,0.09375 L 1.640625,-1.0625 c -0.109375,0.40625 -0.28125,0.71875 -1.078125,0.75 -0.0625,0 -0.171875,0.015625 -0.171875,0.203125 0,0.0625 0.046875,0.109375 0.125,0.109375 0.328125,0 0.671875,-0.03125 1,-0.03125 C 1.859375,-0.03125 2.21875,0 2.546875,0 2.59375,0 2.71875,0 2.71875,-0.203125 2.71875,-0.296875 2.625,-0.3125 2.515625,-0.3125 1.9375,-0.328125 1.859375,-0.546875 1.859375,-0.75 c 0,-0.0625 0.015625,-0.125 0.046875,-0.234375 l 1.3125,-5.25 C 3.265625,-6.1875 3.265625,-6.15625 3.3125,-6.0625 l 2.484375,5.875 C 5.859375,-0.015625 5.890625,0 5.984375,0 6.09375,0 6.09375,-0.03125 6.140625,-0.203125 Z m 0,0"
               id="id-6790baba-259d-45c9-bc76-e12ba5672647" />
          </symbol>
          <symbol
             overflow="visible"
             id="id-8fdcf22b-982d-496a-b6af-0b28b170caef">
            <path
               style="stroke:none"
               d="M 3.328125,-3.015625 C 3.390625,-3.265625 3.625,-4.1875 4.3125,-4.1875 c 0.046875,0 0.296875,0 0.5,0.125 C 4.53125,-4 4.34375,-3.765625 4.34375,-3.515625 c 0,0.15625 0.109375,0.34375 0.375,0.34375 0.21875,0 0.53125,-0.171875 0.53125,-0.578125 0,-0.515625 -0.578125,-0.65625 -0.921875,-0.65625 -0.578125,0 -0.921875,0.53125 -1.046875,0.75 -0.25,-0.65625 -0.78125,-0.75 -1.078125,-0.75 -1.03125,0 -1.609375,1.28125 -1.609375,1.53125 0,0.109375 0.109375,0.109375 0.125,0.109375 0.078125,0 0.109375,-0.03125 0.125,-0.109375 0.34375,-1.0625 1,-1.3125 1.34375,-1.3125 0.1875,0 0.53125,0.09375 0.53125,0.671875 0,0.3125 -0.171875,0.96875 -0.53125,2.375 -0.15625,0.609375 -0.515625,1.03125 -0.953125,1.03125 -0.0625,0 -0.28125,0 -0.5,-0.125 0.25,-0.0625 0.46875,-0.265625 0.46875,-0.546875 0,-0.265625 -0.21875,-0.34375 -0.359375,-0.34375 -0.3125,0 -0.546875,0.25 -0.546875,0.578125 0,0.453125 0.484375,0.65625 0.921875,0.65625 0.671875,0 1.03125,-0.703125 1.046875,-0.75 0.125,0.359375 0.484375,0.75 1.078125,0.75 1.03125,0 1.59375,-1.28125 1.59375,-1.53125 0,-0.109375 -0.078125,-0.109375 -0.109375,-0.109375 -0.09375,0 -0.109375,0.046875 -0.140625,0.109375 -0.328125,1.078125 -1,1.3125 -1.3125,1.3125 -0.390625,0 -0.546875,-0.3125 -0.546875,-0.65625 0,-0.21875 0.046875,-0.4375 0.15625,-0.875 z m 0,0"
               id="id-e0429bff-52e1-4963-b0e5-da0834ef9b9e" />
          </symbol>
          <symbol
             overflow="visible"
             id="id-74dfa08f-3110-49e7-b190-e3c35a21b926">
            <path
               style="stroke:none"
               d=""
               id="id-6a0b99d3-34ef-49da-9aaa-ab2b29b2d02c" />
          </symbol>
          <symbol
             overflow="visible"
             id="id-6ca3d0e9-c5c4-4dff-8e25-0c465dc30612">
            <path
               style="stroke:none"
               d="m 3.6875,-1.140625 v -0.25 H 2.90625 V -4.5 c 0,-0.140625 0,-0.203125 -0.140625,-0.203125 -0.09375,0 -0.125,0 -0.1875,0.109375 l -2.3125,3.203125 v 0.25 h 2.0625 v 0.5625 c 0,0.25 0,0.328125 -0.578125,0.328125 H 1.5625 V 0 C 1.921875,-0.015625 2.359375,-0.03125 2.609375,-0.03125 2.875,-0.03125 3.3125,-0.015625 3.671875,0 v -0.25 h -0.1875 C 2.90625,-0.25 2.90625,-0.328125 2.90625,-0.578125 v -0.5625 z M 2.375,-3.9375 v 2.546875 H 0.53125 Z m 0,0"
               id="id-7d7a9c29-b0c0-4ed4-8a0c-7cceae7aba6e" />
          </symbol>
          <symbol
             overflow="visible"
             id="id-55664f28-3ef4-446c-b57e-cbacaa4c530b">
            <path
               style="stroke:none"
               d=""
               id="id-c3451979-4a53-41c9-99ea-d53bc250a9f3" />
          </symbol>
          <symbol
             overflow="visible"
             id="id-80396a34-ec97-4f11-9415-a9019ab02f1a">
            <path
               style="stroke:none"
               d="m 3.296875,2.390625 c 0,-0.03125 0,-0.046875 -0.171875,-0.21875 C 1.890625,0.921875 1.5625,-0.96875 1.5625,-2.5 c 0,-1.734375 0.375,-3.46875 1.609375,-4.703125 0.125,-0.125 0.125,-0.140625 0.125,-0.171875 0,-0.078125 -0.03125,-0.109375 -0.09375,-0.109375 -0.109375,0 -1,0.6875 -1.59375,1.953125 -0.5,1.09375 -0.625,2.203125 -0.625,3.03125 0,0.78125 0.109375,1.984375 0.65625,3.125 C 2.25,1.84375 3.09375,2.5 3.203125,2.5 c 0.0625,0 0.09375,-0.03125 0.09375,-0.109375 z m 0,0"
               id="id-2c415f9f-a1da-4d88-b4ef-f33cc34faefe" />
          </symbol>
          <symbol
             overflow="visible"
             id="id-a275e32f-1161-4f39-944a-78a1208bcade">
            <path
               style="stroke:none"
               d="m 2.875,-2.5 c 0,-0.765625 -0.109375,-1.96875 -0.65625,-3.109375 -0.59375,-1.21875 -1.453125,-1.875 -1.546875,-1.875 -0.0625,0 -0.109375,0.046875 -0.109375,0.109375 0,0.03125 0,0.046875 0.1875,0.234375 0.984375,0.984375 1.546875,2.5625 1.546875,4.640625 0,1.71875 -0.359375,3.46875 -1.59375,4.71875 C 0.5625,2.34375 0.5625,2.359375 0.5625,2.390625 0.5625,2.453125 0.609375,2.5 0.671875,2.5 0.765625,2.5 1.671875,1.8125 2.25,0.546875 2.765625,-0.546875 2.875,-1.65625 2.875,-2.5 Z m 0,0"
               id="id-b44b4a79-eed7-4cc2-83eb-03992836c4ae" />
          </symbol>
        </g>
      </defs>
      <g
         id="id-b4f19fc2-8cf7-46fa-af6f-1e9e8b0691f3"
         transform="translate(-149.103,-127.281)">
        <g
           style="fill:#007d00;fill-opacity:1"
           id="id-bb3fe250-342a-48bb-a228-9b3a6d1dbc84">
          <g
             transform="translate(148.712,134.765)"
             id="g9094">
            <path
               style="stroke:none"
               d="M 7.53125,-5.765625 C 7.640625,-6.15625 7.8125,-6.46875 8.609375,-6.5 c 0.046875,0 0.171875,-0.015625 0.171875,-0.203125 0,0 0,-0.109375 -0.125,-0.109375 -0.328125,0 -0.6875,0.03125 -1.015625,0.03125 -0.328125,0 -0.6875,-0.03125 -1.015625,-0.03125 -0.0625,0 -0.171875,0 -0.171875,0.203125 C 6.453125,-6.5 6.546875,-6.5 6.625,-6.5 c 0.578125,0.015625 0.6875,0.21875 0.6875,0.4375 0,0.03125 -0.03125,0.1875 -0.03125,0.203125 l -1.125,4.4375 L 3.953125,-6.625 C 3.875,-6.796875 3.875,-6.8125 3.640625,-6.8125 h -1.34375 c -0.1875,0 -0.28125,0 -0.28125,0.203125 0,0.109375 0.09375,0.109375 0.28125,0.109375 0.046875,0 0.671875,0 0.671875,0.09375 L 1.640625,-1.0625 c -0.109375,0.40625 -0.28125,0.71875 -1.078125,0.75 -0.0625,0 -0.171875,0.015625 -0.171875,0.203125 0,0.0625 0.046875,0.109375 0.125,0.109375 0.328125,0 0.671875,-0.03125 1,-0.03125 C 1.859375,-0.03125 2.21875,0 2.546875,0 2.59375,0 2.71875,0 2.71875,-0.203125 2.71875,-0.296875 2.625,-0.3125 2.515625,-0.3125 1.9375,-0.328125 1.859375,-0.546875 1.859375,-0.75 c 0,-0.0625 0.015625,-0.125 0.046875,-0.234375 l 1.3125,-5.25 C 3.265625,-6.1875 3.265625,-6.15625 3.3125,-6.0625 l 2.484375,5.875 C 5.859375,-0.015625 5.890625,0 5.984375,0 6.09375,0 6.09375,-0.03125 6.140625,-0.203125 Z m 0,0"
               id="id-10c26e52-7951-43a2-a252-443dee76f349" />
          </g>
        </g>
        <g
           style="fill:#007d00;fill-opacity:1"
           id="id-b5548656-d429-4c7a-ba6f-e650edc11fd7">
          <g
             transform="translate(156.717,136.259)"
             id="g9098">
            <path
               style="stroke:none"
               d="m 3.6875,-1.140625 v -0.25 H 2.90625 V -4.5 c 0,-0.140625 0,-0.203125 -0.140625,-0.203125 -0.09375,0 -0.125,0 -0.1875,0.109375 l -2.3125,3.203125 v 0.25 h 2.0625 v 0.5625 c 0,0.25 0,0.328125 -0.578125,0.328125 H 1.5625 V 0 C 1.921875,-0.015625 2.359375,-0.03125 2.609375,-0.03125 2.875,-0.03125 3.3125,-0.015625 3.671875,0 v -0.25 h -0.1875 C 2.90625,-0.25 2.90625,-0.328125 2.90625,-0.578125 v -0.5625 z M 2.375,-3.9375 v 2.546875 H 0.53125 Z m 0,0"
               id="id-abf20f6a-3d7d-408e-89f6-3232a86ad652" />
          </g>
        </g>
        <g
           style="fill:#007d00;fill-opacity:1"
           id="id-d0b1a00f-230d-46f9-a5e6-39115656cc95">
          <g
             transform="translate(161.186,134.765)"
             id="g9102">
            <path
               style="stroke:none"
               d="m 3.296875,2.390625 c 0,-0.03125 0,-0.046875 -0.171875,-0.21875 C 1.890625,0.921875 1.5625,-0.96875 1.5625,-2.5 c 0,-1.734375 0.375,-3.46875 1.609375,-4.703125 0.125,-0.125 0.125,-0.140625 0.125,-0.171875 0,-0.078125 -0.03125,-0.109375 -0.09375,-0.109375 -0.109375,0 -1,0.6875 -1.59375,1.953125 -0.5,1.09375 -0.625,2.203125 -0.625,3.03125 0,0.78125 0.109375,1.984375 0.65625,3.125 C 2.25,1.84375 3.09375,2.5 3.203125,2.5 c 0.0625,0 0.09375,-0.03125 0.09375,-0.109375 z m 0,0"
               id="id-5356e1d4-6df0-4d1b-a85c-ef3518a3d245" />
          </g>
        </g>
        <g
           style="fill:#007d00;fill-opacity:1"
           id="id-07efc5df-c9a1-4954-916c-a38c6274684e">
          <g
             transform="translate(165.061,134.765)"
             id="g9106">
            <path
               style="stroke:none"
               d="M 3.328125,-3.015625 C 3.390625,-3.265625 3.625,-4.1875 4.3125,-4.1875 c 0.046875,0 0.296875,0 0.5,0.125 C 4.53125,-4 4.34375,-3.765625 4.34375,-3.515625 c 0,0.15625 0.109375,0.34375 0.375,0.34375 0.21875,0 0.53125,-0.171875 0.53125,-0.578125 0,-0.515625 -0.578125,-0.65625 -0.921875,-0.65625 -0.578125,0 -0.921875,0.53125 -1.046875,0.75 -0.25,-0.65625 -0.78125,-0.75 -1.078125,-0.75 -1.03125,0 -1.609375,1.28125 -1.609375,1.53125 0,0.109375 0.109375,0.109375 0.125,0.109375 0.078125,0 0.109375,-0.03125 0.125,-0.109375 0.34375,-1.0625 1,-1.3125 1.34375,-1.3125 0.1875,0 0.53125,0.09375 0.53125,0.671875 0,0.3125 -0.171875,0.96875 -0.53125,2.375 -0.15625,0.609375 -0.515625,1.03125 -0.953125,1.03125 -0.0625,0 -0.28125,0 -0.5,-0.125 0.25,-0.0625 0.46875,-0.265625 0.46875,-0.546875 0,-0.265625 -0.21875,-0.34375 -0.359375,-0.34375 -0.3125,0 -0.546875,0.25 -0.546875,0.578125 0,0.453125 0.484375,0.65625 0.921875,0.65625 0.671875,0 1.03125,-0.703125 1.046875,-0.75 0.125,0.359375 0.484375,0.75 1.078125,0.75 1.03125,0 1.59375,-1.28125 1.59375,-1.53125 0,-0.109375 -0.078125,-0.109375 -0.109375,-0.109375 -0.09375,0 -0.109375,0.046875 -0.140625,0.109375 -0.328125,1.078125 -1,1.3125 -1.3125,1.3125 -0.390625,0 -0.546875,-0.3125 -0.546875,-0.65625 0,-0.21875 0.046875,-0.4375 0.15625,-0.875 z m 0,0"
               id="id-d530fa5a-9c15-4c66-8270-eee78774fdba" />
          </g>
        </g>
        <g
           style="fill:#007d00;fill-opacity:1"
           id="id-f785438a-5b74-4af8-848d-91e4cd9a2119">
          <g
             transform="translate(170.755,134.765)"
             id="g9110">
            <path
               style="stroke:none"
               d="m 2.875,-2.5 c 0,-0.765625 -0.109375,-1.96875 -0.65625,-3.109375 -0.59375,-1.21875 -1.453125,-1.875 -1.546875,-1.875 -0.0625,0 -0.109375,0.046875 -0.109375,0.109375 0,0.03125 0,0.046875 0.1875,0.234375 0.984375,0.984375 1.546875,2.5625 1.546875,4.640625 0,1.71875 -0.359375,3.46875 -1.59375,4.71875 C 0.5625,2.34375 0.5625,2.359375 0.5625,2.390625 0.5625,2.453125 0.609375,2.5 0.671875,2.5 0.765625,2.5 1.671875,1.8125 2.25,0.546875 2.765625,-0.546875 2.875,-1.65625 2.875,-2.5 Z m 0,0"
               id="id-8d06413b-b06a-46d4-9f4f-86b76da46456" />
          </g>
        </g>
      </g>
    </g>
    <path
       style="fill:none;stroke:#ff0000;stroke-width:0.15;stroke-linecap:butt;stroke-linejoin:miter;stroke-miterlimit:4;stroke-dasharray:none;stroke-opacity:1"
       d="m 38.906367,24.717396 c 0,0 -1.009811,5.426488 -6.033296,10.449972"
       id="path9398" />
    <path
       style="fill:none;stroke:#0000ff;stroke-width:0.15;stroke-linecap:butt;stroke-linejoin:miter;stroke-miterlimit:4;stroke-dasharray:none;stroke-opacity:1"
       d="m 58.552882,24.717396 c 0,0 -1.009811,5.426488 -6.033296,10.449972"
       id="path12549" />
    <path
       style="fill:none;stroke:#000000;stroke-width:0.15;stroke-linecap:butt;stroke-linejoin:miter;stroke-miterlimit:4;stroke-dasharray:none;stroke-opacity:1"
       d="m 78.199399,24.717396 c 0,0 -1.009811,5.426488 -6.033296,10.449972"
       id="path12551" />
    <path
       style="fill:none;stroke:#007d00;stroke-width:0.15;stroke-linecap:butt;stroke-linejoin:miter;stroke-miterlimit:4;stroke-dasharray:none;stroke-opacity:1"
       d="m 93.090574,33.02028 c 0,0 -4.217145,7.623349 -11.47182,4.751038"
       id="path12551-4"
       sodipodi:nodetypes="cc" />
    <g
       transform="matrix(0.705556,0,0,0.705556,93.495272,52.991932)"
       ns2:version="1.6.0"
       ns2:texconverter="pdflatex"
       ns2:pdfconverter="inkscape"
       ns2:text="$x$"
       ns2:preamble="C:\Users\meyer\Documents\inkscape_TexText_preamble.tex"
       ns2:scale="2.0"
       ns2:alignment="middle center"
       ns2:stroke-to-path="0"
       ns2:inkscapeversion="1.1"
       ns2:jacobian_sqrt="0.705556"
       id="g1129">
      <defs
         id="id-375fd125-f395-41a2-819a-ffd821ee52df">
        <g
           id="id-fc12e4f3-9ef3-4816-9e80-11616e754081">
          <symbol
             overflow="visible"
             id="id-40e595b2-3503-4c01-a02d-139bd301deaa">
            <path
               style="stroke:none"
               d=""
               id="id-6804eb68-efa5-4477-937f-e0da3d5ef324" />
          </symbol>
          <symbol
             overflow="visible"
             id="id-e3ebd56f-2f6b-4464-bb56-558ce8367024">
            <path
               style="stroke:none"
               d="M 3.328125,-3.015625 C 3.390625,-3.265625 3.625,-4.1875 4.3125,-4.1875 c 0.046875,0 0.296875,0 0.5,0.125 C 4.53125,-4 4.34375,-3.765625 4.34375,-3.515625 c 0,0.15625 0.109375,0.34375 0.375,0.34375 0.21875,0 0.53125,-0.171875 0.53125,-0.578125 0,-0.515625 -0.578125,-0.65625 -0.921875,-0.65625 -0.578125,0 -0.921875,0.53125 -1.046875,0.75 -0.25,-0.65625 -0.78125,-0.75 -1.078125,-0.75 -1.03125,0 -1.609375,1.28125 -1.609375,1.53125 0,0.109375 0.109375,0.109375 0.125,0.109375 0.078125,0 0.109375,-0.03125 0.125,-0.109375 0.34375,-1.0625 1,-1.3125 1.34375,-1.3125 0.1875,0 0.53125,0.09375 0.53125,0.671875 0,0.3125 -0.171875,0.96875 -0.53125,2.375 -0.15625,0.609375 -0.515625,1.03125 -0.953125,1.03125 -0.0625,0 -0.28125,0 -0.5,-0.125 0.25,-0.0625 0.46875,-0.265625 0.46875,-0.546875 0,-0.265625 -0.21875,-0.34375 -0.359375,-0.34375 -0.3125,0 -0.546875,0.25 -0.546875,0.578125 0,0.453125 0.484375,0.65625 0.921875,0.65625 0.671875,0 1.03125,-0.703125 1.046875,-0.75 0.125,0.359375 0.484375,0.75 1.078125,0.75 1.03125,0 1.59375,-1.28125 1.59375,-1.53125 0,-0.109375 -0.078125,-0.109375 -0.109375,-0.109375 -0.09375,0 -0.109375,0.046875 -0.140625,0.109375 -0.328125,1.078125 -1,1.3125 -1.3125,1.3125 -0.390625,0 -0.546875,-0.3125 -0.546875,-0.65625 0,-0.21875 0.046875,-0.4375 0.15625,-0.875 z m 0,0"
               id="id-754beb5c-2951-4cb3-b8fa-afad936c0024" />
          </symbol>
        </g>
      </defs>
      <g
         id="id-b159db33-b4b5-40fd-8e08-3df37f6ce726"
         transform="translate(-149.009,-130.359)">
        <g
           style="fill:#000000;fill-opacity:1"
           id="id-8ab8cb07-8d53-415d-ab89-46bcf300b7fa">
          <g
             transform="translate(148.712,134.765)"
             id="g1672">
            <path
               style="stroke:none"
               d="M 3.328125,-3.015625 C 3.390625,-3.265625 3.625,-4.1875 4.3125,-4.1875 c 0.046875,0 0.296875,0 0.5,0.125 C 4.53125,-4 4.34375,-3.765625 4.34375,-3.515625 c 0,0.15625 0.109375,0.34375 0.375,0.34375 0.21875,0 0.53125,-0.171875 0.53125,-0.578125 0,-0.515625 -0.578125,-0.65625 -0.921875,-0.65625 -0.578125,0 -0.921875,0.53125 -1.046875,0.75 -0.25,-0.65625 -0.78125,-0.75 -1.078125,-0.75 -1.03125,0 -1.609375,1.28125 -1.609375,1.53125 0,0.109375 0.109375,0.109375 0.125,0.109375 0.078125,0 0.109375,-0.03125 0.125,-0.109375 0.34375,-1.0625 1,-1.3125 1.34375,-1.3125 0.1875,0 0.53125,0.09375 0.53125,0.671875 0,0.3125 -0.171875,0.96875 -0.53125,2.375 -0.15625,0.609375 -0.515625,1.03125 -0.953125,1.03125 -0.0625,0 -0.28125,0 -0.5,-0.125 0.25,-0.0625 0.46875,-0.265625 0.46875,-0.546875 0,-0.265625 -0.21875,-0.34375 -0.359375,-0.34375 -0.3125,0 -0.546875,0.25 -0.546875,0.578125 0,0.453125 0.484375,0.65625 0.921875,0.65625 0.671875,0 1.03125,-0.703125 1.046875,-0.75 0.125,0.359375 0.484375,0.75 1.078125,0.75 1.03125,0 1.59375,-1.28125 1.59375,-1.53125 0,-0.109375 -0.078125,-0.109375 -0.109375,-0.109375 -0.09375,0 -0.109375,0.046875 -0.140625,0.109375 -0.328125,1.078125 -1,1.3125 -1.3125,1.3125 -0.390625,0 -0.546875,-0.3125 -0.546875,-0.65625 0,-0.21875 0.046875,-0.4375 0.15625,-0.875 z m 0,0"
               id="id-54bda7f2-270b-4050-b275-d22ae1175872" />
          </g>
        </g>
      </g>
    </g>
  </g>
</svg>
