<?xml version="1.0" encoding="UTF-8" standalone="no"?>
<!-- Created with Inkscape (http://www.inkscape.org/) -->

<svg
   width="190.43867mm"
   height="47.059933mm"
   viewBox="0 0 190.43868 47.059932"
   version="1.1"
   id="svg5"
   sodipodi:docname="traction.svg"
   inkscape:version="1.1 (c68e22c387, 2021-05-23)"
   xmlns:inkscape="http://www.inkscape.org/namespaces/inkscape"
   xmlns:sodipodi="http://sodipodi.sourceforge.net/DTD/sodipodi-0.dtd"
   xmlns="http://www.w3.org/2000/svg"
   xmlns:svg="http://www.w3.org/2000/svg"
   xmlns:ns1="http://www.iki.fi/pav/software/textext/">
  <sodipodi:namedview
     id="namedview7"
     pagecolor="#ffffff"
     bordercolor="#666666"
     borderopacity="1.0"
     inkscape:pageshadow="2"
     inkscape:pageopacity="0.0"
     inkscape:pagecheckerboard="0"
     inkscape:document-units="mm"
     showgrid="false"
     inkscape:snap-smooth-nodes="true"
     inkscape:snap-object-midpoints="true"
     inkscape:zoom="1.3416246"
     inkscape:cx="94.288671"
     inkscape:cy="58.511151"
     inkscape:window-width="2560"
     inkscape:window-height="1377"
     inkscape:window-x="-8"
     inkscape:window-y="-8"
     inkscape:window-maximized="1"
     inkscape:current-layer="layer1"
     fit-margin-top="2"
     fit-margin-left="2"
     fit-margin-right="2"
     fit-margin-bottom="2" />
  <defs
     id="defs2">
    <marker
       id="bluearrow"
       viewBox="0 0 10 10"
       refX="5"
       refY="5"
       markerWidth="4"
       markerHeight="4"
       stroke="none"
       fill="#0000ff"
       orient="auto-start-reverse">
      <path
         d="M 0,0 10,5 0,10 Z"
         id="path3" />
    </marker>
    <marker
       id="blackarrow"
       viewBox="0 0 10 10"
       refX="5"
       refY="5"
       markerWidth="4"
       markerHeight="4"
       stroke="none"
       fill="#000000"
       orient="auto-start-reverse">
      <path
         d="M 0,0 10,5 0,10 Z"
         id="path6" />
    </marker>
    <marker
       id="redarrow"
       viewBox="0 0 10 10"
       refX="5"
       refY="5"
       markerWidth="4"
       markerHeight="4"
       stroke="none"
       fill="#ff0000"
       orient="auto-start-reverse">
      <path
         d="M 0,0 10,5 0,10 Z"
         id="path9" />
    </marker>
    <marker
       style="overflow:visible"
       id="TriangleOutMOld"
       refX="0"
       refY="0"
       orient="auto"
       inkscape:stockid="TriangleOutM"
       inkscape:isstock="true">
      <path
         transform="scale(0.4)"
         style="fill:context-stroke;fill-rule:evenodd;stroke:context-stroke;stroke-width:1pt"
         d="M 5.77,0 -2.88,5 V -5 Z"
         id="path6150" />
    </marker>
  </defs>
  <g
     inkscape:label="Layer 1"
     inkscape:groupmode="layer"
     id="layer1"
     transform="translate(101.09363,-14.533074)">
    <path
       id="path29154"
       style="fill:none;fill-opacity:1;stroke:#00c84b;stroke-width:1;stroke-linecap:butt;stroke-linejoin:miter;stroke-miterlimit:4;stroke-dasharray:1, 1;stroke-dashoffset:0;stroke-opacity:1"
       d="m -59.95478,58.011891 c 4.369668,1.281889 12.788089,-11.072497 12.504387,-21.084062 -0.283703,-10.011565 -8.374718,-17.899194 -11.108089,-17.670161"
       sodipodi:nodetypes="czc" />
    <path
       id="ellipse4182"
       style="fill:#e6e6e6;fill-opacity:1;stroke:#00004b;stroke-linecap:round;stroke-linejoin:round;stroke-opacity:1"
       d="m 59.12652,39.81279 c 0,5.660657 2.091526,10.249527 4.671552,10.249527 H 42.183426 c -2.580027,0 -4.671553,-4.58887 -4.671553,-10.249527 0,-5.660657 2.091526,-10.249527 4.671552,-10.249527 h 21.614647 c -2.580026,0 -4.671552,4.58887 -4.671552,10.249527 z"
       sodipodi:nodetypes="sccsccs" />
    <ellipse
       style="fill:#c8c8c8;fill-opacity:1;stroke:#00004b;stroke-width:1;stroke-linecap:round;stroke-linejoin:round;stroke-opacity:1"
       id="path3677"
       cx="63.798073"
       cy="39.81279"
       rx="4.6715531"
       ry="10.249527" />
    <path
       style="fill:none;stroke:#ff0000;stroke-width:0.5;stroke-linecap:round;stroke-linejoin:miter;stroke-miterlimit:4;stroke-dasharray:none;stroke-opacity:1;marker-end:url(#redarrow)"
       d="M 63.798071,39.81279 81.856764,24.055012"
       id="path6003" />
    <path
       style="fill:none;stroke:#0000ff;stroke-width:0.5;stroke-linecap:round;stroke-linejoin:miter;stroke-miterlimit:4;stroke-dasharray:none;stroke-opacity:1;marker-end:url(#bluearrow)"
       d="M 63.798071,39.81279 H 77.254935"
       id="path6468" />
    <g
       transform="matrix(0.705556,0,0,0.705556,74.805377,46.842226)"
       ns1:version="1.6.0"
       ns1:texconverter="pdflatex"
       ns1:pdfconverter="inkscape"
       ns1:text="$\\mathrm{d} A$"
       ns1:preamble="C:\Users\meyer\Documents\inkscape_TexText_preamble.tex"
       ns1:scale="2.0"
       ns1:alignment="middle center"
       ns1:stroke-to-path="0"
       ns1:inkscapeversion="1.1"
       ns1:jacobian_sqrt="0.705556"
       id="g6927">
      <defs
         id="id-64eaa962-8126-482b-a96d-e0479c254f79">
        <g
           id="id-a9bf813a-3e60-4db8-8b37-d54cd4a32be7">
          <symbol
             overflow="visible"
             id="id-3d100bb7-03cc-4e0a-a6c6-0256d8c4f21e">
            <path
               style="stroke:none"
               d=""
               id="id-0cec0f42-dc6f-4f19-9b21-6154ed51892c" />
          </symbol>
          <symbol
             overflow="visible"
             id="id-460bd963-e6d5-4d9b-ab46-be3f47493561">
            <path
               style="stroke:none"
               d="m 3.78125,-0.546875 v 0.65625 L 5.25,0 v -0.3125 c -0.6875,0 -0.78125,-0.0625 -0.78125,-0.5625 V -6.921875 L 3.046875,-6.8125 V -6.5 c 0.6875,0 0.765625,0.0625 0.765625,0.5625 v 2.15625 c -0.28125,-0.359375 -0.71875,-0.625 -1.25,-0.625 -1.171875,0 -2.21875,0.984375 -2.21875,2.265625 0,1.265625 0.96875,2.25 2.109375,2.25 0.640625,0 1.078125,-0.34375 1.328125,-0.65625 z m 0,-2.671875 v 2.046875 c 0,0.171875 0,0.1875 -0.109375,0.359375 C 3.375,-0.328125 2.9375,-0.109375 2.5,-0.109375 2.046875,-0.109375 1.6875,-0.375 1.453125,-0.75 1.203125,-1.15625 1.171875,-1.71875 1.171875,-2.140625 1.171875,-2.5 1.1875,-3.09375 1.46875,-3.546875 1.6875,-3.859375 2.0625,-4.1875 2.609375,-4.1875 c 0.34375,0 0.765625,0.15625 1.0625,0.59375 0.109375,0.171875 0.109375,0.1875 0.109375,0.375 z m 0,0"
               id="id-92bce92b-8764-4383-b701-0018d3cacabf" />
          </symbol>
          <symbol
             overflow="visible"
             id="id-f8db5640-b04c-4e29-afc3-c4404b246624">
            <path
               style="stroke:none"
               d=""
               id="id-2738d7df-c597-4cba-9020-4f6fbc7582fa" />
          </symbol>
          <symbol
             overflow="visible"
             id="id-6703244c-7605-41a6-824d-c4bd994abf17">
            <path
               style="stroke:none"
               d="M 1.78125,-1.140625 C 1.390625,-0.484375 1,-0.34375 0.5625,-0.3125 0.4375,-0.296875 0.34375,-0.296875 0.34375,-0.109375 0.34375,-0.046875 0.40625,0 0.484375,0 0.75,0 1.0625,-0.03125 1.328125,-0.03125 c 0.34375,0 0.6875,0.03125 1,0.03125 0.0625,0 0.1875,0 0.1875,-0.1875 0,-0.109375 -0.078125,-0.125 -0.15625,-0.125 -0.21875,-0.015625 -0.46875,-0.09375 -0.46875,-0.34375 0,-0.125 0.0625,-0.234375 0.140625,-0.375 l 0.765625,-1.265625 h 2.5 c 0.015625,0.203125 0.15625,1.5625 0.15625,1.65625 0,0.296875 -0.515625,0.328125 -0.71875,0.328125 C 4.59375,-0.3125 4.5,-0.3125 4.5,-0.109375 4.5,0 4.609375,0 4.640625,0 5.046875,0 5.46875,-0.03125 5.875,-0.03125 6.125,-0.03125 6.765625,0 7.015625,0 7.0625,0 7.1875,0 7.1875,-0.203125 7.1875,-0.3125 7.09375,-0.3125 6.953125,-0.3125 6.34375,-0.3125 6.34375,-0.375 6.3125,-0.671875 l -0.609375,-6.21875 c -0.015625,-0.203125 -0.015625,-0.25 -0.1875,-0.25 -0.15625,0 -0.203125,0.078125 -0.265625,0.171875 z M 2.984375,-2.609375 4.9375,-5.90625 5.265625,-2.609375 Z m 0,0"
               id="id-46811476-086b-49ce-a964-dc2122617c25" />
          </symbol>
        </g>
      </defs>
      <g
         id="id-b4f68465-2c1a-44a1-8f12-3c62ff9e969c"
         transform="translate(-149.056,-127.624)">
        <g
           style="fill:#000000;fill-opacity:1"
           id="id-050719bb-9cfe-464b-9206-59183df7e599">
          <g
             transform="translate(148.712,134.765)"
             id="g7018">
            <path
               style="stroke:none"
               d="m 3.78125,-0.546875 v 0.65625 L 5.25,0 v -0.3125 c -0.6875,0 -0.78125,-0.0625 -0.78125,-0.5625 V -6.921875 L 3.046875,-6.8125 V -6.5 c 0.6875,0 0.765625,0.0625 0.765625,0.5625 v 2.15625 c -0.28125,-0.359375 -0.71875,-0.625 -1.25,-0.625 -1.171875,0 -2.21875,0.984375 -2.21875,2.265625 0,1.265625 0.96875,2.25 2.109375,2.25 0.640625,0 1.078125,-0.34375 1.328125,-0.65625 z m 0,-2.671875 v 2.046875 c 0,0.171875 0,0.1875 -0.109375,0.359375 C 3.375,-0.328125 2.9375,-0.109375 2.5,-0.109375 2.046875,-0.109375 1.6875,-0.375 1.453125,-0.75 1.203125,-1.15625 1.171875,-1.71875 1.171875,-2.140625 1.171875,-2.5 1.1875,-3.09375 1.46875,-3.546875 1.6875,-3.859375 2.0625,-4.1875 2.609375,-4.1875 c 0.34375,0 0.765625,0.15625 1.0625,0.59375 0.109375,0.171875 0.109375,0.1875 0.109375,0.375 z m 0,0"
               id="id-8139a9a9-df16-4cd2-8a2f-ad79ba5b933d" />
          </g>
        </g>
        <g
           style="fill:#000000;fill-opacity:1"
           id="id-8ceddcfc-41ea-4093-b611-40fe8b67bfff">
          <g
             transform="translate(154.247,134.765)"
             id="g7022">
            <path
               style="stroke:none"
               d="M 1.78125,-1.140625 C 1.390625,-0.484375 1,-0.34375 0.5625,-0.3125 0.4375,-0.296875 0.34375,-0.296875 0.34375,-0.109375 0.34375,-0.046875 0.40625,0 0.484375,0 0.75,0 1.0625,-0.03125 1.328125,-0.03125 c 0.34375,0 0.6875,0.03125 1,0.03125 0.0625,0 0.1875,0 0.1875,-0.1875 0,-0.109375 -0.078125,-0.125 -0.15625,-0.125 -0.21875,-0.015625 -0.46875,-0.09375 -0.46875,-0.34375 0,-0.125 0.0625,-0.234375 0.140625,-0.375 l 0.765625,-1.265625 h 2.5 c 0.015625,0.203125 0.15625,1.5625 0.15625,1.65625 0,0.296875 -0.515625,0.328125 -0.71875,0.328125 C 4.59375,-0.3125 4.5,-0.3125 4.5,-0.109375 4.5,0 4.609375,0 4.640625,0 5.046875,0 5.46875,-0.03125 5.875,-0.03125 6.125,-0.03125 6.765625,0 7.015625,0 7.0625,0 7.1875,0 7.1875,-0.203125 7.1875,-0.3125 7.09375,-0.3125 6.953125,-0.3125 6.34375,-0.3125 6.34375,-0.375 6.3125,-0.671875 l -0.609375,-6.21875 c -0.015625,-0.203125 -0.015625,-0.25 -0.1875,-0.25 -0.15625,0 -0.203125,0.078125 -0.265625,0.171875 z M 2.984375,-2.609375 4.9375,-5.90625 5.265625,-2.609375 Z m 0,0"
               id="id-28d92c17-18b7-4816-86df-d1b133511509" />
          </g>
        </g>
      </g>
    </g>
    <path
       style="fill:none;stroke:#000000;stroke-width:0.264583px;stroke-linecap:butt;stroke-linejoin:miter;stroke-opacity:1"
       d="m 73.908151,49.225619 c 0,0 -4.235831,-0.423042 -5.04408,-3.79875 -0.808249,-3.375708 -4.926546,-3.522342 -4.926546,-3.522342"
       id="path7392"
       sodipodi:nodetypes="czc" />
    <path
       style="fill:none;stroke:#000000;stroke-width:0.499998;stroke-linecap:round;stroke-linejoin:miter;stroke-miterlimit:4;stroke-dasharray:none;stroke-opacity:1;marker-end:url(#blackarrow)"
       d="m 63.798073,39.81279 8.369216,-7.286941"
       id="path8513" />
    <g
       transform="matrix(0.705556,0,0,0.705556,84.4264,19.7776)"
       ns1:version="1.6.0"
       ns1:texconverter="pdflatex"
       ns1:pdfconverter="inkscape"
       ns1:text="$\\color{red}{\\tv{t}}$"
       ns1:preamble="C:\Users\meyer\Documents\inkscape_TexText_preamble.tex"
       ns1:scale="2.0"
       ns1:alignment="middle center"
       ns1:stroke-to-path="0"
       ns1:inkscapeversion="1.1"
       ns1:jacobian_sqrt="0.705556"
       id="g6777">
      <defs
         id="id-20bc31bc-75f5-4b63-84c0-3dbfe9cfc787">
        <g
           id="id-af7c47e2-9f8f-4dfd-9d35-761492797a42">
          <symbol
             overflow="visible"
             id="id-10af6b11-27ab-47e0-adeb-6c820d1ad433">
            <path
               style="stroke:none"
               d=""
               id="id-15a47ec4-8555-4a3f-88cf-9e08112aa3b1" />
          </symbol>
          <symbol
             overflow="visible"
             id="id-752c72bf-cb1a-4b39-8f38-a3b326bf9610">
            <path
               style="stroke:none"
               d="M 2.515625,-3.953125 H 3.40625 c 0.1875,0 0.21875,0 0.265625,-0.046875 0.0625,-0.046875 0.09375,-0.1875 0.09375,-0.25 0,-0.171875 -0.171875,-0.171875 -0.34375,-0.171875 H 2.625 L 2.953125,-5.71875 c 0.03125,-0.15625 0.03125,-0.21875 0.03125,-0.25 0,-0.328125 -0.25,-0.4375 -0.46875,-0.4375 -0.140625,0 -0.40625,0.0625 -0.578125,0.34375 C 1.90625,-5.984375 1.78125,-5.515625 1.71875,-5.25 L 1.515625,-4.421875 H 0.625 c -0.203125,0 -0.375,0 -0.375,0.28125 0,0.1875 0.15625,0.1875 0.34375,0.1875 H 1.390625 L 0.828125,-1.6875 C 0.75,-1.421875 0.65625,-1 0.65625,-0.890625 c 0,0.640625 0.640625,0.96875 1.25,0.96875 1.1875,0 1.875,-1.390625 1.875,-1.546875 0,-0.140625 -0.15625,-0.140625 -0.25,-0.140625 -0.15625,0 -0.171875,0 -0.234375,0.15625 -0.390625,0.859375 -0.9375,1.171875 -1.328125,1.171875 -0.09375,0 -0.25,0 -0.25,-0.359375 0,-0.203125 0.03125,-0.3125 0.0625,-0.4375 z m 0,0"
               id="id-5998a508-5131-4296-ba7d-e4ab9e9776bd" />
          </symbol>
        </g>
      </defs>
      <g
         id="id-8a1f1c82-223f-4b2c-87d7-98ad2ad51d28"
         transform="translate(-148.711,-128.359)">
        <g
           style="fill:#ff0000;fill-opacity:1"
           id="id-dfa4cca7-dc48-445f-aa74-84e44cd0cf2e">
          <g
             transform="translate(148.712,134.765)"
             id="g8934">
            <path
               style="stroke:none"
               d="M 2.515625,-3.953125 H 3.40625 c 0.1875,0 0.21875,0 0.265625,-0.046875 0.0625,-0.046875 0.09375,-0.1875 0.09375,-0.25 0,-0.171875 -0.171875,-0.171875 -0.34375,-0.171875 H 2.625 L 2.953125,-5.71875 c 0.03125,-0.15625 0.03125,-0.21875 0.03125,-0.25 0,-0.328125 -0.25,-0.4375 -0.46875,-0.4375 -0.140625,0 -0.40625,0.0625 -0.578125,0.34375 C 1.90625,-5.984375 1.78125,-5.515625 1.71875,-5.25 L 1.515625,-4.421875 H 0.625 c -0.203125,0 -0.375,0 -0.375,0.28125 0,0.1875 0.15625,0.1875 0.34375,0.1875 H 1.390625 L 0.828125,-1.6875 C 0.75,-1.421875 0.65625,-1 0.65625,-0.890625 c 0,0.640625 0.640625,0.96875 1.25,0.96875 1.1875,0 1.875,-1.390625 1.875,-1.546875 0,-0.140625 -0.15625,-0.140625 -0.25,-0.140625 -0.15625,0 -0.171875,0 -0.234375,0.15625 -0.390625,0.859375 -0.9375,1.171875 -1.328125,1.171875 -0.09375,0 -0.25,0 -0.25,-0.359375 0,-0.203125 0.03125,-0.3125 0.0625,-0.4375 z m 0,0"
               id="id-47c0ae1a-5d4b-4900-a3a3-e4ace05e2aa2" />
          </g>
        </g>
        <path
           style="fill:none;stroke:#ff0000;stroke-width:0.398;stroke-linecap:butt;stroke-linejoin:miter;stroke-miterlimit:10;stroke-opacity:1"
           d="M -0.0010625,-0.00115625 H 4.135656"
           transform="matrix(1,0,0,-1,148.712,136.159)"
           id="id-2f3ae6bf-f799-498a-b454-77c01ec1780a" />
      </g>
    </g>
    <g
       transform="matrix(0.705556,0,0,0.705556,79.4547,37.9074)"
       ns1:version="1.6.0"
       ns1:texconverter="pdflatex"
       ns1:pdfconverter="inkscape"
       ns1:text="$\\color{blue}{\\tv{n}}$"
       ns1:preamble="C:\Users\meyer\Documents\inkscape_TexText_preamble.tex"
       ns1:scale="2.0"
       ns1:alignment="middle center"
       ns1:stroke-to-path="0"
       ns1:inkscapeversion="1.1"
       ns1:jacobian_sqrt="0.705556"
       id="g6598">
      <defs
         id="id-5a86d0ab-f340-4214-946a-8554dc890c7b">
        <g
           id="id-38b3d075-b7bc-4507-8bba-c0663cd4de18">
          <symbol
             overflow="visible"
             id="id-b0d74cec-5b0e-422d-9b13-4cc4687301ed">
            <path
               style="stroke:none"
               d=""
               id="id-a69080d6-c23d-4aee-98f0-c863dec9f9ed" />
          </symbol>
          <symbol
             overflow="visible"
             id="id-51b01196-9535-4e7e-80f9-275d41960734">
            <path
               style="stroke:none"
               d="M 2.796875,-3.75 C 2.65625,-4.25 2.109375,-4.5 1.5625,-4.5 1.203125,-4.5 0.921875,-4.296875 0.703125,-3.9375 0.453125,-3.53125 0.3125,-3 0.3125,-2.953125 c 0,0.140625 0.15625,0.140625 0.25,0.140625 0.109375,0 0.140625,0 0.1875,-0.046875 C 0.78125,-2.875 0.78125,-2.90625 0.84375,-3.15625 1.03125,-3.921875 1.25,-4.140625 1.515625,-4.140625 c 0.15625,0 0.234375,0.09375 0.234375,0.359375 0,0.171875 -0.046875,0.328125 -0.140625,0.734375 C 1.53125,-2.765625 1.4375,-2.375 1.390625,-2.15625 L 1.03125,-0.75 C 1,-0.625 0.953125,-0.421875 0.953125,-0.359375 c 0,0.203125 0.15625,0.4375 0.46875,0.4375 0.515625,0 0.625,-0.453125 0.703125,-0.75 0.09375,-0.375 0.171875,-0.6875 0.28125,-1.125 0.03125,-0.125 0.28125,-1.15625 0.3125,-1.1875 0,-0.0625 0.28125,-0.5 0.609375,-0.78125 0.28125,-0.21875 0.609375,-0.375 1.03125,-0.375 0.25,0 0.5,0.09375 0.5,0.578125 0,0.578125 -0.4375,1.734375 -0.625,2.234375 -0.125,0.265625 -0.140625,0.34375 -0.140625,0.515625 0,0.578125 0.578125,0.890625 1.125,0.890625 1.046875,0 1.546875,-1.359375 1.546875,-1.546875 0,-0.140625 -0.140625,-0.140625 -0.234375,-0.140625 -0.125,0 -0.1875,0 -0.234375,0.125 C 5.96875,-0.375 5.4375,-0.28125 5.28125,-0.28125 c -0.078125,0 -0.171875,0 -0.171875,-0.203125 0,-0.234375 0.09375,-0.484375 0.1875,-0.734375 0.171875,-0.40625 0.625,-1.578125 0.625,-2.125 C 5.921875,-4.265625 5.15625,-4.5 4.4375,-4.5 4.234375,-4.5 3.5,-4.5 2.796875,-3.75 Z m 0,0"
               id="id-41321c1d-15ae-4de5-80d6-21dd8ccdc4ed" />
          </symbol>
        </g>
      </defs>
      <g
         id="id-334dc958-c0d3-49e8-ada7-52b4ad33e51a"
         transform="translate(-148.711,-130.265)">
        <g
           style="fill:#0000ff;fill-opacity:1"
           id="id-86533892-be75-4333-8005-6488050cd18c">
          <g
             transform="translate(148.712,134.765)"
             id="g9097">
            <path
               style="stroke:none"
               d="M 2.796875,-3.75 C 2.65625,-4.25 2.109375,-4.5 1.5625,-4.5 1.203125,-4.5 0.921875,-4.296875 0.703125,-3.9375 0.453125,-3.53125 0.3125,-3 0.3125,-2.953125 c 0,0.140625 0.15625,0.140625 0.25,0.140625 0.109375,0 0.140625,0 0.1875,-0.046875 C 0.78125,-2.875 0.78125,-2.90625 0.84375,-3.15625 1.03125,-3.921875 1.25,-4.140625 1.515625,-4.140625 c 0.15625,0 0.234375,0.09375 0.234375,0.359375 0,0.171875 -0.046875,0.328125 -0.140625,0.734375 C 1.53125,-2.765625 1.4375,-2.375 1.390625,-2.15625 L 1.03125,-0.75 C 1,-0.625 0.953125,-0.421875 0.953125,-0.359375 c 0,0.203125 0.15625,0.4375 0.46875,0.4375 0.515625,0 0.625,-0.453125 0.703125,-0.75 0.09375,-0.375 0.171875,-0.6875 0.28125,-1.125 0.03125,-0.125 0.28125,-1.15625 0.3125,-1.1875 0,-0.0625 0.28125,-0.5 0.609375,-0.78125 0.28125,-0.21875 0.609375,-0.375 1.03125,-0.375 0.25,0 0.5,0.09375 0.5,0.578125 0,0.578125 -0.4375,1.734375 -0.625,2.234375 -0.125,0.265625 -0.140625,0.34375 -0.140625,0.515625 0,0.578125 0.578125,0.890625 1.125,0.890625 1.046875,0 1.546875,-1.359375 1.546875,-1.546875 0,-0.140625 -0.140625,-0.140625 -0.234375,-0.140625 -0.125,0 -0.1875,0 -0.234375,0.125 C 5.96875,-0.375 5.4375,-0.28125 5.28125,-0.28125 c -0.078125,0 -0.171875,0 -0.171875,-0.203125 0,-0.234375 0.09375,-0.484375 0.1875,-0.734375 0.171875,-0.40625 0.625,-1.578125 0.625,-2.125 C 5.921875,-4.265625 5.15625,-4.5 4.4375,-4.5 4.234375,-4.5 3.5,-4.5 2.796875,-3.75 Z m 0,0"
               id="id-b35b25ae-3b75-4329-a3c4-15e38643cec7" />
          </g>
        </g>
        <path
           style="fill:none;stroke:#0000ff;stroke-width:0.398;stroke-linecap:butt;stroke-linejoin:miter;stroke-miterlimit:10;stroke-opacity:1"
           d="M -0.0010625,-0.00115625 H 7.104406"
           transform="matrix(1,0,0,-1,148.712,136.159)"
           id="id-cf3e221b-1b1d-4191-8ebb-8f1cfd6ec317" />
      </g>
    </g>
    <g
       transform="matrix(0.705556,0,0,0.705556,74.050874,30.146285)"
       ns1:version="1.6.0"
       ns1:texconverter="pdflatex"
       ns1:pdfconverter="inkscape"
       ns1:text="$\\tv{\\mathrm{d}F}$"
       ns1:preamble="C:\Users\meyer\Documents\inkscape_TexText_preamble.tex"
       ns1:scale="2.0"
       ns1:alignment="middle center"
       ns1:stroke-to-path="0"
       ns1:inkscapeversion="1.1"
       ns1:jacobian_sqrt="0.705556"
       id="g8807">
      <defs
         id="id-4e788ef4-6b39-40f3-9ac6-746cdb2af0cf">
        <g
           id="id-55f61333-eede-4bc3-b9b6-2e2cf573715b">
          <symbol
             overflow="visible"
             id="id-1b7450ae-8a1d-462a-a67a-a7f2700771ca">
            <path
               style="stroke:none"
               d=""
               id="id-416844ac-d1ea-4d6d-afc1-01f036d87959" />
          </symbol>
          <symbol
             overflow="visible"
             id="id-9999daae-fb50-46b0-9f2e-8490025eef44">
            <path
               style="stroke:none"
               d="M 4.171875,-0.421875 V 0.0625 L 5.984375,0 v -0.46875 c -0.609375,0 -0.6875,0 -0.6875,-0.390625 v -6.0625 L 3.53125,-6.84375 V -6.375 c 0.625,0 0.703125,0 0.703125,0.390625 v 1.953125 c -0.5,-0.390625 -1.03125,-0.453125 -1.359375,-0.453125 -1.453125,0 -2.5,0.875 -2.5,2.28125 0,1.3125 0.921875,2.265625 2.390625,2.265625 0.609375,0 1.09375,-0.234375 1.40625,-0.484375 z m 0,-3.09375 V -1.03125 C 4.03125,-0.84375 3.625,-0.296875 2.875,-0.296875 c -1.21875,0 -1.21875,-1.203125 -1.21875,-1.90625 0,-0.484375 0,-1.015625 0.25,-1.40625 C 2.203125,-4.03125 2.671875,-4.125 2.984375,-4.125 c 0.5625,0 0.96875,0.3125 1.1875,0.609375 z m 0,0"
               id="id-8c02795a-cb08-42a9-bbc6-369b89ba9a28" />
          </symbol>
          <symbol
             overflow="visible"
             id="id-a1d96c2f-b5dc-476b-9360-fb8c6b0b1cd6">
            <path
               style="stroke:none"
               d=""
               id="id-44607349-0a2e-4b34-b03c-eddccbef713d" />
          </symbol>
          <symbol
             overflow="visible"
             id="id-02e41d47-d2cc-4f4e-a7c7-0bcb9e7593db">
            <path
               style="stroke:none"
               d="m 3.65625,-3.15625 h 0.640625 c 0.59375,0 0.765625,0.09375 0.765625,0.421875 C 5.0625,-2.625 5.03125,-2.4375 5,-2.3125 4.984375,-2.25 4.96875,-2.1875 4.96875,-2.171875 4.96875,-2.03125 5.109375,-2 5.203125,-2 c 0.1875,0 0.203125,-0.046875 0.25,-0.234375 l 0.5625,-2.21875 c 0.03125,-0.125 0.03125,-0.15625 0.03125,-0.15625 0,-0.1875 -0.1875,-0.1875 -0.234375,-0.1875 -0.1875,0 -0.203125,0.078125 -0.265625,0.265625 -0.1875,0.75 -0.5,0.90625 -1.21875,0.90625 h -0.5625 l 0.65625,-2.671875 C 4.5625,-6.3125 4.671875,-6.3125 4.765625,-6.3125 h 1.1875 c 1.140625,0 1.484375,0.296875 1.484375,1.171875 0,0.234375 -0.046875,0.53125 -0.046875,0.578125 0,0.1875 0.203125,0.1875 0.25,0.1875 0.203125,0 0.21875,-0.09375 0.234375,-0.28125 L 8.0625,-6.4375 v -0.15625 c 0,-0.1875 -0.171875,-0.1875 -0.328125,-0.1875 H 2.375 c -0.21875,0 -0.21875,0.015625 -0.265625,0.046875 -0.078125,0.0625 -0.09375,0.234375 -0.09375,0.25 0,0.171875 0.140625,0.171875 0.40625,0.171875 0.203125,0 0.40625,0.015625 0.609375,0.015625 l -1.40625,5.625 C 1.578125,-0.515625 1.578125,-0.5 1.390625,-0.484375 1.21875,-0.46875 1.03125,-0.46875 0.875,-0.46875 c -0.265625,0 -0.28125,0 -0.328125,0.015625 -0.125,0.078125 -0.125,0.234375 -0.125,0.28125 0,0 0,0.171875 0.21875,0.171875 0.25,0 0.515625,-0.015625 0.765625,-0.015625 0.265625,0 0.53125,-0.015625 0.8125,-0.015625 0.296875,0 0.59375,0.015625 0.890625,0.015625 C 3.40625,-0.015625 3.6875,0 3.96875,0 4.09375,0 4.265625,0 4.265625,-0.296875 4.265625,-0.46875 4.09375,-0.46875 3.9375,-0.46875 H 3.609375 c -0.375,0 -0.53125,-0.015625 -0.625,-0.046875 z m 0,0"
               id="id-c8b8fa73-85fc-4c96-9045-2c3b1bdd3d83" />
          </symbol>
        </g>
      </defs>
      <g
         id="id-c935ef0c-bd18-4864-a7f7-f79217995ec2"
         transform="translate(-148.711,-127.843)">
        <g
           style="fill:#000000;fill-opacity:1"
           id="id-e214b062-35df-4fd0-9761-55bd7817ad74">
          <g
             transform="translate(148.712,134.765)"
             id="g9559">
            <path
               style="stroke:none"
               d="M 4.171875,-0.421875 V 0.0625 L 5.984375,0 v -0.46875 c -0.609375,0 -0.6875,0 -0.6875,-0.390625 v -6.0625 L 3.53125,-6.84375 V -6.375 c 0.625,0 0.703125,0 0.703125,0.390625 v 1.953125 c -0.5,-0.390625 -1.03125,-0.453125 -1.359375,-0.453125 -1.453125,0 -2.5,0.875 -2.5,2.28125 0,1.3125 0.921875,2.265625 2.390625,2.265625 0.609375,0 1.09375,-0.234375 1.40625,-0.484375 z m 0,-3.09375 V -1.03125 C 4.03125,-0.84375 3.625,-0.296875 2.875,-0.296875 c -1.21875,0 -1.21875,-1.203125 -1.21875,-1.90625 0,-0.484375 0,-1.015625 0.25,-1.40625 C 2.203125,-4.03125 2.671875,-4.125 2.984375,-4.125 c 0.5625,0 0.96875,0.3125 1.1875,0.609375 z m 0,0"
               id="id-33495be9-aa15-4a92-9f53-d8415283c6c1" />
          </g>
        </g>
        <g
           style="fill:#000000;fill-opacity:1"
           id="id-1e41c850-0a0b-4aae-a29c-cf55b712c477">
          <g
             transform="translate(155.077,134.765)"
             id="g9563">
            <path
               style="stroke:none"
               d="m 3.65625,-3.15625 h 0.640625 c 0.59375,0 0.765625,0.09375 0.765625,0.421875 C 5.0625,-2.625 5.03125,-2.4375 5,-2.3125 4.984375,-2.25 4.96875,-2.1875 4.96875,-2.171875 4.96875,-2.03125 5.109375,-2 5.203125,-2 c 0.1875,0 0.203125,-0.046875 0.25,-0.234375 l 0.5625,-2.21875 c 0.03125,-0.125 0.03125,-0.15625 0.03125,-0.15625 0,-0.1875 -0.1875,-0.1875 -0.234375,-0.1875 -0.1875,0 -0.203125,0.078125 -0.265625,0.265625 -0.1875,0.75 -0.5,0.90625 -1.21875,0.90625 h -0.5625 l 0.65625,-2.671875 C 4.5625,-6.3125 4.671875,-6.3125 4.765625,-6.3125 h 1.1875 c 1.140625,0 1.484375,0.296875 1.484375,1.171875 0,0.234375 -0.046875,0.53125 -0.046875,0.578125 0,0.1875 0.203125,0.1875 0.25,0.1875 0.203125,0 0.21875,-0.09375 0.234375,-0.28125 L 8.0625,-6.4375 v -0.15625 c 0,-0.1875 -0.171875,-0.1875 -0.328125,-0.1875 H 2.375 c -0.21875,0 -0.21875,0.015625 -0.265625,0.046875 -0.078125,0.0625 -0.09375,0.234375 -0.09375,0.25 0,0.171875 0.140625,0.171875 0.40625,0.171875 0.203125,0 0.40625,0.015625 0.609375,0.015625 l -1.40625,5.625 C 1.578125,-0.515625 1.578125,-0.5 1.390625,-0.484375 1.21875,-0.46875 1.03125,-0.46875 0.875,-0.46875 c -0.265625,0 -0.28125,0 -0.328125,0.015625 -0.125,0.078125 -0.125,0.234375 -0.125,0.28125 0,0 0,0.171875 0.21875,0.171875 0.25,0 0.515625,-0.015625 0.765625,-0.015625 0.265625,0 0.53125,-0.015625 0.8125,-0.015625 0.296875,0 0.59375,0.015625 0.890625,0.015625 C 3.40625,-0.015625 3.6875,0 3.96875,0 4.09375,0 4.265625,0 4.265625,-0.296875 4.265625,-0.46875 4.09375,-0.46875 3.9375,-0.46875 H 3.609375 c -0.375,0 -0.53125,-0.015625 -0.625,-0.046875 z m 0,0"
               id="id-dc1119ed-5bc2-4d3e-9e83-93018d3af502" />
          </g>
        </g>
        <path
           style="fill:none;stroke:#000000;stroke-width:0.398;stroke-linecap:butt;stroke-linejoin:miter;stroke-miterlimit:10;stroke-opacity:1"
           d="M -0.0010625,-0.00115625 H 14.81925"
           transform="matrix(1,0,0,-1,148.712,136.159)"
           id="id-252d6650-e667-4939-b927-be5989ba425f" />
      </g>
    </g>
    <path
       style="fill:#c8c8c8;fill-opacity:0.75;stroke:#00004b;stroke-width:0.5;stroke-linecap:butt;stroke-linejoin:miter;stroke-miterlimit:4;stroke-dasharray:none;stroke-opacity:1"
       d="m -94.793481,28.694302 c -4.122,6.291072 -12.033789,23.927081 18.82566,28.168767 30.859454,4.241687 38.108303,-3.51678 37.511873,-17.431164 -0.59642,-13.914382 -17.840979,-20.994448 -30.399959,-22.451348 -12.558974,-1.456899 -21.815574,5.422675 -25.937574,11.713745 z"
       id="path1128"
       sodipodi:nodetypes="zzzzz" />
    <path
       id="path24040"
       style="fill:#c8c8c8;fill-opacity:0.75;stroke:#00004b;stroke-width:0.5;stroke-linecap:butt;stroke-linejoin:miter;stroke-miterlimit:4;stroke-dasharray:none;stroke-opacity:1"
       d="M 15.987134,20.243498 C 12.487026,19.096797 8.9326806,18.34279 5.6900883,17.966634 4.5126846,17.83005 3.3642156,17.766629 2.2463696,17.76923 -8.5594623,17.794376 -16.5123,23.978849 -20.247862,29.680131 c -4.122002,6.291072 -12.033732,23.927136 18.8257229,28.168822 6.2676086,0.861494 11.5611751,1.228331 16.0129761,1.148768 m 0,0 C 8.7667649,55.704463 4.7185727,48.423013 4.7185727,39.968908 c 0,-9.114391 4.7054505,-16.865183 11.2685613,-19.72541"
       sodipodi:nodetypes="cssssccsc" />
    <path
       id="path25309"
       style="fill:#e6e6e6;fill-opacity:1;stroke:#00c84b;stroke-width:1;stroke-linecap:butt;stroke-linejoin:miter;stroke-miterlimit:4;stroke-dasharray:none;stroke-opacity:1"
       d="M 27.095223,37.913659 C 26.811521,27.902094 18.720506,20.014465 15.987135,20.243498 8.8528516,20.84129 4.7185716,30.854517 4.7185716,39.968909 c 0,8.454104 5.5025964,17.746924 9.8722654,19.028812 4.369667,1.281889 12.788089,-11.072497 12.504386,-21.084062 z"
       sodipodi:nodetypes="zsszz" />
    <ellipse
       style="fill:#c8c8c8;fill-opacity:1;stroke:#00004b;stroke-width:1;stroke-linecap:round;stroke-linejoin:round;stroke-opacity:1"
       id="ellipse28359"
       cx="15.910435"
       cy="39.665287"
       rx="4.6715531"
       ry="10.249527" />
    <path
       id="path28365"
       style="fill:none;fill-opacity:1;stroke:#00c84b;stroke-width:1;stroke-linecap:butt;stroke-linejoin:miter;stroke-miterlimit:4;stroke-dasharray:none;stroke-dashoffset:0;stroke-opacity:1"
       d="m -58.558482,19.257668 c -7.134283,0.597792 -11.268563,10.611019 -11.268563,19.725411 0,8.454104 5.502596,17.746924 9.872265,19.028812"
       sodipodi:nodetypes="csc" />
  </g>
</svg>
