<?xml version="1.0" encoding="UTF-8" standalone="no"?>
<!-- Created with Inkscape (http://www.inkscape.org/) -->

<svg
   width="179.68094mm"
   height="56.928185mm"
   viewBox="0 0 179.68094 56.928185"
   version="1.1"
   id="svg1181"
   inkscape:version="1.1 (c68e22c387, 2021-05-23)"
   sodipodi:docname="UniaxialTensionTestForce.svg"
   xmlns:inkscape="http://www.inkscape.org/namespaces/inkscape"
   xmlns:sodipodi="http://sodipodi.sourceforge.net/DTD/sodipodi-0.dtd"
   xmlns="http://www.w3.org/2000/svg"
   xmlns:svg="http://www.w3.org/2000/svg"
   xmlns:ns1="http://www.iki.fi/pav/software/textext/">
  <sodipodi:namedview
     id="namedview1183"
     pagecolor="#ffffff"
     bordercolor="#666666"
     borderopacity="1.0"
     inkscape:pageshadow="2"
     inkscape:pageopacity="0.0"
     inkscape:pagecheckerboard="0"
     inkscape:document-units="mm"
     showgrid="false"
     inkscape:zoom="1.8973437"
     inkscape:cx="365.511"
     inkscape:cy="136.24311"
     inkscape:window-width="2560"
     inkscape:window-height="1377"
     inkscape:window-x="-8"
     inkscape:window-y="-8"
     inkscape:window-maximized="1"
     inkscape:current-layer="layer1"
     inkscape:snap-midpoints="true"
     inkscape:snap-object-midpoints="true"
     fit-margin-top="10"
     fit-margin-left="10"
     fit-margin-right="10"
     fit-margin-bottom="10" />
  <defs
     id="defs1178">
    <marker
       id="bluearrow"
       viewBox="0 0 10 10"
       refX="5"
       refY="5"
       markerWidth="4"
       markerHeight="4"
       stroke="none"
       fill="#0000ff"
       orient="auto-start-reverse">
      <path
         d="M 0 0 L 10 5 L 0 10 z"
         id="path3" />
    </marker>
    <marker
       id="blackarrow"
       viewBox="0 0 10 10"
       refX="5"
       refY="5"
       markerWidth="4"
       markerHeight="4"
       stroke="none"
       fill="#000000"
       orient="auto-start-reverse">
      <path
         d="M 0 0 L 10 5 L 0 10 z"
         id="path6" />
    </marker>
    <marker
       style="overflow:visible"
       id="marker2414"
       refX="0"
       refY="0"
       orient="auto"
       inkscape:stockid="TriangleOutM"
       inkscape:isstock="true">
      <path
         transform="scale(0.4)"
         style="fill:context-stroke;fill-rule:evenodd;stroke:context-stroke;stroke-width:1pt"
         d="M 5.77,0 -2.88,5 V -5 Z"
         id="path2412" />
    </marker>
    <marker
       style="overflow:visible"
       id="TriangleOutM"
       refX="0"
       refY="0"
       orient="auto"
       inkscape:stockid="TriangleOutM"
       inkscape:isstock="true">
      <path
         transform="scale(0.4)"
         style="fill:context-stroke;fill-rule:evenodd;stroke:context-stroke;stroke-width:1pt"
         d="M 5.77,0 -2.88,5 V -5 Z"
         id="path1422" />
    </marker>
    <g
       id="id-51f4d00d-5bd0-4c7a-957a-e31b17a08b39">
      <symbol
         overflow="visible"
         id="id-41c1f6f8-a63b-49f9-8dea-a14f50e72c41">
        <path
           style="stroke:none"
           d=""
           id="id-761d4f9f-3998-4d59-8f29-885464b1cc65" />
      </symbol>
      <symbol
         overflow="visible"
         id="id-953f5095-deca-4d54-a403-77626de450a0">
        <path
           style="stroke:none"
           d="M 6.75,-1.609375 H 6.5 c -0.046875,0.25 -0.09375,0.484375 -0.1875,0.71875 -0.046875,0.15625 -0.078125,0.25 -0.65625,0.25 H 4.859375 C 5,-1.203125 5.296875,-1.6875 5.75,-2.34375 c 0.46875,-0.703125 0.875,-1.390625 0.875,-2.1875 0,-1.375 -1.34375,-2.5 -3.03125,-2.5 -1.703125,0 -3.03125,1.140625 -3.03125,2.5 0,0.796875 0.40625,1.484375 0.875,2.1875 0.4375,0.65625 0.75,1.140625 0.890625,1.703125 H 1.53125 C 0.953125,-0.640625 0.921875,-0.734375 0.875,-0.875 0.78125,-1.109375 0.734375,-1.359375 0.6875,-1.609375 h -0.25 L 0.765625,0 h 1.59375 c 0.21875,0 0.25,0 0.25,-0.203125 0,-0.703125 -0.3125,-1.578125 -0.53125,-2.21875 -0.21875,-0.578125 -0.5,-1.359375 -0.5,-2.109375 0,-1.59375 1.109375,-2.28125 2.015625,-2.28125 0.953125,0 2.015625,0.71875 2.015625,2.28125 0,0.75 -0.28125,1.5 -0.5625,2.3125 -0.15625,0.421875 -0.46875,1.328125 -0.46875,2.015625 C 4.578125,0 4.609375,0 4.828125,0 h 1.59375 z m 0,0"
           id="id-1fc35e8e-7b5f-49c3-8344-ec4f7e82ccfd" />
      </symbol>
    </g>
    <g
       id="id-8f2fda3a-54f6-4fb0-b26a-a02d4435dd1e">
      <symbol
         overflow="visible"
         id="id-766319f0-c5ba-4c6a-a261-9b1b7324e95c">
        <path
           style="stroke:none"
           d=""
           id="id-551fdccb-d479-48d4-a29e-13a838ef1386" />
      </symbol>
      <symbol
         overflow="visible"
         id="id-ac2ca26c-95e6-431d-b1e9-01783b52de0b">
        <path
           style="stroke:none"
           d="m 5.515625,-6.78125 h -5.1875 v 0.3125 H 0.5625 c 0.765625,0 0.796875,0.109375 0.796875,0.46875 v 5.21875 c 0,0.359375 -0.03125,0.46875 -0.796875,0.46875 H 0.328125 V 0 c 0.34375,-0.03125 1.125,-0.03125 1.515625,-0.03125 0.40625,0 1.3125,0 1.671875,0.03125 V -0.3125 H 3.1875 C 2.25,-0.3125 2.25,-0.4375 2.25,-0.78125 v -5.296875 c 0,-0.328125 0.015625,-0.390625 0.484375,-0.390625 h 1.03125 c 1.421875,0 1.625,0.59375 1.78125,1.9375 h 0.25 z m 0,0"
           id="id-13b63110-185f-4a48-b2c0-2f180bb877a7" />
      </symbol>
      <symbol
         overflow="visible"
         id="id-d758aa44-cf5d-4901-8c38-8ce6f76277b9">
        <path
           style="stroke:none"
           d=""
           id="id-727236a1-eebd-4791-8352-8fc1326d5d70" />
      </symbol>
      <symbol
         overflow="visible"
         id="id-be78ab6c-2def-4408-8165-241f06c1439b">
        <path
           style="stroke:none"
           d="m 0.40625,-4.765625 v 0.25 h 0.171875 c 0.53125,0 0.546875,0.078125 0.546875,0.328125 v 3.625 c 0,0.234375 -0.015625,0.3125 -0.546875,0.3125 H 0.40625 V 0 h 2.75 C 4.4375,0 5.5,-1.03125 5.5,-2.34375 5.5,-3.671875 4.453125,-4.765625 3.15625,-4.765625 Z M 2.09375,-0.25 C 1.765625,-0.25 1.75,-0.3125 1.75,-0.515625 v -3.71875 c 0,-0.21875 0.015625,-0.28125 0.34375,-0.28125 h 0.859375 c 0.59375,0 1.109375,0.25 1.4375,0.65625 0.28125,0.375 0.390625,0.90625 0.390625,1.515625 0,0.8125 -0.203125,1.234375 -0.453125,1.515625 C 4.015625,-0.46875 3.515625,-0.25 2.96875,-0.25 Z m 0,0"
           id="id-6d99dab3-d996-4d23-82ef-4dfe46136309" />
      </symbol>
    </g>
    <g
       id="id-58892108-78dd-4164-810b-466584ad2ad3">
      <symbol
         overflow="visible"
         id="id-1c6416b8-407f-4ec4-aa9b-5cff01558079">
        <path
           style="stroke:none"
           d=""
           id="id-a7c7f473-95a5-4c16-bfe1-ac68cc743252" />
      </symbol>
      <symbol
         overflow="visible"
         id="id-f608b1b6-702a-412d-b62d-8bcb1408811a">
        <path
           style="stroke:none"
           d="m 5.515625,-6.78125 h -5.1875 v 0.3125 H 0.5625 c 0.765625,0 0.796875,0.109375 0.796875,0.46875 v 5.21875 c 0,0.359375 -0.03125,0.46875 -0.796875,0.46875 H 0.328125 V 0 c 0.34375,-0.03125 1.125,-0.03125 1.515625,-0.03125 0.40625,0 1.3125,0 1.671875,0.03125 V -0.3125 H 3.1875 C 2.25,-0.3125 2.25,-0.4375 2.25,-0.78125 v -5.296875 c 0,-0.328125 0.015625,-0.390625 0.484375,-0.390625 h 1.03125 c 1.421875,0 1.625,0.59375 1.78125,1.9375 h 0.25 z m 0,0"
           id="id-592b0b80-ee12-4898-afaa-d77a24de8035" />
      </symbol>
      <symbol
         overflow="visible"
         id="id-0ddf0c6c-b112-408e-88e6-c82b2f6be7f0">
        <path
           style="stroke:none"
           d=""
           id="id-9a1d005c-01fc-4ccd-a9a0-9d65ca695a1c" />
      </symbol>
      <symbol
         overflow="visible"
         id="id-46dd8285-5d46-43e6-bd9a-cb3741bc3aa8">
        <path
           style="stroke:none"
           d="M 1.8125,-4.65625 C 1.734375,-4.75 1.734375,-4.765625 1.59375,-4.765625 H 0.390625 v 0.25 H 0.59375 c 0.3125,0 0.484375,0.046875 0.515625,0.046875 V -0.75 c 0,0.1875 0,0.5 -0.71875,0.5 V 0 c 0.28125,-0.015625 0.5625,-0.03125 0.84375,-0.03125 C 1.53125,-0.03125 1.8125,-0.015625 2.09375,0 V -0.25 C 1.375,-0.25 1.375,-0.5625 1.375,-0.75 v -3.515625 l 3.09375,4.15625 C 4.53125,0 4.546875,0 4.625,0 4.765625,0 4.765625,-0.0625 4.765625,-0.1875 V -4 c 0,-0.1875 0,-0.515625 0.71875,-0.515625 v -0.25 C 5.1875,-4.734375 4.90625,-4.734375 4.625,-4.734375 c -0.28125,0 -0.5625,0 -0.84375,-0.03125 v 0.25 C 4.5,-4.515625 4.5,-4.1875 4.5,-4 v 2.953125 z m 0,0"
           id="id-5b72589f-a5e7-41aa-9046-10220bca5788" />
      </symbol>
    </g>
  </defs>
  <g
     inkscape:label="Layer 1"
     inkscape:groupmode="layer"
     id="layer1"
     transform="translate(-26.254515,-30.171141)">
    <rect
       style="fill:#ff9600;fill-opacity:0.25;stroke:#0000ff;stroke-width:1;stroke-linecap:round;stroke-linejoin:round;stroke-miterlimit:4;stroke-dasharray:none;stroke-opacity:1"
       id="rect2064"
       width="62.318726"
       height="21.693228"
       x="55.613544"
       y="50.091633" />
    <path
       style="fill:none;stroke:#0000ff;stroke-width:0.75;stroke-linecap:butt;stroke-linejoin:miter;stroke-miterlimit:4;stroke-dasharray:none;stroke-opacity:1;marker-end:url(#bluearrow)"
       d="m 117.93226,50.091633 h 18.63646"
       id="path2330" />
    <path
       style="fill:none;stroke:#0000ff;stroke-width:0.75;stroke-linecap:butt;stroke-linejoin:miter;stroke-miterlimit:4;stroke-dasharray:none;stroke-opacity:1;marker-end:url(#bluearrow)"
       d="m 117.93226,57.322708 h 18.63646"
       id="path2422" />
    <path
       style="fill:none;stroke:#0000ff;stroke-width:0.75;stroke-linecap:butt;stroke-linejoin:miter;stroke-miterlimit:4;stroke-dasharray:none;stroke-opacity:1;marker-end:url(#bluearrow)"
       d="m 117.93226,64.553786 h 18.63646"
       id="path2424" />
    <path
       style="fill:none;stroke:#0000ff;stroke-width:0.75;stroke-linecap:butt;stroke-linejoin:miter;stroke-miterlimit:4;stroke-dasharray:none;stroke-opacity:1;marker-end:url(#bluearrow)"
       d="m 117.93227,71.784859 h 18.63646"
       id="path2426" />
    <g
       transform="matrix(0.705556,0,0,0.705556,85.487079,58.040721)"
       ns1:version="1.6.0"
       ns1:texconverter="pdflatex"
       ns1:pdfconverter="inkscape"
       ns1:text="$$\\Omega$$"
       ns1:preamble="C:\Users\meyer\Documents\inkscape_TexText_preamble.tex"
       ns1:scale="2.0"
       ns1:alignment="middle center"
       ns1:stroke-to-path="0"
       ns1:inkscapeversion="1.1"
       ns1:jacobian_sqrt="0.705556"
       id="g13523">
      <defs
         id="id-ce533177-31a2-4e7c-bc1e-19d48e52c7de">
        <g
           id="g1221">
          <symbol
             overflow="visible"
             id="symbol1215">
            <path
               style="stroke:none"
               d=""
               id="path1213" />
          </symbol>
          <symbol
             overflow="visible"
             id="symbol1219">
            <path
               style="stroke:none"
               d="M 6.75,-1.609375 H 6.5 c -0.046875,0.25 -0.09375,0.484375 -0.1875,0.71875 -0.046875,0.15625 -0.078125,0.25 -0.65625,0.25 H 4.859375 C 5,-1.203125 5.296875,-1.6875 5.75,-2.34375 c 0.46875,-0.703125 0.875,-1.390625 0.875,-2.1875 0,-1.375 -1.34375,-2.5 -3.03125,-2.5 -1.703125,0 -3.03125,1.140625 -3.03125,2.5 0,0.796875 0.40625,1.484375 0.875,2.1875 0.4375,0.65625 0.75,1.140625 0.890625,1.703125 H 1.53125 C 0.953125,-0.640625 0.921875,-0.734375 0.875,-0.875 0.78125,-1.109375 0.734375,-1.359375 0.6875,-1.609375 h -0.25 L 0.765625,0 h 1.59375 c 0.21875,0 0.25,0 0.25,-0.203125 0,-0.703125 -0.3125,-1.578125 -0.53125,-2.21875 -0.21875,-0.578125 -0.5,-1.359375 -0.5,-2.109375 0,-1.59375 1.109375,-2.28125 2.015625,-2.28125 0.953125,0 2.015625,0.71875 2.015625,2.28125 0,0.75 -0.28125,1.5 -0.5625,2.3125 -0.15625,0.421875 -0.46875,1.328125 -0.46875,2.015625 C 4.578125,0 4.609375,0 4.828125,0 h 1.59375 z m 0,0"
               id="path1217" />
          </symbol>
        </g>
      </defs>
      <g
         id="id-7e50fcf1-d786-499c-af32-22f27abedd07"
         transform="translate(-302.464,-139.689)">
        <g
           style="fill:#000000;fill-opacity:1"
           id="id-e74ce4d1-a01c-485b-b3e8-a23f3b46578c">
          <g
             transform="translate(302.026,146.72)"
             id="g13628">
            <path
               style="stroke:none"
               d="M 6.75,-1.609375 H 6.5 c -0.046875,0.25 -0.09375,0.484375 -0.1875,0.71875 -0.046875,0.15625 -0.078125,0.25 -0.65625,0.25 H 4.859375 C 5,-1.203125 5.296875,-1.6875 5.75,-2.34375 c 0.46875,-0.703125 0.875,-1.390625 0.875,-2.1875 0,-1.375 -1.34375,-2.5 -3.03125,-2.5 -1.703125,0 -3.03125,1.140625 -3.03125,2.5 0,0.796875 0.40625,1.484375 0.875,2.1875 0.4375,0.65625 0.75,1.140625 0.890625,1.703125 H 1.53125 C 0.953125,-0.640625 0.921875,-0.734375 0.875,-0.875 0.78125,-1.109375 0.734375,-1.359375 0.6875,-1.609375 h -0.25 L 0.765625,0 h 1.59375 c 0.21875,0 0.25,0 0.25,-0.203125 0,-0.703125 -0.3125,-1.578125 -0.53125,-2.21875 -0.21875,-0.578125 -0.5,-1.359375 -0.5,-2.109375 0,-1.59375 1.109375,-2.28125 2.015625,-2.28125 0.953125,0 2.015625,0.71875 2.015625,2.28125 0,0.75 -0.28125,1.5 -0.5625,2.3125 -0.15625,0.421875 -0.46875,1.328125 -0.46875,2.015625 C 4.578125,0 4.609375,0 4.828125,0 h 1.59375 z m 0,0"
               id="id-66e01e09-6004-4055-8f96-e81ddcc2c86f" />
          </g>
        </g>
      </g>
    </g>
    <g
       transform="matrix(0.705556,0,0,0.705556,98.061071,40.867944)"
       ns1:version="1.6.0"
       ns1:texconverter="pdflatex"
       ns1:pdfconverter="inkscape"
       ns1:text="$$\\color{blue}{\\Gamma_{\\mathrm{N}}}$$"
       ns1:preamble="C:\Users\meyer\Documents\inkscape_TexText_preamble.tex"
       ns1:scale="2.0"
       ns1:alignment="middle center"
       ns1:stroke-to-path="0"
       ns1:inkscapeversion="1.1"
       ns1:jacobian_sqrt="0.705556"
       id="g13994">
      <defs
         id="id-1d025e6f-ec7a-4ae4-a18f-3d96718a9352">
        <g
           id="g1461">
          <symbol
             overflow="visible"
             id="symbol1447">
            <path
               style="stroke:none"
               d=""
               id="path1445" />
          </symbol>
          <symbol
             overflow="visible"
             id="symbol1451">
            <path
               style="stroke:none"
               d="m 5.515625,-6.78125 h -5.1875 v 0.3125 H 0.5625 c 0.765625,0 0.796875,0.109375 0.796875,0.46875 v 5.21875 c 0,0.359375 -0.03125,0.46875 -0.796875,0.46875 H 0.328125 V 0 c 0.34375,-0.03125 1.125,-0.03125 1.515625,-0.03125 0.40625,0 1.3125,0 1.671875,0.03125 V -0.3125 H 3.1875 C 2.25,-0.3125 2.25,-0.4375 2.25,-0.78125 v -5.296875 c 0,-0.328125 0.015625,-0.390625 0.484375,-0.390625 h 1.03125 c 1.421875,0 1.625,0.59375 1.78125,1.9375 h 0.25 z m 0,0"
               id="path1449" />
          </symbol>
          <symbol
             overflow="visible"
             id="symbol1455">
            <path
               style="stroke:none"
               d=""
               id="path1453" />
          </symbol>
          <symbol
             overflow="visible"
             id="symbol1459">
            <path
               style="stroke:none"
               d="M 1.8125,-4.65625 C 1.734375,-4.75 1.734375,-4.765625 1.59375,-4.765625 H 0.390625 v 0.25 H 0.59375 c 0.3125,0 0.484375,0.046875 0.515625,0.046875 V -0.75 c 0,0.1875 0,0.5 -0.71875,0.5 V 0 c 0.28125,-0.015625 0.5625,-0.03125 0.84375,-0.03125 C 1.53125,-0.03125 1.8125,-0.015625 2.09375,0 V -0.25 C 1.375,-0.25 1.375,-0.5625 1.375,-0.75 v -3.515625 l 3.09375,4.15625 C 4.53125,0 4.546875,0 4.625,0 4.765625,0 4.765625,-0.0625 4.765625,-0.1875 V -4 c 0,-0.1875 0,-0.515625 0.71875,-0.515625 v -0.25 C 5.1875,-4.734375 4.90625,-4.734375 4.625,-4.734375 c -0.28125,0 -0.5625,0 -0.84375,-0.03125 v 0.25 C 4.5,-4.515625 4.5,-4.1875 4.5,-4 v 2.953125 z m 0,0"
               id="path1457" />
          </symbol>
        </g>
      </defs>
      <g
         id="id-7ffee171-19a0-4818-9757-1e480a28f5f9"
         transform="translate(-299.649,-139.939)">
        <g
           style="fill:#0000ff;fill-opacity:1"
           id="id-cf43df97-38e8-4b1e-a55b-2877ef43a41e">
          <g
             transform="translate(299.321,146.72)"
             id="g14318">
            <path
               style="stroke:none"
               d="m 5.515625,-6.78125 h -5.1875 v 0.3125 H 0.5625 c 0.765625,0 0.796875,0.109375 0.796875,0.46875 v 5.21875 c 0,0.359375 -0.03125,0.46875 -0.796875,0.46875 H 0.328125 V 0 c 0.34375,-0.03125 1.125,-0.03125 1.515625,-0.03125 0.40625,0 1.3125,0 1.671875,0.03125 V -0.3125 H 3.1875 C 2.25,-0.3125 2.25,-0.4375 2.25,-0.78125 v -5.296875 c 0,-0.328125 0.015625,-0.390625 0.484375,-0.390625 h 1.03125 c 1.421875,0 1.625,0.59375 1.78125,1.9375 h 0.25 z m 0,0"
               id="id-744c006f-f59b-4032-a5b7-815c6f276f29" />
          </g>
        </g>
        <g
           style="fill:#0000ff;fill-opacity:1"
           id="id-52740237-581c-4795-9ffa-2378b2e92f21">
          <g
             transform="translate(305.548,148.214)"
             id="g14322">
            <path
               style="stroke:none"
               d="M 1.8125,-4.65625 C 1.734375,-4.75 1.734375,-4.765625 1.59375,-4.765625 H 0.390625 v 0.25 H 0.59375 c 0.3125,0 0.484375,0.046875 0.515625,0.046875 V -0.75 c 0,0.1875 0,0.5 -0.71875,0.5 V 0 c 0.28125,-0.015625 0.5625,-0.03125 0.84375,-0.03125 C 1.53125,-0.03125 1.8125,-0.015625 2.09375,0 V -0.25 C 1.375,-0.25 1.375,-0.5625 1.375,-0.75 v -3.515625 l 3.09375,4.15625 C 4.53125,0 4.546875,0 4.625,0 4.765625,0 4.765625,-0.0625 4.765625,-0.1875 V -4 c 0,-0.1875 0,-0.515625 0.71875,-0.515625 v -0.25 C 5.1875,-4.734375 4.90625,-4.734375 4.625,-4.734375 c -0.28125,0 -0.5625,0 -0.84375,-0.03125 v 0.25 C 4.5,-4.515625 4.5,-4.1875 4.5,-4 v 2.953125 z m 0,0"
               id="id-4b4467eb-9a68-4018-9f34-f9911ea10bfa" />
          </g>
        </g>
      </g>
    </g>
    <g
       transform="matrix(0.705556,0,0,0.705556,142.527,58.5458)"
       ns1:version="1.6.0"
       ns1:texconverter="pdflatex"
       ns1:pdfconverter="inkscape"
       ns1:text="$$\\textcolor{blue}{F}$$"
       ns1:preamble="C:\Users\meyer\Documents\inkscape_TexText_preamble.tex"
       ns1:scale="2.0"
       ns1:alignment="middle center"
       ns1:stroke-to-path="0"
       ns1:inkscapeversion="1.1"
       ns1:jacobian_sqrt="0.705556"
       id="g1800">
      <defs
         id="id-6bc1044f-c361-45ad-9f5f-56f08feef4bc">
        <g
           id="id-1d41367d-5a5b-4d85-b5cc-25a680f5f4ba">
          <symbol
             overflow="visible"
             id="id-720e7e8f-376d-4ef2-abe3-90e4ab7c5442">
            <path
               style="stroke:none"
               d=""
               id="id-efacbf7e-4ff4-4c5c-ab0b-0406bb5a98d6" />
          </symbol>
          <symbol
             overflow="visible"
             id="id-c4f0379b-12dc-4ab1-af57-d4e4045cde8a">
            <path
               style="stroke:none"
               d="m 3.015625,-3.234375 h 0.96875 c 0.75,0 0.828125,0.15625 0.828125,0.4375 0,0.078125 0,0.1875 -0.0625,0.5 C 4.71875,-2.25 4.71875,-2.21875 4.71875,-2.1875 c 0,0.078125 0.0625,0.109375 0.109375,0.109375 0.109375,0 0.109375,-0.03125 0.15625,-0.203125 L 5.53125,-4.453125 C 5.5625,-4.5625 5.5625,-4.578125 5.5625,-4.609375 5.5625,-4.625 5.546875,-4.71875 5.4375,-4.71875 5.34375,-4.71875 5.328125,-4.671875 5.296875,-4.5 5.078125,-3.734375 4.859375,-3.546875 4,-3.546875 H 3.09375 l 0.640625,-2.53125 C 3.828125,-6.4375 3.84375,-6.46875 4.28125,-6.46875 h 1.3125 c 1.21875,0 1.453125,0.328125 1.453125,1.09375 0,0.234375 0,0.265625 -0.03125,0.546875 C 7,-4.703125 7,-4.6875 7,-4.65625 c 0,0.046875 0.03125,0.125 0.125,0.125 0.109375,0 0.109375,-0.0625 0.125,-0.25 L 7.453125,-6.515625 C 7.484375,-6.78125 7.4375,-6.78125 7.1875,-6.78125 H 2.296875 c -0.1875,0 -0.296875,0 -0.296875,0.203125 0,0.109375 0.09375,0.109375 0.28125,0.109375 0.375,0 0.65625,0 0.65625,0.171875 0,0.046875 0,0.0625 -0.0625,0.25 L 1.5625,-0.78125 c -0.09375,0.390625 -0.109375,0.46875 -0.90625,0.46875 -0.171875,0 -0.28125,0 -0.28125,0.1875 C 0.375,0 0.5,0 0.53125,0 0.8125,0 1.5625,-0.03125 1.84375,-0.03125 2.171875,-0.03125 3,0 3.328125,0 3.421875,0 3.53125,0 3.53125,-0.1875 3.53125,-0.265625 3.484375,-0.296875 3.484375,-0.296875 3.453125,-0.3125 3.421875,-0.3125 3.203125,-0.3125 c -0.21875,0 -0.265625,0 -0.515625,-0.015625 -0.296875,-0.03125 -0.328125,-0.078125 -0.328125,-0.203125 0,-0.015625 0,-0.078125 0.046875,-0.21875 z m 0,0"
               id="id-c9135010-0de5-4d80-9cef-24b30f8f96d2" />
          </symbol>
        </g>
      </defs>
      <g
         id="id-1a6ef2ae-d784-40fc-8eb9-58fdfd3187f9"
         transform="translate(-302.104,-139.939)">
        <g
           style="fill:#0000ff;fill-opacity:1"
           id="id-c2faa55b-a921-4b76-b439-7d24962d12c9">
          <g
             transform="translate(301.729,146.72)"
             id="g2345">
            <path
               style="stroke:none"
               d="m 3.015625,-3.234375 h 0.96875 c 0.75,0 0.828125,0.15625 0.828125,0.4375 0,0.078125 0,0.1875 -0.0625,0.5 C 4.71875,-2.25 4.71875,-2.21875 4.71875,-2.1875 c 0,0.078125 0.0625,0.109375 0.109375,0.109375 0.109375,0 0.109375,-0.03125 0.15625,-0.203125 L 5.53125,-4.453125 C 5.5625,-4.5625 5.5625,-4.578125 5.5625,-4.609375 5.5625,-4.625 5.546875,-4.71875 5.4375,-4.71875 5.34375,-4.71875 5.328125,-4.671875 5.296875,-4.5 5.078125,-3.734375 4.859375,-3.546875 4,-3.546875 H 3.09375 l 0.640625,-2.53125 C 3.828125,-6.4375 3.84375,-6.46875 4.28125,-6.46875 h 1.3125 c 1.21875,0 1.453125,0.328125 1.453125,1.09375 0,0.234375 0,0.265625 -0.03125,0.546875 C 7,-4.703125 7,-4.6875 7,-4.65625 c 0,0.046875 0.03125,0.125 0.125,0.125 0.109375,0 0.109375,-0.0625 0.125,-0.25 L 7.453125,-6.515625 C 7.484375,-6.78125 7.4375,-6.78125 7.1875,-6.78125 H 2.296875 c -0.1875,0 -0.296875,0 -0.296875,0.203125 0,0.109375 0.09375,0.109375 0.28125,0.109375 0.375,0 0.65625,0 0.65625,0.171875 0,0.046875 0,0.0625 -0.0625,0.25 L 1.5625,-0.78125 c -0.09375,0.390625 -0.109375,0.46875 -0.90625,0.46875 -0.171875,0 -0.28125,0 -0.28125,0.1875 C 0.375,0 0.5,0 0.53125,0 0.8125,0 1.5625,-0.03125 1.84375,-0.03125 2.171875,-0.03125 3,0 3.328125,0 3.421875,0 3.53125,0 3.53125,-0.1875 3.53125,-0.265625 3.484375,-0.296875 3.484375,-0.296875 3.453125,-0.3125 3.421875,-0.3125 3.203125,-0.3125 c -0.21875,0 -0.265625,0 -0.515625,-0.015625 -0.296875,-0.03125 -0.328125,-0.078125 -0.328125,-0.203125 0,-0.015625 0,-0.078125 0.046875,-0.21875 z m 0,0"
               id="id-822ae2ff-da1b-4d5b-8a24-f29f5624b5c5" />
          </g>
        </g>
      </g>
    </g>
    <path
       style="fill:none;stroke:#0000ff;stroke-width:0.75;stroke-linecap:butt;stroke-linejoin:miter;stroke-miterlimit:4;stroke-dasharray:none;stroke-opacity:1;marker-end:url(#bluearrow)"
       d="M 55.613554,71.784862 H 36.977094"
       id="path1531" />
    <path
       style="fill:none;stroke:#0000ff;stroke-width:0.75;stroke-linecap:butt;stroke-linejoin:miter;stroke-miterlimit:4;stroke-dasharray:none;stroke-opacity:1;marker-end:url(#bluearrow)"
       d="M 55.613554,64.553787 H 36.977094"
       id="path1533" />
    <path
       style="fill:none;stroke:#0000ff;stroke-width:0.75;stroke-linecap:butt;stroke-linejoin:miter;stroke-miterlimit:4;stroke-dasharray:none;stroke-opacity:1;marker-end:url(#bluearrow)"
       d="M 55.613554,57.322709 H 36.977094"
       id="path1535" />
    <path
       style="fill:none;stroke:#0000ff;stroke-width:0.75;stroke-linecap:butt;stroke-linejoin:miter;stroke-miterlimit:4;stroke-dasharray:none;stroke-opacity:1;marker-end:url(#bluearrow)"
       d="M 55.613544,50.091633 H 36.977084"
       id="path1537" />
    <g
       transform="matrix(0.705556,0,0,0.705556,28.039089,58.406351)"
       ns1:version="1.6.0"
       ns1:texconverter="pdflatex"
       ns1:pdfconverter="inkscape"
       ns1:text="$$\\textcolor{blue}{F}$$"
       ns1:preamble="C:\Users\meyer\Documents\inkscape_TexText_preamble.tex"
       ns1:scale="2.0"
       ns1:alignment="middle center"
       ns1:stroke-to-path="0"
       ns1:inkscapeversion="1.1"
       ns1:jacobian_sqrt="0.705556"
       id="g1559">
      <defs
         id="defs1549">
        <g
           id="g1547">
          <symbol
             overflow="visible"
             id="symbol1541">
            <path
               style="stroke:none"
               d=""
               id="path1539" />
          </symbol>
          <symbol
             overflow="visible"
             id="symbol1545">
            <path
               style="stroke:none"
               d="m 3.015625,-3.234375 h 0.96875 c 0.75,0 0.828125,0.15625 0.828125,0.4375 0,0.078125 0,0.1875 -0.0625,0.5 C 4.71875,-2.25 4.71875,-2.21875 4.71875,-2.1875 c 0,0.078125 0.0625,0.109375 0.109375,0.109375 0.109375,0 0.109375,-0.03125 0.15625,-0.203125 L 5.53125,-4.453125 C 5.5625,-4.5625 5.5625,-4.578125 5.5625,-4.609375 5.5625,-4.625 5.546875,-4.71875 5.4375,-4.71875 5.34375,-4.71875 5.328125,-4.671875 5.296875,-4.5 5.078125,-3.734375 4.859375,-3.546875 4,-3.546875 H 3.09375 l 0.640625,-2.53125 C 3.828125,-6.4375 3.84375,-6.46875 4.28125,-6.46875 h 1.3125 c 1.21875,0 1.453125,0.328125 1.453125,1.09375 0,0.234375 0,0.265625 -0.03125,0.546875 C 7,-4.703125 7,-4.6875 7,-4.65625 c 0,0.046875 0.03125,0.125 0.125,0.125 0.109375,0 0.109375,-0.0625 0.125,-0.25 L 7.453125,-6.515625 C 7.484375,-6.78125 7.4375,-6.78125 7.1875,-6.78125 H 2.296875 c -0.1875,0 -0.296875,0 -0.296875,0.203125 0,0.109375 0.09375,0.109375 0.28125,0.109375 0.375,0 0.65625,0 0.65625,0.171875 0,0.046875 0,0.0625 -0.0625,0.25 L 1.5625,-0.78125 c -0.09375,0.390625 -0.109375,0.46875 -0.90625,0.46875 -0.171875,0 -0.28125,0 -0.28125,0.1875 C 0.375,0 0.5,0 0.53125,0 0.8125,0 1.5625,-0.03125 1.84375,-0.03125 2.171875,-0.03125 3,0 3.328125,0 3.421875,0 3.53125,0 3.53125,-0.1875 3.53125,-0.265625 3.484375,-0.296875 3.484375,-0.296875 3.453125,-0.3125 3.421875,-0.3125 3.203125,-0.3125 c -0.21875,0 -0.265625,0 -0.515625,-0.015625 -0.296875,-0.03125 -0.328125,-0.078125 -0.328125,-0.203125 0,-0.015625 0,-0.078125 0.046875,-0.21875 z m 0,0"
               id="path1543" />
          </symbol>
        </g>
      </defs>
      <g
         id="g1557"
         transform="translate(-302.104,-139.939)">
        <g
           style="fill:#0000ff;fill-opacity:1"
           id="g1555">
          <g
             transform="translate(301.729,146.72)"
             id="g1553">
            <path
               style="stroke:none"
               d="m 3.015625,-3.234375 h 0.96875 c 0.75,0 0.828125,0.15625 0.828125,0.4375 0,0.078125 0,0.1875 -0.0625,0.5 C 4.71875,-2.25 4.71875,-2.21875 4.71875,-2.1875 c 0,0.078125 0.0625,0.109375 0.109375,0.109375 0.109375,0 0.109375,-0.03125 0.15625,-0.203125 L 5.53125,-4.453125 C 5.5625,-4.5625 5.5625,-4.578125 5.5625,-4.609375 5.5625,-4.625 5.546875,-4.71875 5.4375,-4.71875 5.34375,-4.71875 5.328125,-4.671875 5.296875,-4.5 5.078125,-3.734375 4.859375,-3.546875 4,-3.546875 H 3.09375 l 0.640625,-2.53125 C 3.828125,-6.4375 3.84375,-6.46875 4.28125,-6.46875 h 1.3125 c 1.21875,0 1.453125,0.328125 1.453125,1.09375 0,0.234375 0,0.265625 -0.03125,0.546875 C 7,-4.703125 7,-4.6875 7,-4.65625 c 0,0.046875 0.03125,0.125 0.125,0.125 0.109375,0 0.109375,-0.0625 0.125,-0.25 L 7.453125,-6.515625 C 7.484375,-6.78125 7.4375,-6.78125 7.1875,-6.78125 H 2.296875 c -0.1875,0 -0.296875,0 -0.296875,0.203125 0,0.109375 0.09375,0.109375 0.28125,0.109375 0.375,0 0.65625,0 0.65625,0.171875 0,0.046875 0,0.0625 -0.0625,0.25 L 1.5625,-0.78125 c -0.09375,0.390625 -0.109375,0.46875 -0.90625,0.46875 -0.171875,0 -0.28125,0 -0.28125,0.1875 C 0.375,0 0.5,0 0.53125,0 0.8125,0 1.5625,-0.03125 1.84375,-0.03125 2.171875,-0.03125 3,0 3.328125,0 3.421875,0 3.53125,0 3.53125,-0.1875 3.53125,-0.265625 3.484375,-0.296875 3.484375,-0.296875 3.453125,-0.3125 3.421875,-0.3125 3.203125,-0.3125 c -0.21875,0 -0.265625,0 -0.515625,-0.015625 -0.296875,-0.03125 -0.328125,-0.078125 -0.328125,-0.203125 0,-0.015625 0,-0.078125 0.046875,-0.21875 z m 0,0"
               id="path1551" />
          </g>
        </g>
      </g>
    </g>
  </g>
</svg>
