<?xml version="1.0" encoding="UTF-8" standalone="no"?>
<!-- Created with Inkscape (http://www.inkscape.org/) -->

<svg
   sodipodi:docname="Potato.svg"
   inkscape:version="1.1 (c68e22c387, 2021-05-23)"
   id="svg5"
   version="1.1"
   viewBox="0 0 139.33054 84.353737"
   height="84.353737mm"
   width="139.33054mm"
   xmlns:inkscape="http://www.inkscape.org/namespaces/inkscape"
   xmlns:sodipodi="http://sodipodi.sourceforge.net/DTD/sodipodi-0.dtd"
   xmlns="http://www.w3.org/2000/svg"
   xmlns:svg="http://www.w3.org/2000/svg"
   xmlns:ns1="http://www.iki.fi/pav/software/textext/">
  <sodipodi:namedview
     id="namedview7"
     pagecolor="#ffffff"
     bordercolor="#666666"
     borderopacity="1.0"
     inkscape:pageshadow="2"
     inkscape:pageopacity="0.0"
     inkscape:pagecheckerboard="0"
     inkscape:document-units="mm"
     showgrid="false"
     inkscape:object-paths="false"
     inkscape:zoom="2.6832492"
     inkscape:cx="272.61724"
     inkscape:cy="193.60855"
     inkscape:window-width="2560"
     inkscape:window-height="1377"
     inkscape:window-x="-8"
     inkscape:window-y="-8"
     inkscape:window-maximized="1"
     inkscape:current-layer="layer1"
     inkscape:snap-object-midpoints="true"
     fit-margin-top="10"
     fit-margin-left="10"
     fit-margin-right="10"
     fit-margin-bottom="10" />
  <defs
     id="defs2">
    <marker
       id="arrow"
       viewBox="0 0 10 10"
       refX="5"
       refY="5"
       markerWidth="4"
       markerHeight="4"
       stroke="none"
       fill="#0000ff"
       orient="auto-start-reverse">
      <path
         d="M 0 0 L 10 5 L 0 10 z"
         id="path1633" />
    </marker>
    <marker
       style="overflow:visible"
       id="TriangleOutM"
       refX="0"
       refY="0"
       orient="auto"
       inkscape:stockid="TriangleOutM"
       inkscape:isstock="true">
      <path
         transform="scale(0.4)"
         style="fill:context-stroke;fill-rule:evenodd;stroke:context-stroke;stroke-width:1pt"
         d="M 5.77,0 -2.88,5 V -5 Z"
         id="path7537" />
    </marker>
    <marker
       style="overflow:visible"
       id="Arrow2Mend"
       refX="0"
       refY="0"
       orient="auto"
       inkscape:stockid="Arrow2Mend"
       inkscape:isstock="true">
      <path
         transform="scale(-0.6)"
         d="M 8.7185878,4.0337352 -2.2072895,0.01601326 8.7185884,-4.0017078 c -1.7454984,2.3720609 -1.7354408,5.6174519 -6e-7,8.035443 z"
         style="fill:context-stroke;fill-rule:evenodd;stroke-width:0.625;stroke-linejoin:round"
         id="path7419" />
    </marker>
    <marker
       style="overflow:visible"
       id="Arrow2Send"
       refX="0"
       refY="0"
       orient="auto"
       inkscape:stockid="Arrow2Send"
       inkscape:isstock="true">
      <path
         transform="matrix(-0.3,0,0,-0.3,0.69,0)"
         d="M 8.7185878,4.0337352 -2.2072895,0.01601326 8.7185884,-4.0017078 c -1.7454984,2.3720609 -1.7354408,5.6174519 -6e-7,8.035443 z"
         style="fill:context-stroke;fill-rule:evenodd;stroke-width:0.625;stroke-linejoin:round"
         id="path7425" />
    </marker>
  </defs>
  <g
     inkscape:label="Layer 1"
     inkscape:groupmode="layer"
     id="layer1"
     transform="translate(-62.563374,-31.025337)">
    <path
       style="fill:#ff9600;fill-opacity:0.25;stroke:#0000ff;stroke-width:1;stroke-linecap:butt;stroke-linejoin:miter;stroke-miterlimit:4;stroke-dasharray:none;stroke-opacity:1"
       d="M 77.115487,61.078812 C 72.993485,67.369884 65.081697,85.005893 95.941148,89.247579 126.8006,93.489266 134.04945,85.730799 133.45302,71.816415 132.8566,57.902032 115.61204,50.821967 103.05306,49.365068 90.494084,47.908169 81.237488,54.787741 77.115487,61.078812 Z"
       id="path1128"
       sodipodi:nodetypes="zzzzz" />
    <path
       style="fill:none;fill-opacity:0.501961;stroke:#000000;stroke-width:1;stroke-linecap:round;stroke-linejoin:miter;stroke-miterlimit:4;stroke-dasharray:none;stroke-opacity:1"
       d="m 81.852488,85.350841 c 3.399341,1.6952 7.985832,3.057894 14.08866,3.896738 9.278302,1.275319 16.422242,1.465844 21.860322,0.730418"
       id="path3574"
       sodipodi:nodetypes="csc" />
    <path
       style="fill:none;stroke:#000000;stroke-width:0.75;stroke-linecap:round;stroke-linejoin:miter;stroke-miterlimit:4;stroke-dasharray:none;stroke-opacity:1"
       d="m 117.80147,89.977996 -3.73191,6.52095"
       id="path4867" />
    <path
       style="fill:none;stroke:#000000;stroke-width:0.75;stroke-linecap:round;stroke-linejoin:miter;stroke-miterlimit:4;stroke-dasharray:none;stroke-opacity:1"
       d="m 81.852488,85.350841 -3.73191,6.52095"
       id="path4949" />
    <path
       style="fill:none;stroke:#000000;stroke-width:0.75;stroke-linecap:round;stroke-linejoin:miter;stroke-miterlimit:4;stroke-dasharray:none;stroke-opacity:1"
       d="m 112.6659,90.373018 -3.73191,6.52095"
       id="path4953" />
    <path
       style="fill:none;stroke:#000000;stroke-width:0.75;stroke-linecap:round;stroke-linejoin:miter;stroke-miterlimit:4;stroke-dasharray:none;stroke-opacity:1"
       d="m 102.39477,90.005218 -3.731916,6.52095"
       id="path4955" />
    <path
       style="fill:none;stroke:#000000;stroke-width:0.75;stroke-linecap:round;stroke-linejoin:miter;stroke-miterlimit:4;stroke-dasharray:none;stroke-opacity:1"
       d="m 97.259192,89.36191 -3.73191,6.52095"
       id="path4957" />
    <path
       style="fill:none;stroke:#000000;stroke-width:0.75;stroke-linecap:round;stroke-linejoin:miter;stroke-miterlimit:4;stroke-dasharray:none;stroke-opacity:1"
       d="m 92.123621,88.541488 -3.73191,6.52095"
       id="path4959" />
    <path
       style="fill:none;stroke:#000000;stroke-width:0.75;stroke-linecap:round;stroke-linejoin:miter;stroke-miterlimit:4;stroke-dasharray:none;stroke-opacity:1"
       d="m 86.988062,87.331611 -3.73191,6.52095"
       id="path4961" />
    <path
       style="fill:none;stroke:#000000;stroke-width:0.75;stroke-linecap:round;stroke-linejoin:miter;stroke-miterlimit:4;stroke-dasharray:none;stroke-opacity:1"
       d="m 107.56249,90.339734 -3.73191,6.52095"
       id="path4963" />
    <path
       style="fill:none;stroke:#0000ff;stroke-width:0.75;stroke-linecap:round;stroke-linejoin:miter;stroke-miterlimit:4;stroke-dasharray:none;stroke-opacity:1;marker-end:url(#arrow)"
       d="m 133.45302,71.816415 2.96414,-0.968916"
       id="path5093" />
    <path
       style="fill:none;stroke:#0000ff;stroke-width:0.749999;stroke-linecap:round;stroke-linejoin:miter;stroke-miterlimit:4;stroke-dasharray:none;stroke-opacity:1;marker-end:url(#arrow)"
       d="m 131.92371,65.545172 7.18063,-4.431747"
       id="path7676" />
    <path
       style="fill:none;stroke:#0000ff;stroke-width:0.750003;stroke-linecap:round;stroke-linejoin:miter;stroke-miterlimit:4;stroke-dasharray:none;stroke-opacity:1;marker-end:url(#arrow)"
       d="M 124.74066,57.262281 137.12162,44.381229"
       id="path7678" />
    <path
       style="fill:none;stroke:#0000ff;stroke-width:0.750001;stroke-linecap:round;stroke-linejoin:miter;stroke-miterlimit:4;stroke-dasharray:none;stroke-opacity:1;marker-end:url(#arrow)"
       d="m 119.1042,53.936221 8.58612,-11.218894"
       id="path7680" />
    <path
       style="fill:none;stroke:#0000ff;stroke-width:0.749999;stroke-linecap:round;stroke-linejoin:miter;stroke-miterlimit:4;stroke-dasharray:none;stroke-opacity:1;marker-end:url(#arrow)"
       d="m 111.38363,51.036959 4.79492,-6.638814"
       id="path7682" />
    <path
       style="fill:none;stroke:#0000ff;stroke-width:0.75;stroke-linecap:round;stroke-linejoin:miter;stroke-miterlimit:4;stroke-dasharray:none;stroke-opacity:1;marker-end:url(#arrow)"
       d="m 103.05306,49.365068 1.16742,-2.47621"
       id="path7684" />
    <path
       style="fill:none;stroke:#0000ff;stroke-width:0.749999;stroke-linecap:round;stroke-linejoin:miter;stroke-miterlimit:4;stroke-dasharray:none;stroke-opacity:1;marker-end:url(#arrow)"
       d="m 128.87262,60.964551 9.66232,-7.615524"
       id="path7722" />
    <g
       transform="matrix(0.705556,0,0,0.705556,86.7066,63.0258)"
       ns1:version="1.6.0"
       ns1:texconverter="pdflatex"
       ns1:pdfconverter="inkscape"
       ns1:text="$$\\Omega$$"
       ns1:preamble="C:\Users\meyer\Documents\inkscape_TexText_preamble.tex"
       ns1:scale="2.0"
       ns1:alignment="middle center"
       ns1:stroke-to-path="0"
       ns1:inkscapeversion="1.1"
       ns1:jacobian_sqrt="0.705556"
       id="g13523">
      <defs
         id="id-ce533177-31a2-4e7c-bc1e-19d48e52c7de">
        <g
           id="id-51f4d00d-5bd0-4c7a-957a-e31b17a08b39">
          <symbol
             overflow="visible"
             id="id-41c1f6f8-a63b-49f9-8dea-a14f50e72c41">
            <path
               style="stroke:none"
               d=""
               id="id-761d4f9f-3998-4d59-8f29-885464b1cc65" />
          </symbol>
          <symbol
             overflow="visible"
             id="id-953f5095-deca-4d54-a403-77626de450a0">
            <path
               style="stroke:none"
               d="M 6.75,-1.609375 H 6.5 c -0.046875,0.25 -0.09375,0.484375 -0.1875,0.71875 -0.046875,0.15625 -0.078125,0.25 -0.65625,0.25 H 4.859375 C 5,-1.203125 5.296875,-1.6875 5.75,-2.34375 c 0.46875,-0.703125 0.875,-1.390625 0.875,-2.1875 0,-1.375 -1.34375,-2.5 -3.03125,-2.5 -1.703125,0 -3.03125,1.140625 -3.03125,2.5 0,0.796875 0.40625,1.484375 0.875,2.1875 0.4375,0.65625 0.75,1.140625 0.890625,1.703125 H 1.53125 C 0.953125,-0.640625 0.921875,-0.734375 0.875,-0.875 0.78125,-1.109375 0.734375,-1.359375 0.6875,-1.609375 h -0.25 L 0.765625,0 h 1.59375 c 0.21875,0 0.25,0 0.25,-0.203125 0,-0.703125 -0.3125,-1.578125 -0.53125,-2.21875 -0.21875,-0.578125 -0.5,-1.359375 -0.5,-2.109375 0,-1.59375 1.109375,-2.28125 2.015625,-2.28125 0.953125,0 2.015625,0.71875 2.015625,2.28125 0,0.75 -0.28125,1.5 -0.5625,2.3125 -0.15625,0.421875 -0.46875,1.328125 -0.46875,2.015625 C 4.578125,0 4.609375,0 4.828125,0 h 1.59375 z m 0,0"
               id="id-1fc35e8e-7b5f-49c3-8344-ec4f7e82ccfd" />
          </symbol>
        </g>
      </defs>
      <g
         id="id-7e50fcf1-d786-499c-af32-22f27abedd07"
         transform="translate(-302.464,-139.689)">
        <g
           style="fill:#000000;fill-opacity:1"
           id="id-e74ce4d1-a01c-485b-b3e8-a23f3b46578c">
          <g
             transform="translate(302.026,146.72)"
             id="g13628">
            <path
               style="stroke:none"
               d="M 6.75,-1.609375 H 6.5 c -0.046875,0.25 -0.09375,0.484375 -0.1875,0.71875 -0.046875,0.15625 -0.078125,0.25 -0.65625,0.25 H 4.859375 C 5,-1.203125 5.296875,-1.6875 5.75,-2.34375 c 0.46875,-0.703125 0.875,-1.390625 0.875,-2.1875 0,-1.375 -1.34375,-2.5 -3.03125,-2.5 -1.703125,0 -3.03125,1.140625 -3.03125,2.5 0,0.796875 0.40625,1.484375 0.875,2.1875 0.4375,0.65625 0.75,1.140625 0.890625,1.703125 H 1.53125 C 0.953125,-0.640625 0.921875,-0.734375 0.875,-0.875 0.78125,-1.109375 0.734375,-1.359375 0.6875,-1.609375 h -0.25 L 0.765625,0 h 1.59375 c 0.21875,0 0.25,0 0.25,-0.203125 0,-0.703125 -0.3125,-1.578125 -0.53125,-2.21875 -0.21875,-0.578125 -0.5,-1.359375 -0.5,-2.109375 0,-1.59375 1.109375,-2.28125 2.015625,-2.28125 0.953125,0 2.015625,0.71875 2.015625,2.28125 0,0.75 -0.28125,1.5 -0.5625,2.3125 -0.15625,0.421875 -0.46875,1.328125 -0.46875,2.015625 C 4.578125,0 4.609375,0 4.828125,0 h 1.59375 z m 0,0"
               id="id-66e01e09-6004-4055-8f96-e81ddcc2c86f" />
          </g>
        </g>
      </g>
    </g>
    <rect
       style="fill:#00c800;fill-opacity:1;stroke:none;stroke-width:0.750002;stroke-linecap:round;stroke-linejoin:round;stroke-miterlimit:4;stroke-dasharray:none;stroke-opacity:1"
       id="rect13766"
       width="4.462379"
       height="4.462379"
       x="110.72279"
       y="71.258614" />
    <g
       transform="matrix(0.705556,0,0,0.705556,77.2478,43.6215)"
       ns1:version="1.6.0"
       ns1:texconverter="pdflatex"
       ns1:pdfconverter="inkscape"
       ns1:text="$$\\color{blue}{\\Gamma_{\\mathrm{N}}}$$"
       ns1:preamble="C:\Users\meyer\Documents\inkscape_TexText_preamble.tex"
       ns1:scale="2.0"
       ns1:alignment="middle center"
       ns1:stroke-to-path="0"
       ns1:inkscapeversion="1.1"
       ns1:jacobian_sqrt="0.705556"
       id="g13994">
      <defs
         id="id-1d025e6f-ec7a-4ae4-a18f-3d96718a9352">
        <g
           id="id-58892108-78dd-4164-810b-466584ad2ad3">
          <symbol
             overflow="visible"
             id="id-1c6416b8-407f-4ec4-aa9b-5cff01558079">
            <path
               style="stroke:none"
               d=""
               id="id-a7c7f473-95a5-4c16-bfe1-ac68cc743252" />
          </symbol>
          <symbol
             overflow="visible"
             id="id-f608b1b6-702a-412d-b62d-8bcb1408811a">
            <path
               style="stroke:none"
               d="m 5.515625,-6.78125 h -5.1875 v 0.3125 H 0.5625 c 0.765625,0 0.796875,0.109375 0.796875,0.46875 v 5.21875 c 0,0.359375 -0.03125,0.46875 -0.796875,0.46875 H 0.328125 V 0 c 0.34375,-0.03125 1.125,-0.03125 1.515625,-0.03125 0.40625,0 1.3125,0 1.671875,0.03125 V -0.3125 H 3.1875 C 2.25,-0.3125 2.25,-0.4375 2.25,-0.78125 v -5.296875 c 0,-0.328125 0.015625,-0.390625 0.484375,-0.390625 h 1.03125 c 1.421875,0 1.625,0.59375 1.78125,1.9375 h 0.25 z m 0,0"
               id="id-592b0b80-ee12-4898-afaa-d77a24de8035" />
          </symbol>
          <symbol
             overflow="visible"
             id="id-0ddf0c6c-b112-408e-88e6-c82b2f6be7f0">
            <path
               style="stroke:none"
               d=""
               id="id-9a1d005c-01fc-4ccd-a9a0-9d65ca695a1c" />
          </symbol>
          <symbol
             overflow="visible"
             id="id-46dd8285-5d46-43e6-bd9a-cb3741bc3aa8">
            <path
               style="stroke:none"
               d="M 1.8125,-4.65625 C 1.734375,-4.75 1.734375,-4.765625 1.59375,-4.765625 H 0.390625 v 0.25 H 0.59375 c 0.3125,0 0.484375,0.046875 0.515625,0.046875 V -0.75 c 0,0.1875 0,0.5 -0.71875,0.5 V 0 c 0.28125,-0.015625 0.5625,-0.03125 0.84375,-0.03125 C 1.53125,-0.03125 1.8125,-0.015625 2.09375,0 V -0.25 C 1.375,-0.25 1.375,-0.5625 1.375,-0.75 v -3.515625 l 3.09375,4.15625 C 4.53125,0 4.546875,0 4.625,0 4.765625,0 4.765625,-0.0625 4.765625,-0.1875 V -4 c 0,-0.1875 0,-0.515625 0.71875,-0.515625 v -0.25 C 5.1875,-4.734375 4.90625,-4.734375 4.625,-4.734375 c -0.28125,0 -0.5625,0 -0.84375,-0.03125 v 0.25 C 4.5,-4.515625 4.5,-4.1875 4.5,-4 v 2.953125 z m 0,0"
               id="id-5b72589f-a5e7-41aa-9046-10220bca5788" />
          </symbol>
        </g>
      </defs>
      <g
         id="id-7ffee171-19a0-4818-9757-1e480a28f5f9"
         transform="translate(-299.649,-139.939)">
        <g
           style="fill:#0000ff;fill-opacity:1"
           id="id-cf43df97-38e8-4b1e-a55b-2877ef43a41e">
          <g
             transform="translate(299.321,146.72)"
             id="g14318">
            <path
               style="stroke:none"
               d="m 5.515625,-6.78125 h -5.1875 v 0.3125 H 0.5625 c 0.765625,0 0.796875,0.109375 0.796875,0.46875 v 5.21875 c 0,0.359375 -0.03125,0.46875 -0.796875,0.46875 H 0.328125 V 0 c 0.34375,-0.03125 1.125,-0.03125 1.515625,-0.03125 0.40625,0 1.3125,0 1.671875,0.03125 V -0.3125 H 3.1875 C 2.25,-0.3125 2.25,-0.4375 2.25,-0.78125 v -5.296875 c 0,-0.328125 0.015625,-0.390625 0.484375,-0.390625 h 1.03125 c 1.421875,0 1.625,0.59375 1.78125,1.9375 h 0.25 z m 0,0"
               id="id-744c006f-f59b-4032-a5b7-815c6f276f29" />
          </g>
        </g>
        <g
           style="fill:#0000ff;fill-opacity:1"
           id="id-52740237-581c-4795-9ffa-2378b2e92f21">
          <g
             transform="translate(305.548,148.214)"
             id="g14322">
            <path
               style="stroke:none"
               d="M 1.8125,-4.65625 C 1.734375,-4.75 1.734375,-4.765625 1.59375,-4.765625 H 0.390625 v 0.25 H 0.59375 c 0.3125,0 0.484375,0.046875 0.515625,0.046875 V -0.75 c 0,0.1875 0,0.5 -0.71875,0.5 V 0 c 0.28125,-0.015625 0.5625,-0.03125 0.84375,-0.03125 C 1.53125,-0.03125 1.8125,-0.015625 2.09375,0 V -0.25 C 1.375,-0.25 1.375,-0.5625 1.375,-0.75 v -3.515625 l 3.09375,4.15625 C 4.53125,0 4.546875,0 4.625,0 4.765625,0 4.765625,-0.0625 4.765625,-0.1875 V -4 c 0,-0.1875 0,-0.515625 0.71875,-0.515625 v -0.25 C 5.1875,-4.734375 4.90625,-4.734375 4.625,-4.734375 c -0.28125,0 -0.5625,0 -0.84375,-0.03125 v 0.25 C 4.5,-4.515625 4.5,-4.1875 4.5,-4 v 2.953125 z m 0,0"
               id="id-4b4467eb-9a68-4018-9f34-f9911ea10bfa" />
          </g>
        </g>
      </g>
    </g>
    <g
       transform="matrix(0.705556,0,0,0.705556,110.013,99.5406)"
       ns1:version="1.6.0"
       ns1:texconverter="pdflatex"
       ns1:pdfconverter="inkscape"
       ns1:text="$$\\Gamma_{\\mathrm{D}}$$"
       ns1:preamble="C:\Users\meyer\Documents\inkscape_TexText_preamble.tex"
       ns1:scale="2.0"
       ns1:alignment="middle center"
       ns1:stroke-to-path="0"
       ns1:inkscapeversion="1.1"
       ns1:jacobian_sqrt="0.705556"
       id="g14175">
      <defs
         id="id-6b34934a-642b-4759-b38a-67eb112488af">
        <g
           id="id-8f2fda3a-54f6-4fb0-b26a-a02d4435dd1e">
          <symbol
             overflow="visible"
             id="id-766319f0-c5ba-4c6a-a261-9b1b7324e95c">
            <path
               style="stroke:none"
               d=""
               id="id-551fdccb-d479-48d4-a29e-13a838ef1386" />
          </symbol>
          <symbol
             overflow="visible"
             id="id-ac2ca26c-95e6-431d-b1e9-01783b52de0b">
            <path
               style="stroke:none"
               d="m 5.515625,-6.78125 h -5.1875 v 0.3125 H 0.5625 c 0.765625,0 0.796875,0.109375 0.796875,0.46875 v 5.21875 c 0,0.359375 -0.03125,0.46875 -0.796875,0.46875 H 0.328125 V 0 c 0.34375,-0.03125 1.125,-0.03125 1.515625,-0.03125 0.40625,0 1.3125,0 1.671875,0.03125 V -0.3125 H 3.1875 C 2.25,-0.3125 2.25,-0.4375 2.25,-0.78125 v -5.296875 c 0,-0.328125 0.015625,-0.390625 0.484375,-0.390625 h 1.03125 c 1.421875,0 1.625,0.59375 1.78125,1.9375 h 0.25 z m 0,0"
               id="id-13b63110-185f-4a48-b2c0-2f180bb877a7" />
          </symbol>
          <symbol
             overflow="visible"
             id="id-d758aa44-cf5d-4901-8c38-8ce6f76277b9">
            <path
               style="stroke:none"
               d=""
               id="id-727236a1-eebd-4791-8352-8fc1326d5d70" />
          </symbol>
          <symbol
             overflow="visible"
             id="id-be78ab6c-2def-4408-8165-241f06c1439b">
            <path
               style="stroke:none"
               d="m 0.40625,-4.765625 v 0.25 h 0.171875 c 0.53125,0 0.546875,0.078125 0.546875,0.328125 v 3.625 c 0,0.234375 -0.015625,0.3125 -0.546875,0.3125 H 0.40625 V 0 h 2.75 C 4.4375,0 5.5,-1.03125 5.5,-2.34375 5.5,-3.671875 4.453125,-4.765625 3.15625,-4.765625 Z M 2.09375,-0.25 C 1.765625,-0.25 1.75,-0.3125 1.75,-0.515625 v -3.71875 c 0,-0.21875 0.015625,-0.28125 0.34375,-0.28125 h 0.859375 c 0.59375,0 1.109375,0.25 1.4375,0.65625 0.28125,0.375 0.390625,0.90625 0.390625,1.515625 0,0.8125 -0.203125,1.234375 -0.453125,1.515625 C 4.015625,-0.46875 3.515625,-0.25 2.96875,-0.25 Z m 0,0"
               id="id-6d99dab3-d996-4d23-82ef-4dfe46136309" />
          </symbol>
        </g>
      </defs>
      <g
         id="id-d9946c0b-98bc-42c5-b0f3-46baf1fffb2b"
         transform="translate(-299.59,-139.939)">
        <g
           style="fill:#000000;fill-opacity:1"
           id="id-d11f88f2-0fa0-4944-b5e9-d3a5ae601fe0">
          <g
             transform="translate(299.262,146.72)"
             id="g14581">
            <path
               style="stroke:none"
               d="m 5.515625,-6.78125 h -5.1875 v 0.3125 H 0.5625 c 0.765625,0 0.796875,0.109375 0.796875,0.46875 v 5.21875 c 0,0.359375 -0.03125,0.46875 -0.796875,0.46875 H 0.328125 V 0 c 0.34375,-0.03125 1.125,-0.03125 1.515625,-0.03125 0.40625,0 1.3125,0 1.671875,0.03125 V -0.3125 H 3.1875 C 2.25,-0.3125 2.25,-0.4375 2.25,-0.78125 v -5.296875 c 0,-0.328125 0.015625,-0.390625 0.484375,-0.390625 h 1.03125 c 1.421875,0 1.625,0.59375 1.78125,1.9375 h 0.25 z m 0,0"
               id="id-41e430b7-1081-410e-b784-4712664f9dca" />
          </g>
        </g>
        <g
           style="fill:#000000;fill-opacity:1"
           id="id-d38d898d-4954-4c01-8d0d-e9ae93b9fa3f">
          <g
             transform="translate(305.489,148.214)"
             id="g14585">
            <path
               style="stroke:none"
               d="m 0.40625,-4.765625 v 0.25 h 0.171875 c 0.53125,0 0.546875,0.078125 0.546875,0.328125 v 3.625 c 0,0.234375 -0.015625,0.3125 -0.546875,0.3125 H 0.40625 V 0 h 2.75 C 4.4375,0 5.5,-1.03125 5.5,-2.34375 5.5,-3.671875 4.453125,-4.765625 3.15625,-4.765625 Z M 2.09375,-0.25 C 1.765625,-0.25 1.75,-0.3125 1.75,-0.515625 v -3.71875 c 0,-0.21875 0.015625,-0.28125 0.34375,-0.28125 h 0.859375 c 0.59375,0 1.109375,0.25 1.4375,0.65625 0.28125,0.375 0.390625,0.90625 0.390625,1.515625 0,0.8125 -0.203125,1.234375 -0.453125,1.515625 C 4.015625,-0.46875 3.515625,-0.25 2.96875,-0.25 Z m 0,0"
               id="id-405f4363-12fd-4c16-9efb-12de0d9fd024" />
          </g>
        </g>
      </g>
    </g>
    <g
       transform="matrix(0.705556 0 0 0.705556 149.631 67.7012)"
       ns1:version="1.6.0"
       ns1:texconverter="pdflatex"
       ns1:pdfconverter="inkscape"
       ns1:text="\\definecolor{darkgreen}{RGB}{0,200,0}\n$$\\textcolor{darkgreen}{\\ts{\\sigma}\\cdot \\tv{\\nabla} + \\tv{b} = \\tv{0}}$$"
       ns1:preamble="C:\Users\meyer\Documents\inkscape_TexText_preamble.tex"
       ns1:scale="2.0"
       ns1:alignment="middle center"
       ns1:stroke-to-path="0"
       ns1:inkscapeversion="1.1"
       ns1:jacobian_sqrt="0.705556"
       id="g15961">
      <defs
         id="id-0da0b465-ebef-439f-8e76-b7c1e97aab89">
        <g
           id="id-8efc142f-3a58-4077-b3f7-e6576ac1c2ee">
          <symbol
             overflow="visible"
             id="id-8de44e3a-cf67-4a67-9bd0-cdfacfdab0ed">
            <path
               style="stroke:none"
               d=""
               id="id-663d59f2-f0cf-42b6-87f0-c52dc4d8c9ad" />
          </symbol>
          <symbol
             overflow="visible"
             id="id-bcd160c2-1a6d-48c9-880a-c1de4c394a68">
            <path
               style="stroke:none"
               d="m 3.375,-4.421875 c -2.046875,0 -2.953125,1.875 -2.953125,2.921875 0,1.078125 0.796875,1.578125 1.875,1.578125 1.8125,0 2.875,-1.375 2.875,-2.796875 0,-0.234375 -0.03125,-0.515625 -0.140625,-0.75 h 0.953125 c 0.203125,0 0.359375,0 0.5,-0.15625 C 6.5625,-3.6875 6.6875,-3.8125 6.6875,-4.03125 c 0,-0.390625 -0.34375,-0.390625 -0.53125,-0.390625 z M 2.3125,-0.28125 c -0.859375,0 -0.859375,-0.703125 -0.859375,-0.859375 0,-0.375 0.21875,-1.328125 0.4375,-1.6875 0.203125,-0.34375 0.53125,-0.640625 1.296875,-0.640625 0.8125,0 0.90625,0.34375 0.90625,0.703125 0,0.296875 -0.203125,1.296875 -0.515625,1.78125 C 3.171875,-0.375 2.59375,-0.28125 2.3125,-0.28125 Z m 0,0"
               id="id-c6da8146-ba98-4a8a-bc3a-8bed6a6e63f3" />
          </symbol>
          <symbol
             overflow="visible"
             id="id-30ce348d-eafc-4531-8a78-2c654c1ea2e6">
            <path
               style="stroke:none"
               d="M 2.796875,-6.5625 C 2.84375,-6.703125 2.84375,-6.734375 2.84375,-6.734375 c 0,-0.140625 -0.109375,-0.1875 -0.21875,-0.1875 -0.046875,0 -0.046875,0 -0.078125,0.015625 l -1.28125,0.0625 c -0.140625,0 -0.3125,0.015625 -0.3125,0.296875 0,0.171875 0.1875,0.171875 0.25,0.171875 0.109375,0 0.296875,0 0.421875,0.03125 -0.078125,0.328125 -0.171875,0.765625 -0.28125,1.140625 l -0.6875,2.75 c -0.140625,0.5625 -0.140625,0.671875 -0.140625,0.90625 0,1.28125 0.953125,1.625 1.703125,1.625 1.796875,0 2.828125,-1.625 2.828125,-2.9375 C 5.046875,-4.09375 4.125,-4.5 3.296875,-4.5 c -0.46875,0 -0.875,0.1875 -1.078125,0.3125 z m -0.5625,6.28125 c -0.390625,0 -0.71875,-0.203125 -0.71875,-0.828125 0,-0.3125 0.09375,-0.6875 0.171875,-1 0.09375,-0.375 0.265625,-1.0625 0.34375,-1.359375 0.046875,-0.171875 0.609375,-0.671875 1.21875,-0.671875 0.625,0 0.671875,0.53125 0.671875,0.75 0,0.515625 -0.34375,1.75 -0.5,2.140625 -0.34375,0.796875 -0.90625,0.96875 -1.1875,0.96875 z m 0,0"
               id="id-c664e340-6a4d-4ea2-b726-5c339f093bca" />
          </symbol>
          <symbol
             overflow="visible"
             id="id-11c0644b-7aa8-4cd2-909a-34f8bec1a723">
            <path
               style="stroke:none"
               d=""
               id="id-2f4c7dfe-8c2c-4d90-a8ce-e378f2ddbfcd" />
          </symbol>
          <symbol
             overflow="visible"
             id="id-2bb4ee14-9823-4021-b8f5-9121d99db8e2">
            <path
               style="stroke:none"
               d="m 1.90625,-2.5 c 0,-0.28125 -0.234375,-0.515625 -0.515625,-0.515625 -0.296875,0 -0.53125,0.234375 -0.53125,0.515625 0,0.296875 0.234375,0.53125 0.53125,0.53125 0.28125,0 0.515625,-0.234375 0.515625,-0.53125 z m 0,0"
               id="id-1f95489b-f3fe-4de6-b1c7-35bde5a2eed9" />
          </symbol>
          <symbol
             overflow="visible"
             id="id-ffa432cc-0000-451c-907d-f3ac3028ab23">
            <path
               style="stroke:none"
               d=""
               id="id-a4118300-8c72-4ede-ab8f-3d96a11a05f7" />
          </symbol>
          <symbol
             overflow="visible"
             id="id-17532c5b-a04b-49fe-ac82-da30d9c5bacd">
            <path
               style="stroke:none"
               d="m 8.90625,-6.546875 c 0.0625,-0.125 0.0625,-0.15625 0.0625,-0.171875 0,-0.125 -0.09375,-0.125 -0.28125,-0.125 H 0.84375 c -0.21875,0 -0.25,0 -0.28125,0.140625 l 3.75,6.6875 C 4.4375,0.203125 4.5,0.25 4.765625,0.25 5.0625,0.25 5.109375,0.171875 5.21875,-0.015625 Z M 2.734375,-5.65625 h 5.0625 l -2.53125,4.484375 z m 0,0"
               id="id-248c596a-447c-4ea3-9427-8cd3a1b22039" />
          </symbol>
          <symbol
             overflow="visible"
             id="id-7f34fb23-c772-451c-b658-350722578fa6">
            <path
               style="stroke:none"
               d=""
               id="id-0c30988d-db23-46bd-94f4-ccc40d4af664" />
          </symbol>
          <symbol
             overflow="visible"
             id="id-cd5ca9e3-cd26-4d75-8060-314a3b14a903">
            <path
               style="stroke:none"
               d="m 4.078125,-2.296875 h 2.78125 C 7,-2.296875 7.1875,-2.296875 7.1875,-2.5 7.1875,-2.6875 7,-2.6875 6.859375,-2.6875 h -2.78125 v -2.796875 c 0,-0.140625 0,-0.328125 -0.203125,-0.328125 -0.203125,0 -0.203125,0.1875 -0.203125,0.328125 V -2.6875 h -2.78125 c -0.140625,0 -0.328125,0 -0.328125,0.1875 0,0.203125 0.1875,0.203125 0.328125,0.203125 h 2.78125 V 0.5 c 0,0.140625 0,0.328125 0.203125,0.328125 0.203125,0 0.203125,-0.1875 0.203125,-0.328125 z m 0,0"
               id="id-8a511a07-11ff-419d-bf47-f3921d632dd3" />
          </symbol>
          <symbol
             overflow="visible"
             id="id-8de133e7-da41-41e0-bf45-7c1e39bb8500">
            <path
               style="stroke:none"
               d="m 6.84375,-3.265625 c 0.15625,0 0.34375,0 0.34375,-0.1875 C 7.1875,-3.65625 7,-3.65625 6.859375,-3.65625 h -5.96875 c -0.140625,0 -0.328125,0 -0.328125,0.203125 0,0.1875 0.1875,0.1875 0.328125,0.1875 z m 0.015625,1.9375 c 0.140625,0 0.328125,0 0.328125,-0.203125 0,-0.1875 -0.1875,-0.1875 -0.34375,-0.1875 H 0.890625 c -0.140625,0 -0.328125,0 -0.328125,0.1875 0,0.203125 0.1875,0.203125 0.328125,0.203125 z m 0,0"
               id="id-10a4fa8c-62ce-4296-9224-9ffea481a4ed" />
          </symbol>
          <symbol
             overflow="visible"
             id="id-08d58943-e2f7-4280-90e3-dd9bc727c3ac">
            <path
               style="stroke:none"
               d=""
               id="id-152e5b8c-4b04-4565-a536-5d38d179ed47" />
          </symbol>
          <symbol
             overflow="visible"
             id="id-a2cdfd71-f4c7-4a65-a9ba-219e03e6e67b">
            <path
               style="stroke:none"
               d="m 5.28125,-3.1875 c 0,-0.953125 -0.015625,-3.34375 -2.421875,-3.34375 -2.40625,0 -2.40625,2.375 -2.40625,3.34375 0,1 0,3.296875 2.40625,3.296875 C 5.25,0.109375 5.28125,-2.1875 5.28125,-3.1875 Z M 2.859375,-0.25 C 2.5,-0.25 1.9375,-0.46875 1.8125,-1.203125 1.71875,-1.71875 1.71875,-2.75 1.71875,-3.296875 c 0,-0.71875 0,-1.375 0.078125,-1.890625 0.125,-0.890625 0.828125,-0.984375 1.0625,-0.984375 0.375,0 0.78125,0.1875 0.96875,0.625 C 4,-5.171875 4,-4.109375 4,-3.296875 4,-2.734375 4,-1.828125 3.921875,-1.3125 3.78125,-0.390625 3.15625,-0.25 2.859375,-0.25 Z m 0,0"
               id="id-c069757f-02d4-42c5-9fa0-d2b66438c223" />
          </symbol>
        </g>
      </defs>
      <g
         id="id-e3bc786c-9b24-4680-9248-84bb2e0a1dcb"
         transform="translate(-275.885, -139.798)">
        <g
           style="fill:#00c700;fill-opacity:1"
           id="id-1272f446-12e1-436b-bc8f-5fdc335a2649">
          <g
             transform="translate(275.463, 146.72)"
             id="g16612">
            <path
               style="stroke:none"
               d="m 3.375,-4.421875 c -2.046875,0 -2.953125,1.875 -2.953125,2.921875 0,1.078125 0.796875,1.578125 1.875,1.578125 1.8125,0 2.875,-1.375 2.875,-2.796875 0,-0.234375 -0.03125,-0.515625 -0.140625,-0.75 h 0.953125 c 0.203125,0 0.359375,0 0.5,-0.15625 C 6.5625,-3.6875 6.6875,-3.8125 6.6875,-4.03125 c 0,-0.390625 -0.34375,-0.390625 -0.53125,-0.390625 z M 2.3125,-0.28125 c -0.859375,0 -0.859375,-0.703125 -0.859375,-0.859375 0,-0.375 0.21875,-1.328125 0.4375,-1.6875 0.203125,-0.34375 0.53125,-0.640625 1.296875,-0.640625 0.8125,0 0.90625,0.34375 0.90625,0.703125 0,0.296875 -0.203125,1.296875 -0.515625,1.78125 C 3.171875,-0.375 2.59375,-0.28125 2.3125,-0.28125 Z m 0,0"
               id="id-e04fa26f-c252-475e-92ec-c3efa63655ed" />
          </g>
        </g>
        <g
           style="fill:#00c700;fill-opacity:1"
           id="id-51815a5c-f551-4ccc-b5ff-c08cd8c0bbbd">
          <g
             transform="translate(284.879, 146.72)"
             id="g16616">
            <path
               style="stroke:none"
               d="m 1.90625,-2.5 c 0,-0.28125 -0.234375,-0.515625 -0.515625,-0.515625 -0.296875,0 -0.53125,0.234375 -0.53125,0.515625 0,0.296875 0.234375,0.53125 0.53125,0.53125 0.28125,0 0.515625,-0.234375 0.515625,-0.53125 z m 0,0"
               id="id-6365808c-8d5e-40c8-af67-ac5e024f8862" />
          </g>
        </g>
        <g
           style="fill:#00c700;fill-opacity:1"
           id="id-e9647316-dec6-4412-a10f-41d92366b902">
          <g
             transform="translate(289.86, 146.72)"
             id="g16620">
            <path
               style="stroke:none"
               d="m 8.90625,-6.546875 c 0.0625,-0.125 0.0625,-0.15625 0.0625,-0.171875 0,-0.125 -0.09375,-0.125 -0.28125,-0.125 H 0.84375 c -0.21875,0 -0.25,0 -0.28125,0.140625 l 3.75,6.6875 C 4.4375,0.203125 4.5,0.25 4.765625,0.25 5.0625,0.25 5.109375,0.171875 5.21875,-0.015625 Z M 2.734375,-5.65625 h 5.0625 l -2.53125,4.484375 z m 0,0"
               id="id-5f5072a4-cc86-445f-bd17-3f64e800112c" />
          </g>
        </g>
        <path
           style="fill:none;stroke:#00c700;stroke-width:0.398;stroke-linecap:butt;stroke-linejoin:miter;stroke-miterlimit:10;stroke-opacity:1"
           d="M -6.25e-4,7.1875e-4 H 9.54625"
           transform="matrix(1 0 0 -1 289.86 148.114)"
           id="id-c413f349-f52a-4255-a9ef-4905a6b42f3d" />
        <g
           style="fill:#00c700;fill-opacity:1"
           id="id-3790b591-10b7-4c10-b86e-57498bfe39cd">
          <g
             transform="translate(301.622, 146.72)"
             id="g16625">
            <path
               style="stroke:none"
               d="m 4.078125,-2.296875 h 2.78125 C 7,-2.296875 7.1875,-2.296875 7.1875,-2.5 7.1875,-2.6875 7,-2.6875 6.859375,-2.6875 h -2.78125 v -2.796875 c 0,-0.140625 0,-0.328125 -0.203125,-0.328125 -0.203125,0 -0.203125,0.1875 -0.203125,0.328125 V -2.6875 h -2.78125 c -0.140625,0 -0.328125,0 -0.328125,0.1875 0,0.203125 0.1875,0.203125 0.328125,0.203125 h 2.78125 V 0.5 c 0,0.140625 0,0.328125 0.203125,0.328125 0.203125,0 0.203125,-0.1875 0.203125,-0.328125 z m 0,0"
               id="id-ae6350e9-2d40-43b2-87f2-8f2ec946d0b4" />
          </g>
        </g>
        <g
           style="fill:#00c700;fill-opacity:1"
           id="id-e397d3c4-09c0-4053-90f0-b2b4cf8822b7">
          <g
             transform="translate(311.584, 146.72)"
             id="g16629">
            <path
               style="stroke:none"
               d="M 2.796875,-6.5625 C 2.84375,-6.703125 2.84375,-6.734375 2.84375,-6.734375 c 0,-0.140625 -0.109375,-0.1875 -0.21875,-0.1875 -0.046875,0 -0.046875,0 -0.078125,0.015625 l -1.28125,0.0625 c -0.140625,0 -0.3125,0.015625 -0.3125,0.296875 0,0.171875 0.1875,0.171875 0.25,0.171875 0.109375,0 0.296875,0 0.421875,0.03125 -0.078125,0.328125 -0.171875,0.765625 -0.28125,1.140625 l -0.6875,2.75 c -0.140625,0.5625 -0.140625,0.671875 -0.140625,0.90625 0,1.28125 0.953125,1.625 1.703125,1.625 1.796875,0 2.828125,-1.625 2.828125,-2.9375 C 5.046875,-4.09375 4.125,-4.5 3.296875,-4.5 c -0.46875,0 -0.875,0.1875 -1.078125,0.3125 z m -0.5625,6.28125 c -0.390625,0 -0.71875,-0.203125 -0.71875,-0.828125 0,-0.3125 0.09375,-0.6875 0.171875,-1 0.09375,-0.375 0.265625,-1.0625 0.34375,-1.359375 0.046875,-0.171875 0.609375,-0.671875 1.21875,-0.671875 0.625,0 0.671875,0.53125 0.671875,0.75 0,0.515625 -0.34375,1.75 -0.5,2.140625 -0.34375,0.796875 -0.90625,0.96875 -1.1875,0.96875 z m 0,0"
               id="id-463c2ff3-ec59-4bb4-99da-eb8da7e1db1d" />
          </g>
        </g>
        <path
           style="fill:none;stroke:#00c700;stroke-width:0.398;stroke-linecap:butt;stroke-linejoin:miter;stroke-miterlimit:10;stroke-opacity:1"
           d="M 0.0019375,7.1875e-4 H 5.189437"
           transform="matrix(1 0 0 -1 311.584 148.114)"
           id="id-4983dec5-f543-4f86-a78d-4b1e357c889f" />
        <g
           style="fill:#00c700;fill-opacity:1"
           id="id-dfed6c62-c953-4cae-af5a-4e923e1d595e">
          <g
             transform="translate(319.54, 146.72)"
             id="g16634">
            <path
               style="stroke:none"
               d="m 6.84375,-3.265625 c 0.15625,0 0.34375,0 0.34375,-0.1875 C 7.1875,-3.65625 7,-3.65625 6.859375,-3.65625 h -5.96875 c -0.140625,0 -0.328125,0 -0.328125,0.203125 0,0.1875 0.1875,0.1875 0.328125,0.1875 z m 0.015625,1.9375 c 0.140625,0 0.328125,0 0.328125,-0.203125 0,-0.1875 -0.1875,-0.1875 -0.34375,-0.1875 H 0.890625 c -0.140625,0 -0.328125,0 -0.328125,0.1875 0,0.203125 0.1875,0.203125 0.328125,0.203125 z m 0,0"
               id="id-7ceab507-acb2-4a6d-b1b3-4ccae742a250" />
          </g>
        </g>
        <g
           style="fill:#00c700;fill-opacity:1"
           id="id-dfabb942-2f45-4594-b202-b0ae1219abea">
          <g
             transform="translate(330.056, 146.72)"
             id="g16638">
            <path
               style="stroke:none"
               d="m 5.28125,-3.1875 c 0,-0.953125 -0.015625,-3.34375 -2.421875,-3.34375 -2.40625,0 -2.40625,2.375 -2.40625,3.34375 0,1 0,3.296875 2.40625,3.296875 C 5.25,0.109375 5.28125,-2.1875 5.28125,-3.1875 Z M 2.859375,-0.25 C 2.5,-0.25 1.9375,-0.46875 1.8125,-1.203125 1.71875,-1.71875 1.71875,-2.75 1.71875,-3.296875 c 0,-0.71875 0,-1.375 0.078125,-1.890625 0.125,-0.890625 0.828125,-0.984375 1.0625,-0.984375 0.375,0 0.78125,0.1875 0.96875,0.625 C 4,-5.171875 4,-4.109375 4,-3.296875 4,-2.734375 4,-1.828125 3.921875,-1.3125 3.78125,-0.390625 3.15625,-0.25 2.859375,-0.25 Z m 0,0"
               id="id-34bfba35-2e7c-4859-8df8-56fde5af9a2c" />
          </g>
        </g>
        <path
           style="fill:none;stroke:#00c700;stroke-width:0.398;stroke-linecap:butt;stroke-linejoin:miter;stroke-miterlimit:10;stroke-opacity:1"
           d="M -0.0013125,7.1875e-4 H 5.729156"
           transform="matrix(1 0 0 -1 330.056 148.114)"
           id="id-54fa4d58-c043-4d44-91f5-0ff1659a010e" />
      </g>
    </g>
  </g>
</svg>
